<?xml version="1.0" standalone="no"?><!-- Generator: Gravit.io --><svg xmlns="http://www.w3.org/2000/svg" xmlns:xlink="http://www.w3.org/1999/xlink" style="isolation:isolate" viewBox="0 0 180 163" width="180" height="163"><defs><clipPath id="_clipPath_GZNlYp34i2pWNwY8PUHmeVonD9r4J2CM"><rect width="180" height="163"/></clipPath></defs><g clip-path="url(#_clipPath_GZNlYp34i2pWNwY8PUHmeVonD9r4J2CM)"><path d=" M 0 0 L 180 0 L 180 163 L 0 163 L 0 0 Z " fill="rgb(232,168,232)"/><path d=" M 45.836 70.908 L 45.836 70.908 L 45.836 70.908 Q 44.319 70.606 43.182 69.325 L 43.182 69.325 L 43.182 69.325 Q 42.045 68.045 41.324 66.191 L 41.324 66.191 L 41.324 66.191 Q 40.602 64.337 40.308 62.069 L 40.308 62.069 L 40.308 62.069 Q 40.013 59.8 40.117 57.461 L 40.117 57.461 L 40.117 57.461 Q 40.22 55.122 40.724 52.926 L 40.724 52.926 L 40.724 52.926 Q 41.228 50.731 42.138 49.016 L 42.138 49.016 L 42.138 49.016 Q 43.048 47.302 44.382 46.263 L 44.382 46.263 L 44.382 46.263 Q 45.715 45.223 47.46 45.2 L 47.46 45.2 L 47.46 45.2 Q 47.591 45.534 47.931 46.348 L 47.931 46.348 L 47.931 46.348 Q 48.272 47.163 48.634 48.098 L 48.634 48.098 L 48.634 48.098 Q 48.996 49.034 49.302 49.854 L 49.302 49.854 L 49.302 49.854 Q 49.608 50.675 49.738 51.009 L 49.738 51.009 L 49.738 51.009 Q 49.875 51.377 49.643 51.882 L 49.643 51.882 L 49.643 51.882 Q 49.411 52.388 49.028 52.741 L 49.028 52.741 L 49.028 52.741 Q 48.644 53.095 48.226 53.151 L 48.226 53.151 L 48.226 53.151 Q 47.807 53.207 47.564 52.643 L 47.564 52.643 L 47.564 52.643 Q 47.399 52.316 47.214 51.67 L 47.214 51.67 L 47.214 51.67 Q 47.028 51.025 46.795 50.316 L 46.795 50.316 L 46.795 50.316 Q 46.563 49.607 46.276 48.998 L 46.276 48.998 L 46.276 48.998 Q 45.99 48.388 45.629 48.166 L 45.629 48.166 L 45.629 48.166 Q 45.268 47.944 44.835 48.218 L 44.835 48.218 L 44.835 48.218 Q 44.401 48.491 43.909 49.542 L 43.909 49.542 L 43.909 49.542 Q 43.75 49.856 43.539 50.375 L 43.539 50.375 L 43.539 50.375 Q 43.327 50.894 43.119 51.431 L 43.119 51.431 L 43.119 51.431 Q 42.911 51.968 42.77 52.386 L 42.77 52.386 L 42.77 52.386 Q 42.63 52.803 42.642 52.872 L 42.642 52.872 L 42.546 62.815 L 42.546 62.815 Q 42.517 64.462 43.087 65.665 L 43.087 65.665 L 43.087 65.665 Q 43.657 66.867 44.575 67.615 L 44.575 67.615 L 44.575 67.615 Q 45.493 68.363 46.689 68.668 L 46.689 68.668 L 46.689 68.668 Q 47.886 68.974 49.124 68.808 L 49.124 68.808 L 49.124 68.808 Q 50.362 68.643 51.561 68.056 L 51.561 68.056 L 51.561 68.056 Q 52.761 67.468 53.715 66.407 L 53.715 66.407 L 53.715 66.407 Q 54.075 66.022 54.597 65.037 L 54.597 65.037 L 54.597 65.037 Q 55.119 64.052 55.687 62.826 L 55.687 62.826 L 55.687 62.826 Q 56.256 61.601 56.875 60.259 L 56.875 60.259 L 56.875 60.259 Q 57.494 58.918 58.053 57.837 L 58.053 57.837 L 58.053 57.837 Q 58.611 56.757 59.061 56.07 L 59.061 56.07 L 59.061 56.07 Q 59.51 55.383 59.8 55.404 L 59.8 55.404 L 59.8 55.404 Q 60.589 56.835 60.318 58.632 L 60.318 58.632 L 60.318 58.632 Q 60.047 60.43 59.034 62.269 L 59.034 62.269 L 59.034 62.269 Q 58.021 64.109 56.449 65.815 L 56.449 65.815 L 56.449 65.815 Q 54.877 67.522 53.063 68.771 L 53.063 68.771 L 53.063 68.771 Q 51.249 70.021 49.359 70.641 L 49.359 70.641 L 49.359 70.641 Q 47.47 71.261 45.836 70.908 Z  M 66.254 66.043 L 66.254 66.043 L 66.254 66.043 Q 65.162 64.915 64.71 63.371 L 64.71 63.371 L 64.71 63.371 Q 64.257 61.826 64.124 60.065 L 64.124 60.065 L 64.124 60.065 Q 63.991 58.303 64.059 56.47 L 64.059 56.47 L 64.059 56.47 Q 64.127 54.637 64.113 52.944 L 64.113 52.944 L 64.113 52.944 Q 64.098 51.25 63.879 49.808 L 63.879 49.808 L 63.879 49.808 Q 63.659 48.365 62.956 47.418 L 62.956 47.418 L 62.956 47.418 Q 62.581 46.914 62.116 47.014 L 62.116 47.014 L 62.116 47.014 Q 61.652 47.114 61.137 47.33 L 61.137 47.33 L 61.137 47.33 Q 60.622 47.546 60.079 47.606 L 60.079 47.606 L 60.079 47.606 Q 59.536 47.667 59.011 47.117 L 59.011 47.117 L 59.011 47.117 Q 59.021 46.973 59.206 46.708 L 59.206 46.708 L 59.206 46.708 Q 59.391 46.443 59.489 46.39 L 59.489 46.39 L 59.489 46.39 Q 62.525 45.388 64.812 46.108 L 64.812 46.108 L 64.812 46.108 Q 67.1 46.827 68.698 48.597 L 68.698 48.597 L 68.698 48.597 Q 70.297 50.367 71.218 52.846 L 71.218 52.846 L 71.218 52.846 Q 72.139 55.325 72.448 57.876 L 72.448 57.876 L 72.448 57.876 Q 72.757 60.428 72.483 62.708 L 72.483 62.708 L 72.483 62.708 Q 72.208 64.988 71.413 66.343 L 71.413 66.343 L 71.413 66.343 Q 70.617 67.698 69.312 67.786 L 69.312 67.786 L 69.312 67.786 Q 68.006 67.874 66.254 66.043 Z  M 67.839 64.512 L 67.839 64.512 L 67.839 64.512 Q 67.892 64.61 68.096 64.752 L 68.096 64.752 L 68.096 64.752 Q 68.3 64.895 68.527 65.069 L 68.527 65.069 L 68.527 65.069 Q 68.754 65.243 68.955 65.368 L 68.955 65.368 L 68.955 65.368 Q 69.156 65.493 69.231 65.515 L 69.231 65.515 L 69.231 65.515 Q 70.383 64.562 70.785 63.205 L 70.785 63.205 L 70.785 63.205 Q 71.188 61.848 71.039 60.304 L 71.039 60.304 L 71.039 60.304 Q 70.891 58.759 70.334 57.126 L 70.334 57.126 L 70.334 57.126 Q 69.777 55.493 69.016 54.021 L 69.016 54.021 L 69.016 54.021 Q 68.256 52.549 67.382 51.347 L 67.382 51.347 L 67.382 51.347 Q 66.509 50.145 65.773 49.419 L 65.773 49.419 L 65.773 49.419 Q 65.818 49.875 65.88 50.828 L 65.88 50.828 L 65.88 50.828 Q 65.942 51.781 66.046 52.976 L 66.046 52.976 L 66.046 52.976 Q 66.151 54.172 66.245 55.512 L 66.245 55.512 L 66.245 55.512 Q 66.34 56.852 66.43 58.067 L 66.43 58.067 L 66.43 58.067 Q 66.521 59.283 66.582 60.236 L 66.582 60.236 L 66.582 60.236 Q 66.644 61.189 66.689 61.645 L 66.689 61.645 L 66.689 61.645 Q 66.716 61.998 66.844 62.421 L 66.844 62.421 L 66.844 62.421 Q 66.973 62.845 67.15 63.242 L 67.15 63.242 L 67.15 63.242 Q 67.328 63.639 67.513 63.981 L 67.513 63.981 L 67.513 63.981 Q 67.699 64.323 67.839 64.512 Z  M 75.878 64.338 L 75.878 64.338 L 75.878 64.338 Q 75.321 63.616 74.969 62.232 L 74.969 62.232 L 74.969 62.232 Q 74.617 60.848 74.466 59.09 L 74.466 59.09 L 74.466 59.09 Q 74.315 57.332 74.382 55.392 L 74.382 55.392 L 74.382 55.392 Q 74.449 53.452 74.755 51.648 L 74.755 51.648 L 74.755 51.648 Q 75.06 49.845 75.591 48.305 L 75.591 48.305 L 75.591 48.305 Q 76.121 46.765 76.918 45.82 L 76.918 45.82 L 76.918 45.82 Q 77.715 44.876 78.791 44.703 L 78.791 44.703 L 78.791 44.703 Q 79.867 44.53 81.206 45.436 L 81.206 45.436 L 80.672 35.569 L 80.672 35.569 Q 80.683 35.425 80.885 35.157 L 80.885 35.157 L 80.885 35.157 Q 81.087 34.889 81.191 34.87 L 81.191 34.87 L 81.191 34.87 Q 81.33 34.846 81.55 34.878 L 81.55 34.878 L 81.55 34.878 Q 81.77 34.911 81.975 34.964 L 81.975 34.964 L 81.975 34.964 Q 82.181 35.016 82.338 35.096 L 82.338 35.096 L 82.338 35.096 Q 82.495 35.175 82.507 35.244 L 82.507 35.244 L 85.493 52.103 L 85.493 52.103 Q 85.83 54.007 86.733 55.275 L 86.733 55.275 L 86.733 55.275 Q 87.636 56.543 88.826 57.011 L 88.826 57.011 L 88.826 57.011 Q 90.015 57.479 91.377 57.006 L 91.377 57.006 L 91.377 57.006 Q 92.739 56.532 94.03 54.947 L 94.03 54.947 L 94.03 54.947 Q 94.514 54.861 94.556 55.3 L 94.556 55.3 L 94.556 55.3 Q 94.598 55.739 94.339 56.392 L 94.339 56.392 L 94.339 56.392 Q 94.08 57.045 93.515 57.787 L 93.515 57.787 L 93.515 57.787 Q 92.95 58.53 92.207 59.072 L 92.207 59.072 L 92.207 59.072 Q 91.464 59.614 90.553 59.811 L 90.553 59.811 L 90.553 59.811 Q 89.642 60.008 88.672 59.573 L 88.672 59.573 L 88.672 59.573 Q 87.9 59.246 87.236 58.721 L 87.236 58.721 L 87.236 58.721 Q 86.572 58.196 86.01 57.545 L 86.01 57.545 L 86.01 57.545 Q 85.449 56.895 84.95 56.198 L 84.95 56.198 L 84.95 56.198 Q 84.452 55.501 84.081 54.817 L 84.081 54.817 L 84.081 54.817 Q 83.998 55.153 83.776 55.817 L 83.776 55.817 L 83.776 55.817 Q 83.555 56.481 83.277 57.333 L 83.277 57.333 L 83.277 57.333 Q 83 58.186 82.7 59.114 L 82.7 59.114 L 82.7 59.114 Q 82.4 60.041 82.123 60.894 L 82.123 60.894 L 82.123 60.894 Q 81.845 61.746 81.606 62.413 L 81.606 62.413 L 81.606 62.413 Q 81.367 63.08 81.243 63.388 L 81.243 63.388 L 81.243 63.388 Q 80.918 64.374 80.271 64.953 L 80.271 64.953 L 80.271 64.953 Q 79.623 65.532 78.845 65.669 L 78.845 65.669 L 78.845 65.669 Q 78.066 65.807 77.276 65.483 L 77.276 65.483 L 77.276 65.483 Q 76.487 65.159 75.878 64.338 Z  M 77.463 62.808 L 77.463 62.808 L 77.463 62.808 Q 77.516 62.906 77.682 63.037 L 77.682 63.037 L 77.682 63.037 Q 77.848 63.168 78.043 63.259 L 78.043 63.259 L 78.043 63.259 Q 78.237 63.349 78.434 63.35 L 78.434 63.35 L 78.434 63.35 Q 78.63 63.351 78.779 63.182 L 78.779 63.182 L 78.779 63.182 Q 80.248 61.601 80.991 59.648 L 80.991 59.648 L 80.991 59.648 Q 81.735 57.696 82.043 55.606 L 82.043 55.606 L 82.043 55.606 Q 82.351 53.516 82.367 51.389 L 82.367 51.389 L 82.367 51.389 Q 82.383 49.262 82.398 47.331 L 82.398 47.331 L 82.398 47.331 Q 80.486 47.42 79.248 48.193 L 79.248 48.193 L 79.248 48.193 Q 78.011 48.965 77.301 50.198 L 77.301 50.198 L 77.301 50.198 Q 76.591 51.43 76.335 53.011 L 76.335 53.011 L 76.335 53.011 Q 76.079 54.591 76.163 56.272 L 76.163 56.272 L 76.163 56.272 Q 76.246 57.954 76.602 59.658 L 76.602 59.658 L 76.602 59.658 Q 76.957 61.362 77.463 62.808 Z  M 100.428 61.24 L 100.428 61.24 L 100.428 61.24 Q 98.772 60.355 97.651 58.965 L 97.651 58.965 L 97.651 58.965 Q 96.53 57.575 95.767 55.889 L 95.767 55.889 L 95.767 55.889 Q 95.59 56.099 95.212 56.38 L 95.212 56.38 L 95.212 56.38 Q 94.833 56.661 94.425 56.876 L 94.425 56.876 L 94.425 56.876 Q 94.017 57.091 93.611 57.217 L 93.611 57.217 L 93.611 57.217 Q 93.204 57.342 92.989 57.238 L 92.989 57.238 L 92.989 57.238 Q 92.774 57.133 92.803 56.789 L 92.803 56.789 L 92.803 56.789 Q 92.831 56.445 93.268 55.689 L 93.268 55.689 L 93.268 55.689 Q 93.319 55.573 93.621 55.162 L 93.621 55.162 L 93.621 55.162 Q 93.924 54.752 94.269 54.28 L 94.269 54.28 L 94.269 54.28 Q 94.613 53.808 94.895 53.383 L 94.895 53.383 L 94.895 53.383 Q 95.177 52.959 95.228 52.843 L 95.228 52.843 L 95.228 52.843 Q 95.455 51.91 95.358 50.856 L 95.358 50.856 L 95.358 50.856 Q 95.261 49.802 95.079 48.674 L 95.079 48.674 L 95.079 48.674 Q 94.897 47.546 94.805 46.419 L 94.805 46.419 L 94.805 46.419 Q 94.712 45.293 94.956 44.25 L 94.956 44.25 L 94.956 44.25 Q 95.1 43.654 95.631 42.721 L 95.631 42.721 L 95.631 42.721 Q 96.162 41.788 96.875 40.876 L 96.875 40.876 L 96.875 40.876 Q 97.589 39.964 98.364 39.202 L 98.364 39.202 L 98.364 39.202 Q 99.14 38.44 99.755 38.188 L 99.755 38.188 L 99.755 38.188 Q 100.371 37.936 100.745 38.334 L 100.745 38.334 L 100.745 38.334 Q 101.119 38.732 101.035 40.068 L 101.035 40.068 L 101.035 40.068 Q 100.923 41.658 100.399 43.233 L 100.399 43.233 L 100.399 43.233 Q 99.875 44.808 99.292 46.357 L 99.292 46.357 L 99.292 46.357 Q 98.709 47.906 98.21 49.422 L 98.21 49.422 L 98.21 49.422 Q 97.711 50.939 97.651 52.413 L 97.651 52.413 L 97.651 52.413 Q 97.613 53.206 97.806 54.296 L 97.806 54.296 L 97.806 54.296 Q 97.999 55.387 98.432 56.417 L 98.432 56.417 L 98.432 56.417 Q 98.864 57.447 99.574 58.232 L 99.574 58.232 L 99.574 58.232 Q 100.284 59.016 101.315 59.191 L 101.315 59.191 L 101.315 59.191 Q 102.496 59.41 103.567 59.006 L 103.567 59.006 L 103.567 59.006 Q 104.638 58.602 105.59 57.827 L 105.59 57.827 L 105.59 57.827 Q 106.541 57.051 107.354 55.997 L 107.354 55.997 L 107.354 55.997 Q 108.167 54.942 108.833 53.861 L 108.833 53.861 L 108.833 53.861 Q 109.498 52.779 109.999 51.78 L 109.999 51.78 L 109.999 51.78 Q 110.501 50.78 110.84 50.078 L 110.84 50.078 L 111.539 50.596 L 111.539 50.596 Q 111.818 50.761 111.454 51.826 L 111.454 51.826 L 111.454 51.826 Q 111.089 52.89 110.285 54.3 L 110.285 54.3 L 110.285 54.3 Q 109.481 55.709 108.324 57.236 L 108.324 57.236 L 108.324 57.236 Q 107.166 58.762 105.848 59.888 L 105.848 59.888 L 105.848 59.888 Q 104.53 61.014 103.13 61.476 L 103.13 61.476 L 103.13 61.476 Q 101.73 61.938 100.428 61.24 Z  M 96.584 46.39 L 96.584 46.39 L 96.584 46.39 Q 96.58 46.569 96.64 47.005 L 96.64 47.005 L 96.64 47.005 Q 96.699 47.441 96.785 47.925 L 96.785 47.925 L 96.785 47.925 Q 96.871 48.41 96.962 48.822 L 96.962 48.822 L 96.962 48.822 Q 97.053 49.235 97.118 49.402 L 97.118 49.402 L 97.118 49.402 Q 97.888 47.301 98.478 44.984 L 98.478 44.984 L 98.478 44.984 Q 99.067 42.666 99.234 40.387 L 99.234 40.387 L 99.234 40.387 Q 98.487 40.805 97.948 41.489 L 97.948 41.489 L 97.948 41.489 Q 97.409 42.174 97.09 42.998 L 97.09 42.998 L 97.09 42.998 Q 96.772 43.822 96.66 44.698 L 96.66 44.698 L 96.66 44.698 Q 96.547 45.575 96.584 46.39 Z " fill="rgb(0,0,0)"/><path d=" M 36.526 124.233 L 34.713 114.021 L 34.713 114.021 Q 34.508 114.272 34.054 114.834 L 34.054 114.834 L 34.054 114.834 Q 33.601 115.397 33.009 115.984 L 33.009 115.984 L 33.009 115.984 Q 32.417 116.571 31.721 116.98 L 31.721 116.98 L 31.721 116.98 Q 31.026 117.389 30.332 117.298 L 30.332 117.298 L 30.332 117.298 Q 30.037 117.244 29.844 117.064 L 29.844 117.064 L 29.844 117.064 Q 29.651 116.884 29.553 116.633 L 29.553 116.633 L 29.553 116.633 Q 29.455 116.383 29.423 116.103 L 29.423 116.103 L 29.423 116.103 Q 29.392 115.823 29.418 115.568 L 29.418 115.568 L 35.079 110.85 L 33.266 100.639 L 33.266 100.639 Q 33.211 100.327 33.564 100.104 L 33.564 100.104 L 33.564 100.104 Q 33.917 99.88 34.367 99.8 L 34.367 99.8 L 34.367 99.8 Q 34.817 99.721 35.226 99.809 L 35.226 99.809 L 35.226 99.809 Q 35.634 99.897 35.689 100.208 L 35.689 100.208 L 37.182 108.62 L 37.182 108.62 Q 38.501 107.6 39.703 106.227 L 39.703 106.227 L 39.703 106.227 Q 40.906 104.853 41.709 103.443 L 41.709 103.443 L 41.709 103.443 Q 42.512 102.033 42.753 100.776 L 42.753 100.776 L 42.753 100.776 Q 42.994 99.519 42.387 98.716 L 42.387 98.716 L 42.387 98.716 Q 41.781 97.913 40.163 97.754 L 40.163 97.754 L 40.163 97.754 Q 38.546 97.595 35.647 98.359 L 35.647 98.359 L 35.647 98.359 Q 35.036 98.539 34.122 99.023 L 34.122 99.023 L 34.122 99.023 Q 33.208 99.506 32.146 100.159 L 32.146 100.159 L 32.146 100.159 Q 31.083 100.812 29.975 101.508 L 29.975 101.508 L 29.975 101.508 Q 28.867 102.205 27.865 102.793 L 27.865 102.793 L 27.865 102.793 Q 26.862 103.382 26.065 103.72 L 26.065 103.72 L 26.065 103.72 Q 25.268 104.058 24.863 103.987 L 24.863 103.987 L 24.863 103.987 Q 24.862 103.38 25.16 102.845 L 25.16 102.845 L 25.16 102.845 Q 25.458 102.31 25.927 101.834 L 25.927 101.834 L 25.927 101.834 Q 26.396 101.358 26.935 100.977 L 26.935 100.977 L 26.935 100.977 Q 27.474 100.595 27.963 100.33 L 27.963 100.33 L 27.963 100.33 Q 29.952 99.263 31.389 98.508 L 31.389 98.508 L 31.389 98.508 Q 32.826 97.753 34.254 97.25 L 34.254 97.25 L 34.254 97.25 Q 35.682 96.746 37.347 96.469 L 37.347 96.469 L 37.347 96.469 Q 39.011 96.191 41.455 96.079 L 41.455 96.079 L 41.455 96.079 Q 43.479 96.219 44.371 96.918 L 44.371 96.918 L 44.371 96.918 Q 45.263 97.617 45.343 98.674 L 45.343 98.674 L 45.343 98.674 Q 45.424 99.73 44.868 101.025 L 44.868 101.025 L 44.868 101.025 Q 44.312 102.32 43.428 103.673 L 43.428 103.673 L 43.428 103.673 Q 42.543 105.026 41.476 106.358 L 41.476 106.358 L 41.476 106.358 Q 40.409 107.69 39.496 108.781 L 39.496 108.781 L 39.496 108.781 Q 38.583 109.871 37.99 110.655 L 37.99 110.655 L 37.99 110.655 Q 37.397 111.438 37.405 111.687 L 37.405 111.687 L 38.111 122.702 L 37.952 123.016 L 37.952 123.016 Q 37.822 123.289 37.609 123.594 L 37.609 123.594 L 37.609 123.594 Q 37.395 123.9 37.097 124.131 L 37.097 124.131 L 37.097 124.131 Q 36.799 124.363 36.526 124.233 L 36.526 124.233 L 36.526 124.233 Z  M 50.753 105.818 L 53.42 120.842 L 53.42 120.842 Q 53.069 122.082 52.691 122.167 L 52.691 122.167 L 52.691 122.167 Q 52.313 122.252 51.915 121.519 L 51.915 121.519 L 51.915 121.519 Q 51.517 120.786 51.11 119.395 L 51.11 119.395 L 51.11 119.395 Q 50.702 118.003 50.343 116.282 L 50.343 116.282 L 50.343 116.282 Q 49.984 114.56 49.681 112.65 L 49.681 112.65 L 49.681 112.65 Q 49.377 110.74 49.15 108.959 L 49.15 108.959 L 49.15 108.959 Q 48.924 107.179 48.801 105.683 L 48.801 105.683 L 48.801 105.683 Q 48.678 104.187 48.684 103.312 L 48.684 103.312 L 48.684 103.312 Q 48.689 102.436 48.85 102.336 L 48.85 102.336 L 48.85 102.336 Q 49.01 102.236 49.362 103.209 L 49.362 103.209 L 49.362 103.209 Q 50.322 102.182 51.471 101.21 L 51.471 101.21 L 51.471 101.21 Q 52.619 100.239 53.897 99.494 L 53.897 99.494 L 53.897 99.494 Q 55.176 98.749 56.553 98.362 L 56.553 98.362 L 56.553 98.362 Q 57.93 97.975 59.313 98.122 L 59.313 98.122 L 59.313 98.122 Q 59.532 98.547 59.532 99.154 L 59.532 99.154 L 59.532 99.154 Q 59.533 99.761 59.01 100.033 L 59.01 100.033 L 59.01 100.033 Q 58.437 100.027 57.537 100.187 L 57.537 100.187 L 57.537 100.187 Q 56.637 100.347 55.658 100.663 L 55.658 100.663 L 55.658 100.663 Q 54.679 100.98 53.73 101.47 L 53.73 101.47 L 53.73 101.47 Q 52.782 101.959 52.057 102.606 L 52.057 102.606 L 52.057 102.606 Q 51.333 103.252 50.957 104.051 L 50.957 104.051 L 50.957 104.051 Q 50.581 104.849 50.753 105.818 L 50.753 105.818 L 50.753 105.818 Z  M 67.845 116.817 L 67.845 116.817 L 67.845 116.817 Q 66.752 115.69 66.299 114.146 L 66.299 114.146 L 66.299 114.146 Q 65.847 112.602 65.713 110.84 L 65.713 110.84 L 65.713 110.84 Q 65.578 109.079 65.646 107.246 L 65.646 107.246 L 65.646 107.246 Q 65.713 105.413 65.698 103.719 L 65.698 103.719 L 65.698 103.719 Q 65.683 102.026 65.463 100.583 L 65.463 100.583 L 65.463 100.583 Q 65.243 99.141 64.539 98.194 L 64.539 98.194 L 64.539 98.194 Q 64.164 97.69 63.7 97.79 L 63.7 97.79 L 63.7 97.79 Q 63.236 97.89 62.72 98.106 L 62.72 98.106 L 62.72 98.106 Q 62.205 98.323 61.663 98.383 L 61.663 98.383 L 61.663 98.383 Q 61.12 98.444 60.594 97.895 L 60.594 97.895 L 60.594 97.895 Q 60.604 97.75 60.789 97.485 L 60.789 97.485 L 60.789 97.485 Q 60.974 97.22 61.072 97.167 L 61.072 97.167 L 61.072 97.167 Q 64.107 96.164 66.395 96.883 L 66.395 96.883 L 66.395 96.883 Q 68.683 97.602 70.282 99.371 L 70.282 99.371 L 70.282 99.371 Q 71.882 101.14 72.804 103.619 L 72.804 103.619 L 72.804 103.619 Q 73.726 106.097 74.036 108.649 L 74.036 108.649 L 74.036 108.649 Q 74.346 111.2 74.072 113.48 L 74.072 113.48 L 74.072 113.48 Q 73.798 115.761 73.003 117.116 L 73.003 117.116 L 73.003 117.116 Q 72.209 118.471 70.903 118.56 L 70.903 118.56 L 70.903 118.56 Q 69.598 118.648 67.845 116.817 Z  M 69.43 115.286 L 69.43 115.286 L 69.43 115.286 Q 69.483 115.384 69.686 115.526 L 69.686 115.526 L 69.686 115.526 Q 69.89 115.669 70.117 115.843 L 70.117 115.843 L 70.117 115.843 Q 70.345 116.016 70.545 116.142 L 70.545 116.142 L 70.545 116.142 Q 70.746 116.267 70.822 116.289 L 70.822 116.289 L 70.822 116.289 Q 71.973 115.335 72.375 113.978 L 72.375 113.978 L 72.375 113.978 Q 72.777 112.621 72.628 111.077 L 72.628 111.077 L 72.628 111.077 Q 72.479 109.532 71.921 107.899 L 71.921 107.899 L 71.921 107.899 Q 71.364 106.267 70.602 104.795 L 70.602 104.795 L 70.602 104.795 Q 69.841 103.323 68.967 102.121 L 68.967 102.121 L 68.967 102.121 Q 68.094 100.92 67.358 100.193 L 67.358 100.193 L 67.358 100.193 Q 67.403 100.65 67.465 101.603 L 67.465 101.603 L 67.465 101.603 Q 67.527 102.556 67.632 103.751 L 67.632 103.751 L 67.632 103.751 Q 67.737 104.946 67.832 106.286 L 67.832 106.286 L 67.832 106.286 Q 67.927 107.626 68.018 108.842 L 68.018 108.842 L 68.018 108.842 Q 68.109 110.058 68.171 111.011 L 68.171 111.011 L 68.171 111.011 Q 68.233 111.964 68.278 112.42 L 68.278 112.42 L 68.278 112.42 Q 68.305 112.772 68.434 113.196 L 68.434 113.196 L 68.434 113.196 Q 68.562 113.619 68.74 114.016 L 68.74 114.016 L 68.74 114.016 Q 68.918 114.413 69.103 114.755 L 69.103 114.755 L 69.103 114.755 Q 69.289 115.097 69.43 115.286 Z  M 78.4 137.867 L 78.4 137.867 L 78.4 137.867 Q 77.758 137.267 77.419 136.363 L 77.419 136.363 L 77.419 136.363 Q 77.08 135.459 76.971 134.443 L 76.971 134.443 L 76.971 134.443 Q 76.863 133.427 76.919 132.435 L 76.919 132.435 L 76.919 132.435 Q 76.975 131.443 77.123 130.667 L 77.123 130.667 L 77.123 130.667 Q 77.187 130.227 77.348 129.324 L 77.348 129.324 L 77.348 129.324 Q 77.509 128.42 77.734 127.273 L 77.734 127.273 L 77.734 127.273 Q 77.959 126.127 78.2 124.87 L 78.2 124.87 L 78.2 124.87 Q 78.441 123.613 78.687 122.48 L 78.687 122.48 L 78.687 122.48 Q 78.932 121.348 79.131 120.456 L 79.131 120.456 L 79.429 119.117 L 79.429 119.117 Q 79.321 117.708 78.953 116.435 L 78.953 116.435 L 78.953 116.435 Q 78.584 115.161 78.086 113.964 L 78.086 113.964 L 78.086 113.964 Q 77.588 112.767 76.986 111.589 L 76.986 111.589 L 76.986 111.589 Q 76.384 110.41 75.776 109.197 L 75.776 109.197 L 75.776 109.197 Q 75.557 108.771 75.695 108.443 L 75.695 108.443 L 75.695 108.443 Q 75.834 108.115 76.13 107.974 L 76.13 107.974 L 76.13 107.974 Q 76.426 107.832 76.811 107.888 L 76.811 107.888 L 76.811 107.888 Q 77.196 107.945 77.506 108.283 L 77.506 108.283 L 77.506 108.283 Q 78.225 109.119 78.671 110.022 L 78.671 110.022 L 78.671 110.022 Q 79.117 110.925 79.5 111.874 L 79.5 111.874 L 79.5 111.874 Q 79.883 112.824 80.269 113.791 L 80.269 113.791 L 80.269 113.791 Q 80.654 114.758 81.248 115.688 L 81.248 115.688 L 81.248 115.688 Q 81.574 115.309 82.296 114.449 L 82.296 114.449 L 82.296 114.449 Q 83.018 113.589 83.954 112.726 L 83.954 112.726 L 83.954 112.726 Q 84.89 111.864 85.906 111.255 L 85.906 111.255 L 85.906 111.255 Q 86.923 110.646 87.838 110.769 L 87.838 110.769 L 87.838 110.769 Q 87.948 110.786 88.23 110.968 L 88.23 110.968 L 88.23 110.968 Q 88.512 111.15 88.571 111.282 L 88.571 111.282 L 88.571 111.282 Q 88.374 111.781 87.79 112.313 L 87.79 112.313 L 87.79 112.313 Q 87.206 112.845 86.435 113.428 L 86.435 113.428 L 86.435 113.428 Q 85.664 114.012 84.837 114.587 L 84.837 114.587 L 84.837 114.587 Q 84.011 115.162 83.347 115.744 L 83.347 115.744 L 83.347 115.744 Q 82.682 116.326 82.287 116.914 L 82.287 116.914 L 82.287 116.914 Q 81.891 117.502 81.984 118.021 L 81.984 118.021 L 84.226 130.656 L 84.226 130.656 Q 84.324 131.21 84.196 132.196 L 84.196 132.196 L 84.196 132.196 Q 84.068 133.183 83.747 134.293 L 83.747 134.293 L 83.747 134.293 Q 83.426 135.404 82.914 136.441 L 82.914 136.441 L 82.914 136.441 Q 82.402 137.478 81.709 138.101 L 81.709 138.101 L 81.709 138.101 Q 81.016 138.724 80.181 138.747 L 80.181 138.747 L 80.181 138.747 Q 79.346 138.77 78.4 137.867 Z  M 79.138 131.559 L 79.138 131.559 L 79.138 131.559 Q 79.152 131.842 79.255 132.52 L 79.255 132.52 L 79.255 132.52 Q 79.357 133.198 79.492 133.96 L 79.492 133.96 L 79.492 133.96 Q 79.627 134.721 79.768 135.41 L 79.768 135.41 L 79.768 135.41 Q 79.908 136.1 79.985 136.336 L 79.985 136.336 L 79.985 136.336 Q 80.061 136.358 80.286 136.318 L 80.286 136.318 L 80.286 136.318 Q 80.511 136.278 80.574 136.231 L 80.574 136.231 L 80.574 136.231 Q 81.079 135.856 81.345 134.845 L 81.345 134.845 L 81.345 134.845 Q 81.612 133.833 81.742 132.757 L 81.742 132.757 L 81.742 132.757 Q 81.873 131.68 81.913 130.799 L 81.913 130.799 L 81.913 130.799 Q 81.952 129.917 81.934 129.813 L 81.934 129.813 L 81.934 129.813 Q 81.895 129.391 81.731 128.367 L 81.731 128.367 L 81.731 128.367 Q 81.567 127.343 81.361 126.183 L 81.361 126.183 L 81.361 126.183 Q 81.155 125.024 80.957 124.006 L 80.957 124.006 L 80.957 124.006 Q 80.758 122.987 80.65 122.578 L 80.65 122.578 L 80.65 122.578 Q 79.893 124.748 79.399 126.996 L 79.399 126.996 L 79.399 126.996 Q 78.905 129.244 79.138 131.559 Z  M 75.798 98.66 L 75.798 98.66 L 75.798 98.66 Q 75.476 98.253 75.677 97.878 L 75.677 97.878 L 75.677 97.878 Q 75.878 97.503 76.31 97.319 L 76.31 97.319 L 76.31 97.319 Q 76.741 97.135 77.25 97.188 L 77.25 97.188 L 77.25 97.188 Q 77.76 97.24 78.041 97.619 L 78.041 97.619 L 78.041 97.619 Q 78.329 98.032 78.121 98.372 L 78.121 98.372 L 78.121 98.372 Q 77.914 98.713 77.482 98.896 L 77.482 98.896 L 77.482 98.896 Q 77.051 99.08 76.565 99.059 L 76.565 99.059 L 76.565 99.059 Q 76.079 99.038 75.798 98.66 Z  M 92.81 113.636 L 92.81 113.636 L 92.81 113.636 Q 91.153 112.752 90.031 111.362 L 90.031 111.362 L 90.031 111.362 Q 88.91 109.972 88.147 108.286 L 88.147 108.286 L 88.147 108.286 Q 87.97 108.496 87.591 108.778 L 87.591 108.778 L 87.591 108.778 Q 87.213 109.059 86.805 109.275 L 86.805 109.275 L 86.805 109.275 Q 86.396 109.49 85.99 109.615 L 85.99 109.615 L 85.99 109.615 Q 85.584 109.741 85.369 109.636 L 85.369 109.636 L 85.369 109.636 Q 85.154 109.532 85.182 109.188 L 85.182 109.188 L 85.182 109.188 Q 85.211 108.843 85.648 108.087 L 85.648 108.087 L 85.648 108.087 Q 85.698 107.971 86 107.561 L 86 107.561 L 86 107.561 Q 86.302 107.15 86.647 106.678 L 86.647 106.678 L 86.647 106.678 Q 86.992 106.206 87.274 105.781 L 87.274 105.781 L 87.274 105.781 Q 87.555 105.356 87.606 105.24 L 87.606 105.24 L 87.606 105.24 Q 87.833 104.307 87.735 103.254 L 87.735 103.254 L 87.735 103.254 Q 87.638 102.2 87.455 101.072 L 87.455 101.072 L 87.455 101.072 Q 87.273 99.944 87.18 98.817 L 87.18 98.817 L 87.18 98.817 Q 87.087 97.691 87.331 96.648 L 87.331 96.648 L 87.331 96.648 Q 87.475 96.052 88.005 95.118 L 88.005 95.118 L 88.005 95.118 Q 88.536 94.185 89.249 93.273 L 89.249 93.273 L 89.249 93.273 Q 89.962 92.361 90.737 91.598 L 90.737 91.598 L 90.737 91.598 Q 91.512 90.836 92.128 90.584 L 92.128 90.584 L 92.128 90.584 Q 92.744 90.332 93.118 90.73 L 93.118 90.73 L 93.118 90.73 Q 93.492 91.127 93.408 92.463 L 93.408 92.463 L 93.408 92.463 Q 93.297 94.054 92.773 95.629 L 92.773 95.629 L 92.773 95.629 Q 92.25 97.204 91.668 98.753 L 91.668 98.753 L 91.668 98.753 Q 91.086 100.302 90.587 101.819 L 90.587 101.819 L 90.587 101.819 Q 90.089 103.336 90.029 104.81 L 90.029 104.81 L 90.029 104.81 Q 89.991 105.603 90.185 106.693 L 90.185 106.693 L 90.185 106.693 Q 90.378 107.783 90.811 108.813 L 90.811 108.813 L 90.811 108.813 Q 91.244 109.843 91.954 110.628 L 91.954 110.628 L 91.954 110.628 Q 92.665 111.412 93.695 111.586 L 93.695 111.586 L 93.695 111.586 Q 94.877 111.805 95.948 111.401 L 95.948 111.401 L 95.948 111.401 Q 97.019 110.997 97.97 110.221 L 97.97 110.221 L 97.97 110.221 Q 98.921 109.445 99.734 108.39 L 99.734 108.39 L 99.734 108.39 Q 100.546 107.335 101.211 106.253 L 101.211 106.253 L 101.211 106.253 Q 101.876 105.171 102.377 104.172 L 102.377 104.172 L 102.377 104.172 Q 102.878 103.172 103.217 102.469 L 103.217 102.469 L 103.917 102.988 L 103.917 102.988 Q 104.196 103.153 103.831 104.217 L 103.831 104.217 L 103.831 104.217 Q 103.467 105.282 102.664 106.692 L 102.664 106.692 L 102.664 106.692 Q 101.861 108.102 100.703 109.628 L 100.703 109.628 L 100.703 109.628 Q 99.546 111.155 98.228 112.281 L 98.228 112.281 L 98.228 112.281 Q 96.911 113.408 95.511 113.871 L 95.511 113.871 L 95.511 113.871 Q 94.112 114.333 92.81 113.636 Z  M 88.96 98.787 L 88.96 98.787 L 88.96 98.787 Q 88.956 98.966 89.016 99.402 L 89.016 99.402 L 89.016 99.402 Q 89.075 99.838 89.161 100.323 L 89.161 100.323 L 89.161 100.323 Q 89.247 100.807 89.338 101.22 L 89.338 101.22 L 89.338 101.22 Q 89.429 101.632 89.495 101.799 L 89.495 101.799 L 89.495 101.799 Q 90.264 99.698 90.853 97.38 L 90.853 97.38 L 90.853 97.38 Q 91.441 95.062 91.608 92.783 L 91.608 92.783 L 91.608 92.783 Q 90.861 93.201 90.322 93.886 L 90.322 93.886 L 90.322 93.886 Q 89.783 94.571 89.465 95.395 L 89.465 95.395 L 89.465 95.395 Q 89.147 96.219 89.035 97.096 L 89.035 97.096 L 89.035 97.096 Q 88.923 97.973 88.96 98.787 Z  M 106.649 110.537 L 106.649 110.537 L 106.649 110.537 Q 105.196 109.795 104.382 108.529 L 104.382 108.529 L 104.382 108.529 Q 103.568 107.263 103.231 105.663 L 103.231 105.663 L 103.231 105.663 Q 102.893 104.062 102.99 102.296 L 102.99 102.296 L 102.99 102.296 Q 103.087 100.529 103.462 98.82 L 103.462 98.82 L 103.462 98.82 Q 103.837 97.111 104.408 95.599 L 104.408 95.599 L 104.408 95.599 Q 104.979 94.087 105.641 92.988 L 105.641 92.988 L 105.641 92.988 Q 106.303 91.889 106.959 91.361 L 106.959 91.361 L 106.959 91.361 Q 107.615 90.834 108.127 91.101 L 108.127 91.101 L 108.127 91.101 Q 108.263 91.469 108.635 92.457 L 108.635 92.457 L 108.635 92.457 Q 109.007 93.444 109.403 94.57 L 109.403 94.57 L 109.403 94.57 Q 109.799 95.696 110.136 96.689 L 110.136 96.689 L 110.136 96.689 Q 110.473 97.683 110.61 98.051 L 110.61 98.051 L 110.61 98.051 Q 110.759 98.489 110.813 98.997 L 110.813 98.997 L 110.813 98.997 Q 110.868 99.505 110.765 99.934 L 110.765 99.934 L 110.765 99.934 Q 110.663 100.362 110.299 100.623 L 110.299 100.623 L 110.299 100.623 Q 109.934 100.885 109.24 100.794 L 109.24 100.794 L 109.24 100.794 Q 109.162 100.557 108.902 99.997 L 108.902 99.997 L 108.902 99.997 Q 108.642 99.436 108.332 98.795 L 108.332 98.795 L 108.332 98.795 Q 108.022 98.153 107.724 97.581 L 107.724 97.581 L 107.724 97.581 Q 107.426 97.009 107.313 96.779 L 107.313 96.779 L 106.621 96.295 L 106.621 96.295 Q 105.677 97.213 105.207 98.689 L 105.207 98.689 L 105.207 98.689 Q 104.737 100.165 104.705 101.795 L 104.705 101.795 L 104.705 101.795 Q 104.673 103.425 105.108 104.973 L 105.108 104.973 L 105.108 104.973 Q 105.543 106.52 106.395 107.6 L 106.395 107.6 L 106.395 107.6 Q 107.248 108.681 108.515 109.081 L 108.515 109.081 L 108.515 109.081 Q 109.782 109.481 111.456 108.755 L 111.456 108.755 L 111.456 108.755 Q 113.131 108.03 115.199 106.002 L 115.199 106.002 L 115.199 106.002 Q 117.267 103.975 119.701 100.187 L 119.701 100.187 L 119.916 101.398 L 119.916 101.398 Q 119.935 101.502 119.611 102.095 L 119.611 102.095 L 119.611 102.095 Q 119.288 102.688 118.819 103.467 L 118.819 103.467 L 118.819 103.467 Q 118.351 104.247 117.862 105.012 L 117.862 105.012 L 117.862 105.012 Q 117.373 105.777 117.025 106.232 L 117.025 106.232 L 117.025 106.232 Q 116.073 107.507 114.935 108.638 L 114.935 108.638 L 114.935 108.638 Q 113.796 109.768 112.492 110.464 L 112.492 110.464 L 112.492 110.464 Q 111.187 111.16 109.723 111.259 L 109.723 111.259 L 109.723 111.259 Q 108.259 111.358 106.649 110.537 Z  M 131.322 104.908 L 131.322 104.908 L 131.322 104.908 Q 130.333 103.762 129.632 102.226 L 129.632 102.226 L 129.632 102.226 Q 128.931 100.691 128.457 99.025 L 128.457 99.025 L 128.457 99.025 Q 127.983 97.36 127.705 95.695 L 127.705 95.695 L 127.705 95.695 Q 127.428 94.031 127.251 92.634 L 127.251 92.634 L 127.251 92.634 Q 126.742 92.581 126.156 92.899 L 126.156 92.899 L 126.156 92.899 Q 125.57 93.218 124.936 93.669 L 124.936 93.669 L 124.936 93.669 Q 124.302 94.121 123.642 94.631 L 123.642 94.631 L 123.642 94.631 Q 122.983 95.141 122.391 95.424 L 122.391 95.424 L 122.391 95.424 Q 121.798 95.708 121.261 95.696 L 121.261 95.696 L 121.261 95.696 Q 120.723 95.685 120.301 95.117 L 120.301 95.117 L 120.301 95.117 Q 119.885 94.584 120.187 94.173 L 120.187 94.173 L 120.187 94.173 Q 120.489 93.762 121.165 93.446 L 121.165 93.446 L 121.165 93.446 Q 121.841 93.13 122.76 92.877 L 122.76 92.877 L 122.76 92.877 Q 123.679 92.625 124.485 92.339 L 124.485 92.339 L 124.485 92.339 Q 125.292 92.053 125.84 91.724 L 125.84 91.724 L 125.84 91.724 Q 126.389 91.394 126.343 90.938 L 126.343 90.938 L 125.214 77.535 L 125.214 77.535 Q 125.193 77.217 125.457 76.992 L 125.457 76.992 L 125.457 76.992 Q 125.72 76.766 126.049 76.708 L 126.049 76.708 L 126.049 76.708 Q 126.378 76.65 126.665 76.759 L 126.665 76.759 L 126.665 76.759 Q 126.953 76.869 127.014 77.215 L 127.014 77.215 L 129.035 88.604 L 129.035 88.604 Q 129.538 88.621 129.967 88.42 L 129.967 88.42 L 129.967 88.42 Q 130.395 88.219 130.815 87.966 L 130.815 87.966 L 130.815 87.966 Q 131.234 87.713 131.648 87.533 L 131.648 87.533 L 131.648 87.533 Q 132.062 87.352 132.566 87.37 L 132.566 87.37 L 132.566 87.37 Q 132.841 87.714 132.622 88.092 L 132.622 88.092 L 132.622 88.092 Q 132.404 88.47 132.157 88.692 L 132.157 88.692 L 131.602 89.183 L 131.602 89.183 Q 131.23 89.5 130.815 89.877 L 130.815 89.877 L 130.815 89.877 Q 130.399 90.254 130.01 90.573 L 130.01 90.573 L 130.01 90.573 Q 129.62 90.892 129.459 90.992 L 129.459 90.992 L 129.459 90.992 Q 129.511 91.483 129.705 92.68 L 129.705 92.68 L 129.705 92.68 Q 129.9 93.877 130.14 95.227 L 130.14 95.227 L 130.14 95.227 Q 130.379 96.577 130.608 97.769 L 130.608 97.769 L 130.608 97.769 Q 130.838 98.96 130.958 99.438 L 130.958 99.438 L 130.958 99.438 Q 131.386 101.04 132.11 102.304 L 132.11 102.304 L 132.11 102.304 Q 132.834 103.568 133.8 104.183 L 133.8 104.183 L 133.8 104.183 Q 134.766 104.797 135.926 104.591 L 135.926 104.591 L 135.926 104.591 Q 137.085 104.385 138.452 103.035 L 138.452 103.035 L 138.452 103.035 Q 138.836 103.789 138.67 104.461 L 138.67 104.461 L 138.67 104.461 Q 138.503 105.133 137.945 105.607 L 137.945 105.607 L 137.945 105.607 Q 137.386 106.081 136.539 106.339 L 136.539 106.339 L 136.539 106.339 Q 135.692 106.596 134.773 106.545 L 134.773 106.545 L 134.773 106.545 Q 133.853 106.494 132.927 106.105 L 132.927 106.105 L 132.927 106.105 Q 132.001 105.716 131.322 104.908 Z  M 139.852 105.286 L 139.852 105.286 L 139.852 105.286 Q 138.91 104.811 138.313 103.757 L 138.313 103.757 L 138.313 103.757 Q 137.715 102.702 137.522 101.719 L 137.522 101.719 L 137.522 101.719 Q 137.33 100.735 137.512 100.15 L 137.512 100.15 L 137.512 100.15 Q 137.693 99.564 138.27 99.997 L 138.27 99.997 L 138.27 99.997 Q 138.533 101.879 139.466 102.713 L 139.466 102.713 L 139.466 102.713 Q 140.4 103.547 141.533 103.595 L 141.533 103.595 L 141.533 103.595 Q 142.667 103.644 143.828 103.045 L 143.828 103.045 L 143.828 103.045 Q 144.989 102.447 145.727 101.476 L 145.727 101.476 L 145.727 101.476 Q 146.466 100.506 146.586 99.271 L 146.586 99.271 L 146.586 99.271 Q 146.706 98.036 145.774 96.809 L 145.774 96.809 L 145.774 96.809 Q 144.696 95.964 143.402 95.212 L 143.402 95.212 L 143.402 95.212 Q 142.108 94.46 140.799 93.728 L 140.799 93.728 L 140.799 93.728 Q 139.491 92.996 138.243 92.2 L 138.243 92.2 L 138.243 92.2 Q 136.995 91.404 135.968 90.444 L 135.968 90.444 L 135.968 90.444 Q 135.886 90.387 135.846 90.162 L 135.846 90.162 L 135.846 90.162 Q 135.806 89.937 135.863 89.855 L 135.863 89.855 L 135.863 89.855 Q 136.05 89.501 136.383 88.763 L 136.383 88.763 L 136.383 88.763 Q 136.717 88.026 137.158 87.091 L 137.158 87.091 L 137.158 87.091 Q 137.599 86.155 138.094 85.121 L 138.094 85.121 L 138.094 85.121 Q 138.588 84.087 139.029 83.152 L 139.029 83.152 L 139.029 83.152 Q 139.47 82.217 139.821 81.476 L 139.821 81.476 L 139.821 81.476 Q 140.172 80.736 140.359 80.381 L 140.359 80.381 L 140.359 80.381 Q 140.733 79.672 141.216 79.479 L 141.216 79.479 L 141.216 79.479 Q 141.7 79.286 142.677 79.362 L 142.677 79.362 L 142.677 79.362 Q 142.667 79.507 142.508 80.017 L 142.508 80.017 L 142.508 80.017 Q 142.348 80.528 142.269 80.685 L 142.269 80.685 L 142.269 80.685 Q 142.066 81.149 141.486 82.305 L 141.486 82.305 L 141.486 82.305 Q 140.905 83.462 140.246 84.775 L 140.246 84.775 L 140.246 84.775 Q 139.586 86.088 139.006 87.245 L 139.006 87.245 L 139.006 87.245 Q 138.426 88.401 138.182 88.837 L 138.182 88.837 L 138.182 88.837 Q 137.979 89.301 138.561 89.769 L 138.561 89.769 L 138.561 89.769 Q 139.144 90.237 140.167 90.77 L 140.167 90.77 L 140.167 90.77 Q 141.19 91.302 142.483 91.948 L 142.483 91.948 L 142.483 91.948 Q 143.776 92.593 144.969 93.381 L 144.969 93.381 L 144.969 93.381 Q 146.162 94.169 147.068 95.151 L 147.068 95.151 L 147.068 95.151 Q 147.975 96.132 148.251 97.387 L 148.251 97.387 L 148.251 97.387 Q 148.527 98.641 147.994 100.164 L 147.994 100.164 L 147.994 100.164 Q 147.461 101.686 145.729 103.601 L 145.729 103.601 L 145.729 103.601 Q 145.192 104.196 144.51 104.674 L 144.51 104.674 L 144.51 104.674 Q 143.827 105.152 143.052 105.415 L 143.052 105.415 L 143.052 105.415 Q 142.278 105.677 141.457 105.68 L 141.457 105.68 L 141.457 105.68 Q 140.636 105.683 139.852 105.286 Z " fill="rgb(0,0,0)"/><g><g><path d=" M 86.897 22.37 L 87.868 22.135 L 89.394 28.439 L 88.422 28.674 L 86.897 22.37 Z " fill="rgb(116,116,116)"/><path d=" M 79.167 20.079 C 78.356 17.634 80.674 14.662 84.341 13.445 C 88.008 12.228 91.644 13.225 92.455 15.67 C 93.266 18.114 90.947 21.087 87.28 22.303 C 83.614 23.52 79.978 22.523 79.167 20.079 Z " fill="rgb(0,0,255)" vector-effect="non-scaling-stroke" stroke-width="1" stroke="rgb(0,0,248)" stroke-linejoin="miter" stroke-linecap="butt" stroke-miterlimit="3" style="mix-blend-mode:hard-light;"/><defs><filter id="UtjwBDEDakiWwXuv2QOMFfIX26X6fdlA" x="-200%" y="-200%" width="400%" height="400%" filterUnits="objectBoundingBox" color-interpolation-filters="sRGB"><feOffset xmlns="http://www.w3.org/2000/svg" in="SourceGraphic" dx="3" dy="3"/><feGaussianBlur xmlns="http://www.w3.org/2000/svg" stdDeviation="2.146804531419514" result="pf_100_offsetBlur"/><feComposite xmlns="http://www.w3.org/2000/svg" in="SourceGraphic" in2="pf_100_offsetBlur" result="pf_100_inverse" operator="out"/><feFlood xmlns="http://www.w3.org/2000/svg" flood-color="#000000" flood-opacity="0.5" result="pf_100_color"/><feComposite xmlns="http://www.w3.org/2000/svg" in="pf_100_color" in2="pf_100_inverse" operator="in" result="pf_100_shadow"/><feComposite xmlns="http://www.w3.org/2000/svg" in="pf_100_shadow" in2="SourceGraphic" operator="over"/></filter></defs><g filter="url(#UtjwBDEDakiWwXuv2QOMFfIX26X6fdlA)"><path d=" M 80.232 5.853 L 83.097 4.902 C 84.402 4.469 85.812 5.177 86.245 6.482 L 89.085 15.041 C 89.518 16.346 88.81 17.757 87.506 18.19 L 84.641 19.14 C 83.336 19.573 81.925 18.865 81.492 17.561 L 78.652 9.001 C 78.219 7.696 78.927 6.286 80.232 5.853 Z " fill="rgb(0,0,255)"/></g><path d=" M 76.285 8.216 C 75.589 6.121 77.577 3.573 80.72 2.53 C 83.863 1.487 86.979 2.342 87.674 4.437 C 88.369 6.532 86.382 9.08 83.239 10.123 C 80.096 11.166 76.98 10.311 76.285 8.216 Z " fill="rgb(0,0,255)" vector-effect="non-scaling-stroke" stroke-width="1" stroke="rgb(0,0,164)" stroke-linejoin="miter" stroke-linecap="butt" stroke-miterlimit="3" style="mix-blend-mode:hard-light;"/></g><defs><filter id="BaCDTO8i3vwWbllTB2GrcepO2YUHqoVT" x="-200%" y="-200%" width="400%" height="400%" filterUnits="objectBoundingBox" color-interpolation-filters="sRGB"><feGaussianBlur xmlns="http://www.w3.org/2000/svg" stdDeviation="3.9071842471835154"/></filter></defs><g filter="url(#BaCDTO8i3vwWbllTB2GrcepO2YUHqoVT)"><path d=" M 81 27.5 C 81 25.568 84.137 24 88 24 C 91.863 24 95 25.568 95 27.5 C 95 29.432 91.863 31 88 31 C 84.137 31 81 29.432 81 27.5 Z " fill="rgb(70,70,70)"/></g></g></g></svg>