<?xml version="1.0" standalone="no"?><!-- Generator: Gravit.io --><svg xmlns="http://www.w3.org/2000/svg" xmlns:xlink="http://www.w3.org/1999/xlink" style="isolation:isolate" viewBox="0 0 180 163" width="180" height="163"><defs><clipPath id="_clipPath_s6gBi33UBQf2ZvL6BcJuar7QrJHUSj6O"><rect width="180" height="163"/></clipPath></defs><g clip-path="url(#_clipPath_s6gBi33UBQf2ZvL6BcJuar7QrJHUSj6O)"><path d=" M 0 0 L 180 0 L 180 163 L 0 163 L 0 0 Z " fill="rgb(166,219,166)"/><g><g><path d=" M 86.897 20.828 L 87.868 20.592 L 89.394 26.896 L 88.422 27.131 L 86.897 20.828 Z " fill="rgb(116,116,116)"/><path d=" M 79.167 18.536 C 78.356 16.091 80.674 13.119 84.341 11.902 C 88.008 10.686 91.644 11.682 92.455 14.127 C 93.266 16.572 90.947 19.544 87.28 20.761 C 83.614 21.977 79.978 20.98 79.167 18.536 Z " fill="rgb(255,0,0)" vector-effect="non-scaling-stroke" stroke-width="1" stroke="rgb(144,0,0)" stroke-linejoin="miter" stroke-linecap="butt" stroke-miterlimit="3" style="mix-blend-mode:hard-light;"/><defs><filter id="Wlk5Wq7IQtGxMvOdGfGexnueENR3nXHm" x="-200%" y="-200%" width="400%" height="400%" filterUnits="objectBoundingBox" color-interpolation-filters="sRGB"><feOffset xmlns="http://www.w3.org/2000/svg" in="SourceGraphic" dx="3" dy="3"/><feGaussianBlur xmlns="http://www.w3.org/2000/svg" stdDeviation="2.146804531419514" result="pf_100_offsetBlur"/><feComposite xmlns="http://www.w3.org/2000/svg" in="SourceGraphic" in2="pf_100_offsetBlur" result="pf_100_inverse" operator="out"/><feFlood xmlns="http://www.w3.org/2000/svg" flood-color="#000000" flood-opacity="0.5" result="pf_100_color"/><feComposite xmlns="http://www.w3.org/2000/svg" in="pf_100_color" in2="pf_100_inverse" operator="in" result="pf_100_shadow"/><feComposite xmlns="http://www.w3.org/2000/svg" in="pf_100_shadow" in2="SourceGraphic" operator="over"/></filter></defs><g filter="url(#Wlk5Wq7IQtGxMvOdGfGexnueENR3nXHm)"><path d=" M 80.232 4.31 L 83.097 3.359 C 84.402 2.926 85.812 3.634 86.245 4.939 L 89.085 13.499 C 89.518 14.803 88.81 16.214 87.506 16.647 L 84.641 17.598 C 83.336 18.031 81.925 17.323 81.492 16.018 L 78.652 7.458 C 78.219 6.154 78.927 4.743 80.232 4.31 Z " fill="rgb(255,0,0)"/></g><path d=" M 76.285 6.673 C 75.589 4.578 77.577 2.03 80.72 0.987 C 83.863 -0.056 86.979 0.799 87.674 2.894 C 88.369 4.99 86.382 7.537 83.239 8.58 C 80.096 9.623 76.98 8.769 76.285 6.673 Z " fill="rgb(255,0,0)" vector-effect="non-scaling-stroke" stroke-width="1" stroke="rgb(205,0,0)" stroke-linejoin="miter" stroke-linecap="butt" stroke-miterlimit="3" style="mix-blend-mode:hard-light;"/></g><defs><filter id="nLfUGaziEQaNtNCyFtdNKd9JgdZAJg7g" x="-200%" y="-200%" width="400%" height="400%" filterUnits="objectBoundingBox" color-interpolation-filters="sRGB"><feGaussianBlur xmlns="http://www.w3.org/2000/svg" stdDeviation="3.9071842471835154"/></filter></defs><g filter="url(#nLfUGaziEQaNtNCyFtdNKd9JgdZAJg7g)"><path d=" M 81 25.957 C 81 24.026 84.137 22.457 88 22.457 C 91.863 22.457 95 24.026 95 25.957 C 95 27.889 91.863 29.457 88 29.457 C 84.137 29.457 81 27.889 81 25.957 Z " fill="rgb(70,70,70)"/></g></g><path d=" M 33.125 81.905 L 39.472 74.858 L 39.472 74.858 Q 39.536 74.813 39.502 73.948 L 39.502 73.948 L 39.502 73.948 Q 39.467 73.083 39.408 71.92 L 39.408 71.92 L 39.408 71.92 Q 39.349 70.756 39.245 69.528 L 39.245 69.528 L 39.245 69.528 Q 39.141 68.3 39.062 67.494 L 39.062 67.494 L 39.062 67.494 Q 38.997 67.042 38.896 66.204 L 38.896 66.204 L 38.896 66.204 Q 38.794 65.366 38.648 64.34 L 38.648 64.34 L 38.648 64.34 Q 38.502 63.313 38.361 62.197 L 38.361 62.197 L 38.361 62.197 Q 38.219 61.08 38.061 60.091 L 38.061 60.091 L 38.061 60.091 Q 37.902 59.101 37.775 58.338 L 37.775 58.338 L 37.775 58.338 Q 37.649 57.575 37.599 57.227 L 37.599 57.227 L 37.599 57.227 Q 37.58 57.088 37.443 56.752 L 37.443 56.752 L 37.443 56.752 Q 37.306 56.416 37.165 56.046 L 37.165 56.046 L 37.165 56.046 Q 37.023 55.676 36.872 55.36 L 36.872 55.36 L 36.872 55.36 Q 36.72 55.044 36.631 54.915 L 36.631 54.915 L 36.631 54.915 Q 35.398 54.984 34.18 55.406 L 34.18 55.406 L 34.18 55.406 Q 32.961 55.828 31.788 56.315 L 31.788 56.315 L 31.788 56.315 Q 30.614 56.802 29.443 57.181 L 29.443 57.181 L 29.443 57.181 Q 28.272 57.561 27.163 57.506 L 27.163 57.506 L 27.163 57.506 Q 26.801 56.954 27.532 56.229 L 27.532 56.229 L 27.532 56.229 Q 28.263 55.503 29.762 54.81 L 29.762 54.81 L 29.762 54.81 Q 31.262 54.117 33.308 53.524 L 33.308 53.524 L 33.308 53.524 Q 35.354 52.93 37.586 52.648 L 37.586 52.648 L 37.586 52.648 Q 39.819 52.365 42.039 52.493 L 42.039 52.493 L 42.039 52.493 Q 44.259 52.621 46.1 53.335 L 46.1 53.335 L 46.1 53.335 Q 47.942 54.049 49.204 55.432 L 49.204 55.432 L 49.204 55.432 Q 50.467 56.815 50.789 59.077 L 50.789 59.077 L 50.789 59.077 Q 50.903 59.877 50.753 60.822 L 50.753 60.822 L 50.753 60.822 Q 50.604 61.767 50.298 62.733 L 50.298 62.733 L 50.298 62.733 Q 49.992 63.7 49.569 64.595 L 49.569 64.595 L 49.569 64.595 Q 49.146 65.49 48.703 66.121 L 48.703 66.121 L 48.703 66.121 Q 48.499 66.434 48.024 67.088 L 48.024 67.088 L 48.024 67.088 Q 47.549 67.742 46.939 68.574 L 46.939 68.574 L 46.939 68.574 Q 46.33 69.407 45.641 70.304 L 45.641 70.304 L 45.641 70.304 Q 44.952 71.201 44.34 72.016 L 44.34 72.016 L 44.34 72.016 Q 43.728 72.831 43.233 73.47 L 43.233 73.47 L 43.233 73.47 Q 42.738 74.108 42.5 74.427 L 42.5 74.427 L 42.5 74.427 Q 42.514 75.277 42.439 75.998 L 42.439 75.998 L 42.439 75.998 Q 42.364 76.719 42.071 77.151 L 42.071 77.151 L 42.071 77.151 Q 41.777 77.583 41.235 77.643 L 41.235 77.643 L 41.235 77.643 Q 40.694 77.702 39.814 77.259 L 39.814 77.259 L 39.814 77.259 Q 39.122 77.891 38.406 78.969 L 38.406 78.969 L 38.406 78.969 Q 37.69 80.048 36.911 81.064 L 36.911 81.064 L 36.911 81.064 Q 36.133 82.081 35.232 82.742 L 35.232 82.742 L 35.232 82.742 Q 34.332 83.402 33.298 83.124 L 33.298 83.124 L 33.125 81.905 Z  M 39.659 54.483 L 42.153 71.99 L 42.153 71.99 Q 44.216 70.773 45.654 68.775 L 45.654 68.775 L 45.654 68.775 Q 47.092 66.777 47.786 64.547 L 47.786 64.547 L 47.786 64.547 Q 48.481 62.318 48.385 60.147 L 48.385 60.147 L 48.385 60.147 Q 48.289 57.977 47.325 56.445 L 47.325 56.445 L 47.325 56.445 Q 46.361 54.914 44.477 54.276 L 44.477 54.276 L 44.477 54.276 Q 42.593 53.639 39.659 54.483 L 39.659 54.483 Z  M 61.885 73.902 L 61.885 73.902 L 61.885 73.902 Q 60.26 72.962 59.186 71.535 L 59.186 71.535 L 59.186 71.535 Q 58.113 70.107 57.408 68.397 L 57.408 68.397 L 57.408 68.397 Q 57.224 68.601 56.836 68.869 L 56.836 68.869 L 56.836 68.869 Q 56.448 69.137 56.033 69.338 L 56.033 69.338 L 56.033 69.338 Q 55.617 69.54 55.207 69.651 L 55.207 69.651 L 55.207 69.651 Q 54.797 69.763 54.586 69.651 L 54.586 69.651 L 54.586 69.651 Q 54.374 69.539 54.414 69.196 L 54.414 69.196 L 54.414 69.196 Q 54.454 68.853 54.917 68.112 L 54.917 68.112 L 54.917 68.112 Q 54.972 67.998 55.287 67.598 L 55.287 67.598 L 55.287 67.598 Q 55.603 67.198 55.964 66.738 L 55.964 66.738 L 55.964 66.738 Q 56.325 66.278 56.621 65.863 L 56.621 65.863 L 56.621 65.863 Q 56.917 65.448 56.971 65.334 L 56.971 65.334 L 56.971 65.334 Q 57.23 64.409 57.169 63.353 L 57.169 63.353 L 57.169 63.353 Q 57.107 62.296 56.963 61.163 L 56.963 61.163 L 56.963 61.163 Q 56.819 60.029 56.765 58.9 L 56.765 58.9 L 56.765 58.9 Q 56.711 57.772 56.99 56.738 L 56.99 56.738 L 56.99 56.738 Q 57.154 56.146 57.716 55.232 L 57.716 55.232 L 57.716 55.232 Q 58.278 54.317 59.022 53.43 L 59.022 53.43 L 59.022 53.43 Q 59.766 52.543 60.567 51.807 L 60.567 51.807 L 60.567 51.807 Q 61.367 51.072 61.991 50.841 L 61.991 50.841 L 61.991 50.841 Q 62.615 50.61 62.976 51.02 L 62.976 51.02 L 62.976 51.02 Q 63.336 51.43 63.206 52.763 L 63.206 52.763 L 63.206 52.763 Q 63.042 54.349 62.464 55.905 L 62.464 55.905 L 62.464 55.905 Q 61.887 57.461 61.252 58.989 L 61.252 58.989 L 61.252 58.989 Q 60.618 60.518 60.068 62.017 L 60.068 62.017 L 60.068 62.017 Q 59.518 63.515 59.408 64.987 L 59.408 64.987 L 59.408 64.987 Q 59.343 65.777 59.499 66.874 L 59.499 66.874 L 59.499 66.874 Q 59.655 67.97 60.052 69.014 L 60.052 69.014 L 60.052 69.014 Q 60.45 70.059 61.133 70.867 L 61.133 70.867 L 61.133 70.867 Q 61.816 71.675 62.84 71.884 L 62.84 71.884 L 62.84 71.884 Q 64.014 72.143 65.098 71.776 L 65.098 71.776 L 65.098 71.776 Q 66.182 71.408 67.159 70.665 L 67.159 70.665 L 67.159 70.665 Q 68.136 69.923 68.984 68.896 L 68.984 68.896 L 68.984 68.896 Q 69.833 67.87 70.534 66.811 L 70.534 66.811 L 70.534 66.811 Q 71.235 65.752 71.77 64.771 L 71.77 64.771 L 71.77 64.771 Q 72.305 63.789 72.668 63.098 L 72.668 63.098 L 73.349 63.64 L 73.349 63.64 Q 73.623 63.814 73.222 64.866 L 73.222 64.866 L 73.222 64.866 Q 72.821 65.917 71.971 67.299 L 71.971 67.299 L 71.971 67.299 Q 71.12 68.681 69.911 70.167 L 69.911 70.167 L 69.911 70.167 Q 68.702 71.653 67.347 72.734 L 67.347 72.734 L 67.347 72.734 Q 65.992 73.815 64.577 74.229 L 64.577 74.229 L 64.577 74.229 Q 63.163 74.644 61.885 73.902 Z  M 58.545 58.931 L 58.545 58.931 L 58.545 58.931 Q 58.535 59.11 58.58 59.547 L 58.58 59.547 L 58.58 59.547 Q 58.624 59.985 58.694 60.472 L 58.694 60.472 L 58.694 60.472 Q 58.763 60.959 58.84 61.375 L 58.84 61.375 L 58.84 61.375 Q 58.917 61.79 58.976 61.959 L 58.976 61.959 L 58.976 61.959 Q 59.817 59.886 60.485 57.589 L 60.485 57.589 L 60.485 57.589 Q 61.152 55.293 61.396 53.021 L 61.396 53.021 L 61.396 53.021 Q 60.636 53.413 60.073 54.079 L 60.073 54.079 L 60.073 54.079 Q 59.511 54.745 59.165 55.558 L 59.165 55.558 L 59.165 55.558 Q 58.82 56.371 58.678 57.243 L 58.678 57.243 L 58.678 57.243 Q 58.535 58.116 58.545 58.931 Z  M 75.598 71.949 L 75.598 71.949 L 75.598 71.949 Q 74.674 71.442 74.112 70.368 L 74.112 70.368 L 74.112 70.368 Q 73.551 69.293 73.392 68.304 L 73.392 68.304 L 73.392 68.304 Q 73.233 67.314 73.435 66.735 L 73.435 66.735 L 73.435 66.735 Q 73.637 66.156 74.198 66.609 L 74.198 66.609 L 74.198 66.609 Q 74.396 68.498 75.301 69.364 L 75.301 69.364 L 75.301 69.364 Q 76.205 70.229 77.337 70.317 L 77.337 70.317 L 77.337 70.317 Q 78.468 70.404 79.649 69.845 L 79.649 69.845 L 79.649 69.845 Q 80.83 69.286 81.601 68.342 L 81.601 68.342 L 81.601 68.342 Q 82.372 67.398 82.534 66.167 L 82.534 66.167 L 82.534 66.167 Q 82.696 64.937 81.806 63.679 L 81.806 63.679 L 81.806 63.679 Q 80.758 62.798 79.49 62.002 L 79.49 62.002 L 79.49 62.002 Q 78.223 61.206 76.94 60.43 L 76.94 60.43 L 76.94 60.43 Q 75.658 59.654 74.438 58.816 L 74.438 58.816 L 74.438 58.816 Q 73.217 57.977 72.223 56.983 L 72.223 56.983 L 72.223 56.983 Q 72.144 56.923 72.112 56.697 L 72.112 56.697 L 72.112 56.697 Q 72.079 56.47 72.139 56.391 L 72.139 56.391 L 72.139 56.391 Q 72.338 56.043 72.696 55.317 L 72.696 55.317 L 72.696 55.317 Q 73.055 54.591 73.527 53.672 L 73.527 53.672 L 73.527 53.672 Q 74 52.752 74.53 51.736 L 74.53 51.736 L 74.53 51.736 Q 75.06 50.719 75.533 49.8 L 75.533 49.8 L 75.533 49.8 Q 76.005 48.88 76.381 48.152 L 76.381 48.152 L 76.381 48.152 Q 76.757 47.424 76.956 47.076 L 76.956 47.076 L 76.956 47.076 Q 77.354 46.38 77.844 46.203 L 77.844 46.203 L 77.844 46.203 Q 78.333 46.027 79.308 46.137 L 79.308 46.137 L 79.308 46.137 Q 79.293 46.281 79.116 46.786 L 79.116 46.786 L 79.116 46.786 Q 78.939 47.29 78.855 47.444 L 78.855 47.444 L 78.855 47.444 Q 78.636 47.902 78.016 49.037 L 78.016 49.037 L 78.016 49.037 Q 77.397 50.173 76.693 51.463 L 76.693 51.463 L 76.693 51.463 Q 75.989 52.753 75.369 53.889 L 75.369 53.889 L 75.369 53.889 Q 74.75 55.025 74.491 55.452 L 74.491 55.452 L 74.491 55.452 Q 74.272 55.909 74.839 56.397 L 74.839 56.397 L 74.839 56.397 Q 75.405 56.884 76.41 57.452 L 76.41 57.452 L 76.41 57.452 Q 77.414 58.019 78.684 58.708 L 78.684 58.708 L 78.684 58.708 Q 79.954 59.397 81.119 60.225 L 81.119 60.225 L 81.119 60.225 Q 82.285 61.054 83.157 62.066 L 83.157 62.066 L 83.157 62.066 Q 84.029 63.078 84.262 64.341 L 84.262 64.341 L 84.262 64.341 Q 84.495 65.604 83.911 67.107 L 83.911 67.107 L 83.911 67.107 Q 83.326 68.611 81.53 70.465 L 81.53 70.465 L 81.53 70.465 Q 80.973 71.041 80.274 71.496 L 80.274 71.496 L 80.274 71.496 Q 79.576 71.951 78.793 72.187 L 78.793 72.187 L 78.793 72.187 Q 78.009 72.422 77.189 72.397 L 77.189 72.397 L 77.189 72.397 Q 76.369 72.372 75.598 71.949 Z  M 86.91 69.095 L 86.91 69.095 L 86.91 69.095 Q 86.821 68.966 86.659 68.58 L 86.659 68.58 L 86.659 68.58 Q 86.498 68.195 86.324 67.722 L 86.324 67.722 L 86.324 67.722 Q 86.15 67.25 86.016 66.808 L 86.016 66.808 L 86.016 66.808 Q 85.882 66.365 85.853 66.156 L 85.853 66.156 L 83.443 49.241 L 83.443 49.241 Q 83.393 48.893 83.687 48.709 L 83.687 48.709 L 83.687 48.709 Q 83.98 48.525 84.378 48.451 L 84.378 48.451 L 84.378 48.451 Q 84.776 48.376 85.111 48.364 L 85.111 48.364 L 85.111 48.364 Q 85.447 48.352 85.482 48.347 L 85.482 48.347 L 88.149 67.072 L 88.149 67.072 Q 88.233 67.664 88.671 67.992 L 88.671 67.992 L 88.671 67.992 Q 89.108 68.32 89.662 68.472 L 89.662 68.472 L 89.662 68.472 Q 90.217 68.624 90.781 68.597 L 90.781 68.597 L 90.781 68.597 Q 91.345 68.57 91.713 68.411 L 91.713 68.411 L 91.713 68.411 Q 92.305 69.072 91.862 69.579 L 91.862 69.579 L 91.862 69.579 Q 91.419 70.086 90.504 70.27 L 90.504 70.27 L 90.504 70.27 Q 89.59 70.453 88.541 70.194 L 88.541 70.194 L 88.541 70.194 Q 87.492 69.935 86.91 69.095 Z  M 81.989 43.269 L 81.989 43.269 L 81.989 43.269 Q 81.845 42.26 82.603 41.85 L 82.603 41.85 L 82.603 41.85 Q 83.362 41.44 84.252 41.704 L 84.252 41.704 L 84.514 43.549 L 84.514 43.549 Q 84.415 43.598 84.156 43.653 L 84.156 43.653 L 84.156 43.653 Q 83.898 43.707 83.602 43.75 L 83.602 43.75 L 83.602 43.75 Q 83.306 43.792 83.043 43.812 L 83.043 43.812 L 83.043 43.812 Q 82.779 43.831 82.67 43.811 L 82.67 43.811 L 82.67 43.811 Q 82.525 43.796 82.265 43.585 L 82.265 43.585 L 82.265 43.585 Q 82.004 43.374 81.989 43.269 Z  M 100.986 79.412 L 100.986 79.412 L 100.986 79.412 Q 99.754 78.487 99.476 76.911 L 99.476 76.911 L 99.476 76.911 Q 99.198 75.335 99.53 73.423 L 99.53 73.423 L 99.53 73.423 Q 99.861 71.512 100.632 69.449 L 100.632 69.449 L 100.632 69.449 Q 101.404 67.386 102.262 65.434 L 102.262 65.434 L 102.262 65.434 Q 103.121 63.483 103.862 61.833 L 103.862 61.833 L 103.862 61.833 Q 104.604 60.183 104.917 59.144 L 104.917 59.144 L 104.917 59.144 Q 105.082 58.552 104.814 57.543 L 104.814 57.543 L 104.814 57.543 Q 104.546 56.533 104.133 55.509 L 104.133 55.509 L 104.133 55.509 Q 103.721 54.485 103.301 53.657 L 103.301 53.657 L 103.301 53.657 Q 102.882 52.829 102.747 52.635 L 102.747 52.635 L 102.245 53.345 L 97.233 65.778 L 97.233 65.778 Q 97.174 65.857 96.972 66.064 L 96.972 66.064 L 96.972 66.064 Q 96.771 66.27 96.517 66.484 L 96.517 66.484 L 96.517 66.484 Q 96.263 66.697 95.992 66.914 L 95.992 66.914 L 95.992 66.914 Q 95.721 67.13 95.592 67.219 L 95.592 67.219 L 95.592 67.219 Q 94.543 67.83 93.924 67.35 L 93.924 67.35 L 93.924 67.35 Q 93.305 66.87 93.112 65.637 L 93.112 65.637 L 93.112 65.637 Q 92.918 64.404 93.068 62.589 L 93.068 62.589 L 93.068 62.589 Q 93.218 60.775 93.689 58.719 L 93.689 58.719 L 93.689 58.719 Q 94.159 56.663 94.886 54.536 L 94.886 54.536 L 94.886 54.536 Q 95.613 52.408 96.573 50.549 L 96.573 50.549 L 96.573 50.549 Q 97.534 48.69 98.665 47.286 L 98.665 47.286 L 98.665 47.286 Q 99.797 45.882 101.06 45.276 L 101.06 45.276 L 101.06 45.276 Q 101.751 45.39 101.815 45.718 L 101.815 45.718 L 101.815 45.718 Q 101.88 46.047 101.572 46.499 L 101.572 46.499 L 101.572 46.499 Q 101.263 46.951 100.718 47.49 L 100.718 47.49 L 100.718 47.49 Q 100.174 48.03 99.592 48.556 L 99.592 48.556 L 99.592 48.556 Q 99.01 49.083 98.525 49.543 L 98.525 49.543 L 98.525 49.543 Q 98.04 50.003 97.906 50.306 L 97.906 50.306 L 97.906 50.306 Q 97.333 52.27 96.661 54.034 L 96.661 54.034 L 96.661 54.034 Q 95.989 55.799 95.509 57.536 L 95.509 57.536 L 95.509 57.536 Q 95.028 59.274 94.891 61.051 L 94.891 61.051 L 94.891 61.051 Q 94.753 62.829 95.25 64.818 L 95.25 64.818 L 95.752 64.107 L 95.752 64.107 Q 96.822 62.392 97.583 60.259 L 97.583 60.259 L 97.583 60.259 Q 98.345 58.127 98.93 56.002 L 98.93 56.002 L 98.93 56.002 Q 99.515 53.876 99.986 51.945 L 99.986 51.945 L 99.986 51.945 Q 100.456 50.014 100.909 48.706 L 100.909 48.706 L 100.909 48.706 Q 101.362 47.399 101.895 46.897 L 101.895 46.897 L 101.895 46.897 Q 102.427 46.395 103.12 47.148 L 103.12 47.148 L 103.12 47.148 Q 103.813 47.902 104.767 50.11 L 104.767 50.11 L 104.767 50.11 Q 105.721 52.318 107.007 56.36 L 107.007 56.36 L 107.007 56.36 Q 107.161 56.196 107.614 55.759 L 107.614 55.759 L 107.614 55.759 Q 108.066 55.322 108.586 54.857 L 108.586 54.857 L 108.586 54.857 Q 109.106 54.392 109.581 53.987 L 109.581 53.987 L 109.581 53.987 Q 110.056 53.582 110.25 53.448 L 110.25 53.448 L 110.25 53.448 Q 110.414 53.354 110.866 53.289 L 110.866 53.289 L 110.866 53.289 Q 111.319 53.225 111.468 53.275 L 111.468 53.275 L 111.468 53.275 Q 111.418 53.921 110.89 54.831 L 110.89 54.831 L 110.89 54.831 Q 110.363 55.74 109.719 56.578 L 109.719 56.578 L 109.719 56.578 Q 109.075 57.415 108.525 58.044 L 108.525 58.044 L 108.525 58.044 Q 107.975 58.673 107.945 58.712 L 107.945 58.712 L 107.945 58.712 Q 107.995 59.06 108.077 59.759 L 108.077 59.759 L 108.077 59.759 Q 108.159 60.458 108.235 61.37 L 108.235 61.37 L 108.235 61.37 Q 108.312 62.282 108.381 63.267 L 108.381 63.267 L 108.381 63.267 Q 108.45 64.251 108.51 65.166 L 108.51 65.166 L 108.51 65.166 Q 108.569 66.081 108.598 66.787 L 108.598 66.787 L 108.643 67.846 L 108.643 67.846 Q 108.638 68.308 108.374 69.571 L 108.374 69.571 L 108.374 69.571 Q 108.11 70.834 107.661 72.425 L 107.661 72.425 L 107.661 72.425 Q 107.213 74.015 106.556 75.636 L 106.556 75.636 L 106.556 75.636 Q 105.899 77.257 105.066 78.387 L 105.066 78.387 L 105.066 78.387 Q 104.233 79.518 103.206 79.913 L 103.206 79.913 L 103.206 79.913 Q 102.179 80.308 100.986 79.412 Z  M 101.973 73.128 L 101.973 73.128 L 101.973 73.128 Q 101.978 73.412 102.057 74.093 L 102.057 74.093 L 102.057 74.093 Q 102.137 74.774 102.246 75.54 L 102.246 75.54 L 102.246 75.54 Q 102.355 76.305 102.471 76.999 L 102.471 76.999 L 102.471 76.999 Q 102.588 77.693 102.658 77.931 L 102.658 77.931 L 102.658 77.931 Q 104.393 76.903 105.353 74.92 L 105.353 74.92 L 105.353 74.92 Q 106.314 72.936 106.626 70.637 L 106.626 70.637 L 106.626 70.637 Q 106.937 68.337 106.732 66.023 L 106.732 66.023 L 106.732 66.023 Q 106.526 63.708 105.935 62.053 L 105.935 62.053 L 105.935 62.053 Q 105.045 63.032 104.316 64.396 L 104.316 64.396 L 104.316 64.396 Q 103.587 65.761 103.057 67.274 L 103.057 67.274 L 103.057 67.274 Q 102.527 68.788 102.248 70.319 L 102.248 70.319 L 102.248 70.319 Q 101.969 71.851 101.973 73.128 Z  M 114.058 66.471 L 114.058 66.471 L 114.058 66.471 Q 114.028 66.014 113.869 64.9 L 113.869 64.9 L 113.195 60.166 L 113.195 60.166 Q 113.036 59.053 112.937 58.605 L 112.937 58.605 L 112.937 58.605 Q 112.873 58.401 112.686 57.717 L 112.686 57.717 L 112.686 57.717 Q 112.5 57.034 112.245 56.111 L 112.245 56.111 L 112.245 56.111 Q 111.989 55.189 111.701 54.165 L 111.701 54.165 L 111.701 54.165 Q 111.413 53.14 111.14 52.22 L 111.14 52.22 L 111.14 52.22 Q 110.867 51.301 110.681 50.617 L 110.681 50.617 L 110.681 50.617 Q 110.495 49.933 110.425 49.694 L 110.425 49.694 L 110.425 49.694 Q 110.286 49.217 110.229 48.693 L 110.229 48.693 L 110.229 48.693 Q 110.172 48.168 110.292 47.76 L 110.292 47.76 L 110.292 47.76 Q 110.411 47.353 110.772 47.142 L 110.772 47.142 L 110.772 47.142 Q 111.132 46.93 111.898 47.07 L 111.898 47.07 L 111.898 47.07 Q 112.037 47.796 112.265 48.775 L 112.265 48.775 L 112.265 48.775 Q 112.493 49.755 112.786 50.814 L 112.786 50.814 L 112.786 50.814 Q 113.079 51.873 113.437 52.888 L 113.437 52.888 L 113.437 52.888 Q 113.794 53.902 114.231 54.727 L 114.231 54.727 L 114.231 54.727 Q 114.501 53.375 114.794 52.321 L 114.794 52.321 L 114.794 52.321 Q 115.088 51.267 115.526 50.353 L 115.526 50.353 L 115.526 50.353 Q 115.964 49.438 116.553 48.591 L 116.553 48.591 L 116.553 48.591 Q 117.143 47.743 118.003 46.804 L 118.003 46.804 L 118.003 46.804 Q 119.078 45.621 119.923 45.696 L 119.923 45.696 L 119.923 45.696 Q 120.768 45.771 121.449 46.686 L 121.449 46.686 L 121.449 46.686 Q 122.13 47.601 122.701 49.118 L 122.701 49.118 L 122.701 49.118 Q 123.272 50.634 123.801 52.352 L 123.801 52.352 L 123.801 52.352 Q 124.33 54.07 124.866 55.716 L 124.866 55.716 L 124.866 55.716 Q 125.402 57.362 126.031 58.533 L 126.031 58.533 L 126.031 58.533 Q 126.659 59.704 127.42 60.182 L 127.42 60.182 L 127.42 60.182 Q 128.18 60.66 129.15 59.989 L 129.15 59.989 L 129.15 59.989 Q 129.597 60.884 129.433 61.351 L 129.433 61.351 L 129.433 61.351 Q 129.268 61.818 128.736 61.948 L 128.736 61.948 L 128.736 61.948 Q 128.204 62.077 127.426 61.85 L 127.426 61.85 L 127.426 61.85 Q 126.648 61.624 125.853 61.151 L 125.853 61.151 L 125.853 61.151 Q 125.058 60.678 124.387 59.957 L 124.387 59.957 L 124.387 59.957 Q 123.716 59.236 123.378 58.361 L 123.378 58.361 L 123.378 58.361 Q 123.15 57.754 122.842 56.342 L 122.842 56.342 L 122.842 56.342 Q 122.534 54.93 122.093 53.324 L 122.093 53.324 L 122.093 53.324 Q 121.651 51.718 120.99 50.196 L 120.99 50.196 L 120.99 50.196 Q 120.329 48.674 119.395 47.849 L 119.395 47.849 L 117.296 50.562 L 117.296 50.562 Q 117.211 50.716 116.97 51.887 L 116.97 51.887 L 116.97 51.887 Q 116.728 53.058 116.446 54.572 L 116.446 54.572 L 116.446 54.572 Q 116.165 56.086 115.923 57.629 L 115.923 57.629 L 115.923 57.629 Q 115.681 59.173 115.602 60.108 L 115.602 60.108 L 115.602 60.108 Q 115.577 60.431 115.594 61.298 L 115.594 61.298 L 115.594 61.298 Q 115.611 62.166 115.645 63.155 L 115.645 63.155 L 115.645 63.155 Q 115.679 64.145 115.749 65.005 L 115.749 65.005 L 115.749 65.005 Q 115.818 65.865 115.868 66.213 L 115.868 66.213 L 115.868 66.213 Q 115.644 66.884 115.052 66.969 L 115.052 66.969 L 115.052 66.969 Q 114.46 67.053 114.058 66.471 Z " fill="rgb(0,0,0)"/><path d=" M 55.565 130.931 L 55.565 130.931 L 55.565 130.931 Q 53.441 130.535 52.146 129.452 L 52.146 129.452 L 52.146 129.452 Q 50.851 128.369 50.19 127.05 L 50.19 127.05 L 50.19 127.05 Q 49.529 125.731 49.402 124.393 L 49.402 124.393 L 49.402 124.393 Q 49.275 123.056 49.49 122.17 L 49.49 122.17 L 49.49 122.17 Q 49.706 121.283 50.188 121.096 L 50.188 121.096 L 50.188 121.096 Q 50.67 120.909 51.217 121.839 L 51.217 121.839 L 51.217 121.839 Q 51.276 124.086 51.979 125.612 L 51.979 125.612 L 51.979 125.612 Q 52.682 127.138 53.756 128.015 L 53.756 128.015 L 53.756 128.015 Q 54.83 128.891 56.172 129.14 L 56.172 129.14 L 56.172 129.14 Q 57.513 129.389 58.826 129.142 L 58.826 129.142 L 58.826 129.142 Q 60.139 128.894 61.282 128.161 L 61.282 128.161 L 61.282 128.161 Q 62.425 127.428 63.137 126.334 L 63.137 126.334 L 63.137 126.334 Q 63.848 125.239 63.983 123.777 L 63.983 123.777 L 63.983 123.777 Q 64.118 122.315 63.418 120.628 L 63.418 120.628 L 63.418 120.628 Q 63.085 119.87 62.111 118.865 L 62.111 118.865 L 62.111 118.865 Q 61.137 117.861 59.925 116.743 L 59.925 116.743 L 59.925 116.743 Q 58.712 115.625 57.438 114.466 L 57.438 114.466 L 57.438 114.466 Q 56.163 113.307 55.237 112.185 L 55.237 112.185 L 55.237 112.185 Q 54.311 111.063 53.909 110.05 L 53.909 110.05 L 53.909 110.05 Q 53.507 109.037 54.057 108.209 L 54.057 108.209 L 54.057 108.209 Q 54.518 107.649 55.418 106.517 L 55.418 106.517 L 55.418 106.517 Q 56.319 105.384 57.413 104.231 L 57.413 104.231 L 57.413 104.231 Q 58.507 103.077 59.698 102.137 L 59.698 102.137 L 59.698 102.137 Q 60.889 101.197 61.957 100.981 L 61.957 100.981 L 61.957 100.981 Q 62.75 100.82 62.85 101.051 L 62.85 101.051 L 62.85 101.051 Q 62.95 101.282 62.617 101.762 L 62.617 101.762 L 62.617 101.762 Q 62.284 102.242 61.62 102.95 L 61.62 102.95 L 61.62 102.95 Q 60.956 103.658 60.189 104.476 L 60.189 104.476 L 60.189 104.476 Q 59.422 105.295 58.651 106.186 L 58.651 106.186 L 58.651 106.186 Q 57.881 107.077 57.386 107.912 L 57.386 107.912 L 57.386 107.912 Q 56.892 108.748 56.735 109.479 L 56.735 109.479 L 56.735 109.479 Q 56.577 110.21 57.04 110.726 L 57.04 110.726 L 57.04 110.726 Q 58.636 112.233 60.256 113.77 L 60.256 113.77 L 60.256 113.77 Q 61.876 115.308 63.158 116.86 L 63.158 116.86 L 63.158 116.86 Q 64.441 118.412 65.244 119.989 L 65.244 119.989 L 65.244 119.989 Q 66.047 121.567 66.012 123.17 L 66.012 123.17 L 66.012 123.17 Q 65.977 124.773 64.929 126.419 L 64.929 126.419 L 64.929 126.419 Q 63.881 128.066 61.527 129.726 L 61.527 129.726 L 61.527 129.726 Q 60.108 130.694 58.671 130.948 L 58.671 130.948 L 58.671 130.948 Q 57.234 131.203 55.565 130.931 Z  M 72.012 125.705 L 72.012 125.705 L 72.012 125.705 Q 71.935 125.147 71.947 124.05 L 71.947 124.05 L 71.947 124.05 Q 71.958 122.954 71.907 121.727 L 71.907 121.727 L 71.907 121.727 Q 71.857 120.5 71.672 119.318 L 71.672 119.318 L 71.672 119.318 Q 71.486 118.136 71.047 117.382 L 71.047 117.382 L 71.047 117.382 Q 70.608 116.628 69.846 116.495 L 69.846 116.495 L 69.846 116.495 Q 69.083 116.362 67.858 117.219 L 67.858 117.219 L 67.858 117.219 Q 67.058 117.166 66.878 116.808 L 66.878 116.808 L 66.878 116.808 Q 66.698 116.45 66.911 115.904 L 66.911 115.904 L 66.911 115.904 Q 67.123 115.359 67.577 114.676 L 67.577 114.676 L 67.577 114.676 Q 68.031 113.992 68.494 113.271 L 68.494 113.271 L 68.494 113.271 Q 68.958 112.549 69.305 111.869 L 69.305 111.869 L 69.305 111.869 Q 69.652 111.19 69.609 110.624 L 69.609 110.624 L 69.609 110.624 Q 69.519 110.356 69.245 109.443 L 69.245 109.443 L 69.245 109.443 Q 68.971 108.53 68.586 107.334 L 68.586 107.334 L 68.586 107.334 Q 68.2 106.139 67.801 104.785 L 67.801 104.785 L 67.801 104.785 Q 67.402 103.431 67.013 102.218 L 67.013 102.218 L 67.013 102.218 Q 66.625 101.005 66.354 100.11 L 66.354 100.11 L 66.354 100.11 Q 66.083 99.214 65.986 98.911 L 65.986 98.911 L 65.986 98.911 Q 65.861 98.47 65.833 98.063 L 65.833 98.063 L 65.833 98.063 Q 65.804 97.656 65.955 97.339 L 65.955 97.339 L 65.955 97.339 Q 66.106 97.021 66.451 96.862 L 66.451 96.862 L 66.451 96.862 Q 66.795 96.703 67.423 96.791 L 67.423 96.791 L 67.423 96.791 Q 67.86 98.066 68.366 99.685 L 68.366 99.685 L 68.366 99.685 Q 68.873 101.304 69.435 103.02 L 69.435 103.02 L 69.435 103.02 Q 69.997 104.735 70.611 106.441 L 70.611 106.441 L 70.611 106.441 Q 71.224 108.146 71.876 109.592 L 71.876 109.592 L 71.876 109.592 Q 72.164 109.247 72.511 108.478 L 72.511 108.478 L 72.511 108.478 Q 72.858 107.708 73.245 106.787 L 73.245 106.787 L 73.245 106.787 Q 73.633 105.866 74.072 104.934 L 74.072 104.934 L 74.072 104.934 Q 74.512 104.002 74.962 103.391 L 74.962 103.391 L 74.962 103.391 Q 75.412 102.78 75.877 102.596 L 75.877 102.596 L 75.877 102.596 Q 76.342 102.413 76.778 102.97 L 76.778 102.97 L 76.778 102.97 Q 76.826 103.032 76.872 103.256 L 76.872 103.256 L 76.872 103.256 Q 76.917 103.48 76.903 103.59 L 76.903 103.59 L 76.903 103.59 Q 76.734 105.059 75.989 106.43 L 75.989 106.43 L 75.989 106.43 Q 75.243 107.8 74.45 109.108 L 74.45 109.108 L 74.45 109.108 Q 73.656 110.416 73.131 111.724 L 73.131 111.724 L 73.131 111.724 Q 72.607 113.031 72.837 114.348 L 72.837 114.348 L 72.837 114.348 Q 73.203 114.561 73.914 115.063 L 73.914 115.063 L 77.518 117.455 L 77.518 117.455 Q 78.547 118.107 79.461 118.729 L 79.461 118.729 L 79.461 118.729 Q 80.376 119.352 81.087 119.853 L 81.087 119.853 L 82.157 120.534 L 82.157 120.534 Q 82.406 120.699 82.948 121.073 L 82.948 121.073 L 82.948 121.073 Q 83.49 121.448 83.946 121.93 L 83.946 121.93 L 83.946 121.93 Q 84.402 122.411 84.541 122.921 L 84.541 122.921 L 84.541 122.921 Q 84.68 123.431 84.095 123.908 L 84.095 123.908 L 84.095 123.908 Q 84.033 123.957 83.809 124.002 L 83.809 124.002 L 83.809 124.002 Q 83.585 124.047 83.509 124.027 L 83.509 124.027 L 83.509 124.027 Q 81.306 122.176 78.73 120.348 L 78.73 120.348 L 78.73 120.348 Q 76.155 118.519 73.443 117.346 L 73.443 117.346 L 73.443 117.346 Q 73.471 117.663 73.535 118.331 L 73.535 118.331 L 73.535 118.331 Q 73.598 119 73.645 119.852 L 73.645 119.852 L 73.645 119.852 Q 73.691 120.703 73.755 121.64 L 73.755 121.64 L 73.755 121.64 Q 73.819 122.578 73.848 123.433 L 73.848 123.433 L 73.848 123.433 Q 73.878 124.288 73.907 124.963 L 73.907 124.963 L 73.907 124.963 Q 73.936 125.639 73.929 125.963 L 73.929 125.963 L 73.929 125.963 Q 73.93 126.142 73.848 126.536 L 73.848 126.536 L 73.848 126.536 Q 73.766 126.929 73.594 127.322 L 73.594 127.322 L 73.594 127.322 Q 73.423 127.715 73.151 127.968 L 73.151 127.968 L 73.151 127.968 Q 72.879 128.22 72.5 128.117 L 72.5 128.117 L 72.5 128.117 Q 72.472 127.979 72.389 127.655 L 72.389 127.655 L 72.389 127.655 Q 72.305 127.332 72.225 126.935 L 72.225 126.935 L 72.225 126.935 Q 72.145 126.539 72.093 126.191 L 72.093 126.191 L 72.093 126.191 Q 72.04 125.843 72.012 125.705 Z  M 86.817 123.358 L 86.817 123.358 L 86.817 123.358 Q 86.72 123.234 86.537 122.859 L 86.537 122.859 L 86.537 122.859 Q 86.353 122.483 86.153 122.022 L 86.153 122.022 L 86.153 122.022 Q 85.952 121.56 85.792 121.126 L 85.792 121.126 L 85.792 121.126 Q 85.633 120.692 85.591 120.485 L 85.591 120.485 L 82.206 103.738 L 82.206 103.738 Q 82.136 103.394 82.418 103.193 L 82.418 103.193 L 82.418 103.193 Q 82.7 102.992 83.093 102.895 L 83.093 102.895 L 83.093 102.895 Q 83.486 102.798 83.82 102.766 L 83.82 102.766 L 83.82 102.766 Q 84.155 102.734 84.189 102.727 L 84.189 102.727 L 87.937 121.266 L 87.937 121.266 Q 88.055 121.852 88.511 122.155 L 88.511 122.155 L 88.511 122.155 Q 88.967 122.457 89.529 122.577 L 89.529 122.577 L 89.529 122.577 Q 90.091 122.696 90.653 122.636 L 90.653 122.636 L 90.653 122.636 Q 91.214 122.577 91.573 122.397 L 91.573 122.397 L 91.573 122.397 Q 92.201 123.023 91.789 123.554 L 91.789 123.554 L 91.789 123.554 Q 91.376 124.086 90.473 124.323 L 90.473 124.323 L 90.473 124.323 Q 89.571 124.559 88.509 124.361 L 88.509 124.361 L 88.509 124.361 Q 87.446 124.163 86.817 123.358 Z  M 80.408 97.861 L 80.408 97.861 L 80.408 97.861 Q 80.206 96.861 80.939 96.408 L 80.939 96.408 L 80.939 96.408 Q 81.672 95.955 82.576 96.167 L 82.576 96.167 L 82.945 97.993 L 82.945 97.993 Q 82.849 98.049 82.594 98.118 L 82.594 98.118 L 82.594 98.118 Q 82.339 98.188 82.046 98.247 L 82.046 98.247 L 82.046 98.247 Q 81.753 98.306 81.491 98.341 L 81.491 98.341 L 81.491 98.341 Q 81.229 98.376 81.119 98.362 L 81.119 98.362 L 81.119 98.362 Q 80.974 98.356 80.701 98.16 L 80.701 98.16 L 80.701 98.16 Q 80.429 97.964 80.408 97.861 Z  M 95.435 122.871 L 95.435 122.871 L 95.435 122.871 Q 94.579 122.542 94.012 121.599 L 94.012 121.599 L 94.012 121.599 Q 93.444 120.655 93.063 119.567 L 93.063 119.567 L 93.063 119.567 Q 92.681 118.478 92.486 117.513 L 92.486 117.513 L 92.194 116.066 L 92.194 116.066 Q 92.117 115.687 91.918 114.526 L 91.918 114.526 L 91.918 114.526 Q 91.719 113.364 91.478 111.817 L 91.478 111.817 L 91.478 111.817 Q 91.237 110.269 90.955 108.515 L 90.955 108.515 L 90.955 108.515 Q 90.672 106.761 90.431 105.214 L 90.431 105.214 L 90.431 105.214 Q 90.19 103.667 90.011 102.519 L 90.011 102.519 L 90.011 102.519 Q 89.833 101.371 89.757 100.992 L 89.757 100.992 L 89.757 100.992 Q 89.652 100.475 89.412 99.197 L 89.412 99.197 L 89.412 99.197 Q 89.171 97.918 88.882 96.488 L 88.882 96.488 L 88.882 96.488 Q 88.593 95.058 88.318 93.787 L 88.318 93.787 L 88.318 93.787 Q 88.043 92.515 87.938 91.998 L 87.938 91.998 L 87.938 91.998 Q 88.379 91.515 88.73 91.3 L 88.73 91.3 L 88.73 91.3 Q 89.047 91.093 89.34 91.123 L 89.34 91.123 L 89.34 91.123 Q 89.633 91.154 89.73 91.636 L 89.73 91.636 L 95.414 119.755 L 95.414 119.755 Q 95.463 119.996 95.684 120.292 L 95.684 120.292 L 95.684 120.292 Q 95.906 120.588 96.196 120.781 L 96.196 120.781 L 96.196 120.781 Q 96.486 120.973 96.823 120.959 L 96.823 120.959 L 96.823 120.959 Q 97.161 120.944 97.443 120.564 L 97.443 120.564 L 100.895 116.172 L 100.895 116.172 Q 101.228 116.93 101.195 117.833 L 101.195 117.833 L 101.195 117.833 Q 101.163 118.736 100.851 119.589 L 100.851 119.589 L 100.851 119.589 Q 100.539 120.441 99.975 121.2 L 99.975 121.2 L 99.975 121.2 Q 99.411 121.96 98.685 122.447 L 98.685 122.447 L 98.685 122.447 Q 97.958 122.935 97.128 123.085 L 97.128 123.085 L 97.128 123.085 Q 96.297 123.235 95.435 122.871 Z  M 104.015 121.137 L 104.015 121.137 L 104.015 121.137 Q 103.159 120.808 102.592 119.864 L 102.592 119.864 L 102.592 119.864 Q 102.025 118.921 101.643 117.832 L 101.643 117.832 L 101.643 117.832 Q 101.262 116.744 101.067 115.779 L 101.067 115.779 L 100.774 114.332 L 100.774 114.332 Q 100.698 113.952 100.499 112.791 L 100.499 112.791 L 100.499 112.791 Q 100.3 111.63 100.059 110.082 L 100.059 110.082 L 100.059 110.082 Q 99.818 108.535 99.535 106.781 L 99.535 106.781 L 99.535 106.781 Q 99.252 105.027 99.011 103.479 L 99.011 103.479 L 99.011 103.479 Q 98.77 101.932 98.592 100.784 L 98.592 100.784 L 98.592 100.784 Q 98.414 99.637 98.337 99.258 L 98.337 99.258 L 98.337 99.258 Q 98.232 98.741 97.992 97.462 L 97.992 97.462 L 97.992 97.462 Q 97.751 96.184 97.462 94.754 L 97.462 94.754 L 97.462 94.754 Q 97.173 93.324 96.898 92.052 L 96.898 92.052 L 96.898 92.052 Q 96.623 90.781 96.519 90.264 L 96.519 90.264 L 96.519 90.264 Q 96.959 89.78 97.31 89.566 L 97.31 89.566 L 97.31 89.566 Q 97.627 89.358 97.92 89.389 L 97.92 89.389 L 97.92 89.389 Q 98.213 89.419 98.311 89.902 L 98.311 89.902 L 103.995 118.02 L 103.995 118.02 Q 104.044 118.262 104.265 118.558 L 104.265 118.558 L 104.265 118.558 Q 104.486 118.854 104.776 119.046 L 104.776 119.046 L 104.776 119.046 Q 105.066 119.239 105.404 119.224 L 105.404 119.224 L 105.404 119.224 Q 105.742 119.21 106.024 118.83 L 106.024 118.83 L 109.476 114.438 L 109.476 114.438 Q 109.808 115.195 109.775 116.099 L 109.775 116.099 L 109.775 116.099 Q 109.743 117.002 109.431 117.854 L 109.431 117.854 L 109.431 117.854 Q 109.119 118.706 108.555 119.466 L 108.555 119.466 L 108.555 119.466 Q 107.991 120.225 107.265 120.713 L 107.265 120.713 L 107.265 120.713 Q 106.539 121.201 105.708 121.351 L 105.708 121.351 L 105.708 121.351 Q 104.878 121.5 104.015 121.137 Z  M 112.595 119.402 L 112.595 119.402 L 112.595 119.402 Q 111.643 118.949 111.02 117.909 L 111.02 117.909 L 111.02 117.909 Q 110.398 116.87 110.182 115.891 L 110.182 115.891 L 110.182 115.891 Q 109.966 114.912 110.134 114.323 L 110.134 114.323 L 110.134 114.323 Q 110.302 113.733 110.888 114.152 L 110.888 114.152 L 110.888 114.152 Q 111.196 116.027 112.149 116.838 L 112.149 116.838 L 112.149 116.838 Q 113.102 117.65 114.236 117.672 L 114.236 117.672 L 114.236 117.672 Q 115.37 117.694 116.517 117.067 L 116.517 117.067 L 116.517 117.067 Q 117.664 116.441 118.379 115.454 L 118.379 115.454 L 118.379 115.454 Q 119.094 114.466 119.184 113.228 L 119.184 113.228 L 119.184 113.228 Q 119.275 111.991 118.314 110.786 L 118.314 110.786 L 118.314 110.786 Q 117.216 109.968 115.905 109.246 L 115.905 109.246 L 115.905 109.246 Q 114.593 108.525 113.268 107.825 L 113.268 107.825 L 113.268 107.825 Q 111.943 107.124 110.676 106.358 L 110.676 106.358 L 110.676 106.358 Q 109.409 105.592 108.359 104.656 L 108.359 104.656 L 108.359 104.656 Q 108.276 104.601 108.231 104.377 L 108.231 104.377 L 108.231 104.377 Q 108.186 104.153 108.241 104.071 L 108.241 104.071 L 108.241 104.071 Q 108.419 103.712 108.735 102.966 L 108.735 102.966 L 108.735 102.966 Q 109.051 102.221 109.469 101.276 L 109.469 101.276 L 109.469 101.276 Q 109.888 100.33 110.358 99.285 L 110.358 99.285 L 110.358 99.285 Q 110.828 98.239 111.247 97.294 L 111.247 97.294 L 111.247 97.294 Q 111.665 96.348 111.998 95.6 L 111.998 95.6 L 111.998 95.6 Q 112.331 94.851 112.51 94.492 L 112.51 94.492 L 112.51 94.492 Q 112.867 93.774 113.345 93.57 L 113.345 93.57 L 113.345 93.57 Q 113.824 93.365 114.803 93.418 L 114.803 93.418 L 114.803 93.418 Q 114.797 93.563 114.649 94.077 L 114.649 94.077 L 114.649 94.077 Q 114.502 94.591 114.427 94.75 L 114.427 94.75 L 114.427 94.75 Q 114.235 95.219 113.682 96.389 L 113.682 96.389 L 113.682 96.389 Q 113.129 97.559 112.501 98.887 L 112.501 98.887 L 112.501 98.887 Q 111.873 100.216 111.321 101.386 L 111.321 101.386 L 111.321 101.386 Q 110.768 102.555 110.534 102.997 L 110.534 102.997 L 110.534 102.997 Q 110.342 103.466 110.936 103.92 L 110.936 103.92 L 110.936 103.92 Q 111.53 104.374 112.565 104.882 L 112.565 104.882 L 112.565 104.882 Q 113.601 105.39 114.908 106.005 L 114.908 106.005 L 114.908 106.005 Q 116.216 106.619 117.428 107.378 L 117.428 107.378 L 117.428 107.378 Q 118.639 108.138 119.569 109.098 L 119.569 109.098 L 119.569 109.098 Q 120.498 110.057 120.804 111.305 L 120.804 111.305 L 120.804 111.305 Q 121.11 112.552 120.613 114.087 L 120.613 114.087 L 120.613 114.087 Q 120.117 115.622 118.431 117.577 L 118.431 117.577 L 118.431 117.577 Q 117.909 118.185 117.237 118.679 L 117.237 118.679 L 117.237 118.679 Q 116.566 119.174 115.798 119.454 L 115.798 119.454 L 115.798 119.454 Q 115.03 119.735 114.209 119.758 L 114.209 119.758 L 114.209 119.758 Q 113.389 119.78 112.595 119.402 Z " fill="rgb(0,0,0)"/></g></svg>