<?xml version="1.0" standalone="no"?><!-- Generator: Gravit.io --><svg xmlns="http://www.w3.org/2000/svg" xmlns:xlink="http://www.w3.org/1999/xlink" style="isolation:isolate" viewBox="0 0 180 163" width="180px" height="163px"><defs><clipPath id="_clipPath_r8gFJ6cemTp2PSeyIThfEQW3flsqonAl"><rect width="180" height="163"/></clipPath></defs><g clip-path="url(#_clipPath_r8gFJ6cemTp2PSeyIThfEQW3flsqonAl)"><path d=" M 0 0 L 180 0 L 180 163 L 0 163 L 0 0 Z " fill="rgb(166,219,166)"/><g><g><path d=" M 86.897 20.828 L 87.868 20.592 L 89.394 26.896 L 88.422 27.131 L 86.897 20.828 Z " fill="rgb(116,116,116)"/><path d=" M 79.167 18.536 C 78.356 16.091 80.674 13.119 84.341 11.902 C 88.008 10.686 91.644 11.682 92.455 14.127 C 93.266 16.572 90.947 19.544 87.28 20.761 C 83.614 21.977 79.978 20.98 79.167 18.536 Z " fill="rgb(255,0,0)" vector-effect="non-scaling-stroke" stroke-width="1" stroke="rgb(144,0,0)" stroke-linejoin="miter" stroke-linecap="butt" stroke-miterlimit="3" style="mix-blend-mode:hard-light;"/><defs><filter id="C1Krsd4N8XpCzl8TSvbOpUUDPehbSKIk" x="-200%" y="-200%" width="400%" height="400%" filterUnits="objectBoundingBox" color-interpolation-filters="sRGB"><feOffset xmlns="http://www.w3.org/2000/svg" in="SourceGraphic" dx="3" dy="3"/><feGaussianBlur xmlns="http://www.w3.org/2000/svg" stdDeviation="2.146804531419514" result="pf_100_offsetBlur"/><feComposite xmlns="http://www.w3.org/2000/svg" in="SourceGraphic" in2="pf_100_offsetBlur" result="pf_100_inverse" operator="out"/><feFlood xmlns="http://www.w3.org/2000/svg" flood-color="#000000" flood-opacity="0.5" result="pf_100_color"/><feComposite xmlns="http://www.w3.org/2000/svg" in="pf_100_color" in2="pf_100_inverse" operator="in" result="pf_100_shadow"/><feComposite xmlns="http://www.w3.org/2000/svg" in="pf_100_shadow" in2="SourceGraphic" operator="over"/></filter></defs><g filter="url(#C1Krsd4N8XpCzl8TSvbOpUUDPehbSKIk)"><path d=" M 80.232 4.31 L 83.097 3.359 C 84.402 2.926 85.812 3.634 86.245 4.939 L 89.085 13.499 C 89.518 14.803 88.81 16.214 87.506 16.647 L 84.641 17.598 C 83.336 18.031 81.925 17.323 81.492 16.018 L 78.652 7.458 C 78.219 6.154 78.927 4.743 80.232 4.31 Z " fill="rgb(255,0,0)"/></g><path d=" M 76.285 6.673 C 75.589 4.578 77.577 2.03 80.72 0.987 C 83.863 -0.056 86.979 0.799 87.674 2.894 C 88.369 4.99 86.382 7.537 83.239 8.58 C 80.096 9.623 76.98 8.769 76.285 6.673 Z " fill="rgb(255,0,0)" vector-effect="non-scaling-stroke" stroke-width="1" stroke="rgb(205,0,0)" stroke-linejoin="miter" stroke-linecap="butt" stroke-miterlimit="3" style="mix-blend-mode:hard-light;"/></g><defs><filter id="GVDnGIxycrqadHNIRCZihmtlkkAPKpoN" x="-200%" y="-200%" width="400%" height="400%" filterUnits="objectBoundingBox" color-interpolation-filters="sRGB"><feGaussianBlur xmlns="http://www.w3.org/2000/svg" stdDeviation="3.9071842471835154"/></filter></defs><g filter="url(#GVDnGIxycrqadHNIRCZihmtlkkAPKpoN)"><path d=" M 81 25.957 C 81 24.026 84.137 22.457 88 22.457 C 91.863 22.457 95 24.026 95 25.957 C 95 27.889 91.863 29.457 88 29.457 C 84.137 29.457 81 27.889 81 25.957 Z " fill="rgb(70,70,70)"/></g></g><path d=" M 43.125 96.905 L 49.472 89.858 L 49.472 89.858 Q 49.536 89.813 49.502 88.948 L 49.502 88.948 L 49.502 88.948 Q 49.467 88.083 49.408 86.92 L 49.408 86.92 L 49.408 86.92 Q 49.349 85.756 49.245 84.528 L 49.245 84.528 L 49.245 84.528 Q 49.141 83.3 49.062 82.494 L 49.062 82.494 L 49.062 82.494 Q 48.997 82.042 48.896 81.204 L 48.896 81.204 L 48.896 81.204 Q 48.794 80.366 48.648 79.34 L 48.648 79.34 L 48.648 79.34 Q 48.502 78.313 48.361 77.197 L 48.361 77.197 L 48.361 77.197 Q 48.219 76.08 48.061 75.091 L 48.061 75.091 L 48.061 75.091 Q 47.902 74.101 47.775 73.338 L 47.775 73.338 L 47.775 73.338 Q 47.649 72.575 47.599 72.227 L 47.599 72.227 L 47.599 72.227 Q 47.58 72.088 47.443 71.752 L 47.443 71.752 L 47.443 71.752 Q 47.306 71.416 47.165 71.046 L 47.165 71.046 L 47.165 71.046 Q 47.023 70.676 46.872 70.36 L 46.872 70.36 L 46.872 70.36 Q 46.72 70.044 46.631 69.915 L 46.631 69.915 L 46.631 69.915 Q 45.398 69.984 44.18 70.406 L 44.18 70.406 L 44.18 70.406 Q 42.961 70.828 41.788 71.315 L 41.788 71.315 L 41.788 71.315 Q 40.614 71.802 39.443 72.181 L 39.443 72.181 L 39.443 72.181 Q 38.272 72.561 37.163 72.506 L 37.163 72.506 L 37.163 72.506 Q 36.801 71.954 37.532 71.229 L 37.532 71.229 L 37.532 71.229 Q 38.263 70.503 39.762 69.81 L 39.762 69.81 L 39.762 69.81 Q 41.262 69.117 43.308 68.524 L 43.308 68.524 L 43.308 68.524 Q 45.354 67.93 47.586 67.648 L 47.586 67.648 L 47.586 67.648 Q 49.819 67.365 52.039 67.493 L 52.039 67.493 L 52.039 67.493 Q 54.259 67.621 56.1 68.335 L 56.1 68.335 L 56.1 68.335 Q 57.942 69.049 59.204 70.432 L 59.204 70.432 L 59.204 70.432 Q 60.467 71.815 60.789 74.077 L 60.789 74.077 L 60.789 74.077 Q 60.903 74.877 60.753 75.822 L 60.753 75.822 L 60.753 75.822 Q 60.604 76.767 60.298 77.733 L 60.298 77.733 L 60.298 77.733 Q 59.992 78.7 59.569 79.595 L 59.569 79.595 L 59.569 79.595 Q 59.146 80.49 58.703 81.121 L 58.703 81.121 L 58.703 81.121 Q 58.499 81.434 58.024 82.088 L 58.024 82.088 L 58.024 82.088 Q 57.549 82.742 56.939 83.574 L 56.939 83.574 L 56.939 83.574 Q 56.33 84.407 55.641 85.304 L 55.641 85.304 L 55.641 85.304 Q 54.952 86.201 54.34 87.016 L 54.34 87.016 L 54.34 87.016 Q 53.728 87.831 53.233 88.47 L 53.233 88.47 L 53.233 88.47 Q 52.738 89.108 52.5 89.427 L 52.5 89.427 L 52.5 89.427 Q 52.514 90.277 52.439 90.998 L 52.439 90.998 L 52.439 90.998 Q 52.364 91.719 52.071 92.151 L 52.071 92.151 L 52.071 92.151 Q 51.777 92.583 51.235 92.643 L 51.235 92.643 L 51.235 92.643 Q 50.694 92.702 49.814 92.259 L 49.814 92.259 L 49.814 92.259 Q 49.122 92.891 48.406 93.969 L 48.406 93.969 L 48.406 93.969 Q 47.69 95.048 46.911 96.064 L 46.911 96.064 L 46.911 96.064 Q 46.133 97.081 45.232 97.742 L 45.232 97.742 L 45.232 97.742 Q 44.332 98.402 43.298 98.124 L 43.298 98.124 L 43.125 96.905 Z  M 49.659 69.483 L 52.153 86.99 L 52.153 86.99 Q 54.216 85.773 55.654 83.775 L 55.654 83.775 L 55.654 83.775 Q 57.092 81.777 57.786 79.547 L 57.786 79.547 L 57.786 79.547 Q 58.481 77.318 58.385 75.147 L 58.385 75.147 L 58.385 75.147 Q 58.289 72.977 57.325 71.445 L 57.325 71.445 L 57.325 71.445 Q 56.361 69.914 54.477 69.276 L 54.477 69.276 L 54.477 69.276 Q 52.593 68.639 49.659 69.483 L 49.659 69.483 Z  M 71.885 88.902 L 71.885 88.902 L 71.885 88.902 Q 70.26 87.962 69.186 86.535 L 69.186 86.535 L 69.186 86.535 Q 68.113 85.107 67.408 83.397 L 67.408 83.397 L 67.408 83.397 Q 67.224 83.601 66.836 83.869 L 66.836 83.869 L 66.836 83.869 Q 66.448 84.137 66.033 84.338 L 66.033 84.338 L 66.033 84.338 Q 65.617 84.54 65.207 84.651 L 65.207 84.651 L 65.207 84.651 Q 64.797 84.763 64.586 84.651 L 64.586 84.651 L 64.586 84.651 Q 64.374 84.539 64.414 84.196 L 64.414 84.196 L 64.414 84.196 Q 64.454 83.853 64.917 83.112 L 64.917 83.112 L 64.917 83.112 Q 64.972 82.998 65.287 82.598 L 65.287 82.598 L 65.287 82.598 Q 65.603 82.198 65.964 81.738 L 65.964 81.738 L 65.964 81.738 Q 66.325 81.278 66.621 80.863 L 66.621 80.863 L 66.621 80.863 Q 66.917 80.448 66.971 80.334 L 66.971 80.334 L 66.971 80.334 Q 67.23 79.409 67.169 78.353 L 67.169 78.353 L 67.169 78.353 Q 67.107 77.296 66.963 76.163 L 66.963 76.163 L 66.963 76.163 Q 66.819 75.029 66.765 73.9 L 66.765 73.9 L 66.765 73.9 Q 66.711 72.772 66.99 71.738 L 66.99 71.738 L 66.99 71.738 Q 67.154 71.146 67.716 70.232 L 67.716 70.232 L 67.716 70.232 Q 68.278 69.317 69.022 68.43 L 69.022 68.43 L 69.022 68.43 Q 69.766 67.543 70.567 66.807 L 70.567 66.807 L 70.567 66.807 Q 71.367 66.072 71.991 65.841 L 71.991 65.841 L 71.991 65.841 Q 72.615 65.61 72.976 66.02 L 72.976 66.02 L 72.976 66.02 Q 73.336 66.43 73.206 67.763 L 73.206 67.763 L 73.206 67.763 Q 73.042 69.349 72.464 70.905 L 72.464 70.905 L 72.464 70.905 Q 71.887 72.461 71.252 73.989 L 71.252 73.989 L 71.252 73.989 Q 70.618 75.518 70.068 77.017 L 70.068 77.017 L 70.068 77.017 Q 69.518 78.515 69.408 79.987 L 69.408 79.987 L 69.408 79.987 Q 69.343 80.777 69.499 81.874 L 69.499 81.874 L 69.499 81.874 Q 69.655 82.97 70.052 84.014 L 70.052 84.014 L 70.052 84.014 Q 70.45 85.059 71.133 85.867 L 71.133 85.867 L 71.133 85.867 Q 71.816 86.675 72.84 86.884 L 72.84 86.884 L 72.84 86.884 Q 74.014 87.143 75.098 86.776 L 75.098 86.776 L 75.098 86.776 Q 76.182 86.408 77.159 85.665 L 77.159 85.665 L 77.159 85.665 Q 78.136 84.923 78.984 83.896 L 78.984 83.896 L 78.984 83.896 Q 79.833 82.87 80.534 81.811 L 80.534 81.811 L 80.534 81.811 Q 81.235 80.752 81.77 79.771 L 81.77 79.771 L 81.77 79.771 Q 82.305 78.789 82.668 78.098 L 82.668 78.098 L 83.349 78.64 L 83.349 78.64 Q 83.623 78.814 83.222 79.866 L 83.222 79.866 L 83.222 79.866 Q 82.821 80.917 81.971 82.299 L 81.971 82.299 L 81.971 82.299 Q 81.12 83.681 79.911 85.167 L 79.911 85.167 L 79.911 85.167 Q 78.702 86.653 77.347 87.734 L 77.347 87.734 L 77.347 87.734 Q 75.992 88.815 74.577 89.229 L 74.577 89.229 L 74.577 89.229 Q 73.163 89.644 71.885 88.902 Z  M 68.545 73.931 L 68.545 73.931 L 68.545 73.931 Q 68.535 74.11 68.58 74.547 L 68.58 74.547 L 68.58 74.547 Q 68.624 74.985 68.694 75.472 L 68.694 75.472 L 68.694 75.472 Q 68.763 75.959 68.84 76.375 L 68.84 76.375 L 68.84 76.375 Q 68.917 76.79 68.976 76.959 L 68.976 76.959 L 68.976 76.959 Q 69.817 74.886 70.485 72.589 L 70.485 72.589 L 70.485 72.589 Q 71.152 70.293 71.396 68.021 L 71.396 68.021 L 71.396 68.021 Q 70.636 68.413 70.073 69.079 L 70.073 69.079 L 70.073 69.079 Q 69.511 69.745 69.165 70.558 L 69.165 70.558 L 69.165 70.558 Q 68.82 71.371 68.678 72.243 L 68.678 72.243 L 68.678 72.243 Q 68.535 73.116 68.545 73.931 Z  M 85.598 86.949 L 85.598 86.949 L 85.598 86.949 Q 84.674 86.442 84.112 85.368 L 84.112 85.368 L 84.112 85.368 Q 83.551 84.293 83.392 83.304 L 83.392 83.304 L 83.392 83.304 Q 83.233 82.314 83.435 81.735 L 83.435 81.735 L 83.435 81.735 Q 83.637 81.156 84.198 81.609 L 84.198 81.609 L 84.198 81.609 Q 84.396 83.498 85.301 84.364 L 85.301 84.364 L 85.301 84.364 Q 86.205 85.229 87.337 85.317 L 87.337 85.317 L 87.337 85.317 Q 88.468 85.404 89.649 84.845 L 89.649 84.845 L 89.649 84.845 Q 90.83 84.286 91.601 83.342 L 91.601 83.342 L 91.601 83.342 Q 92.372 82.398 92.534 81.167 L 92.534 81.167 L 92.534 81.167 Q 92.696 79.937 91.806 78.679 L 91.806 78.679 L 91.806 78.679 Q 90.758 77.798 89.49 77.002 L 89.49 77.002 L 89.49 77.002 Q 88.223 76.206 86.94 75.43 L 86.94 75.43 L 86.94 75.43 Q 85.658 74.654 84.438 73.816 L 84.438 73.816 L 84.438 73.816 Q 83.217 72.977 82.223 71.983 L 82.223 71.983 L 82.223 71.983 Q 82.144 71.923 82.112 71.697 L 82.112 71.697 L 82.112 71.697 Q 82.079 71.47 82.139 71.391 L 82.139 71.391 L 82.139 71.391 Q 82.338 71.043 82.696 70.317 L 82.696 70.317 L 82.696 70.317 Q 83.055 69.591 83.527 68.672 L 83.527 68.672 L 83.527 68.672 Q 84 67.752 84.53 66.736 L 84.53 66.736 L 84.53 66.736 Q 85.06 65.719 85.533 64.8 L 85.533 64.8 L 85.533 64.8 Q 86.005 63.88 86.381 63.152 L 86.381 63.152 L 86.381 63.152 Q 86.757 62.424 86.956 62.076 L 86.956 62.076 L 86.956 62.076 Q 87.354 61.38 87.844 61.203 L 87.844 61.203 L 87.844 61.203 Q 88.333 61.027 89.308 61.137 L 89.308 61.137 L 89.308 61.137 Q 89.293 61.281 89.116 61.786 L 89.116 61.786 L 89.116 61.786 Q 88.939 62.29 88.855 62.444 L 88.855 62.444 L 88.855 62.444 Q 88.636 62.902 88.016 64.037 L 88.016 64.037 L 88.016 64.037 Q 87.397 65.173 86.693 66.463 L 86.693 66.463 L 86.693 66.463 Q 85.989 67.753 85.369 68.889 L 85.369 68.889 L 85.369 68.889 Q 84.75 70.025 84.491 70.452 L 84.491 70.452 L 84.491 70.452 Q 84.272 70.909 84.839 71.397 L 84.839 71.397 L 84.839 71.397 Q 85.405 71.884 86.41 72.452 L 86.41 72.452 L 86.41 72.452 Q 87.414 73.019 88.684 73.708 L 88.684 73.708 L 88.684 73.708 Q 89.954 74.397 91.119 75.225 L 91.119 75.225 L 91.119 75.225 Q 92.285 76.054 93.157 77.066 L 93.157 77.066 L 93.157 77.066 Q 94.029 78.078 94.262 79.341 L 94.262 79.341 L 94.262 79.341 Q 94.495 80.604 93.911 82.107 L 93.911 82.107 L 93.911 82.107 Q 93.326 83.611 91.53 85.465 L 91.53 85.465 L 91.53 85.465 Q 90.973 86.041 90.274 86.496 L 90.274 86.496 L 90.274 86.496 Q 89.576 86.951 88.793 87.187 L 88.793 87.187 L 88.793 87.187 Q 88.009 87.422 87.189 87.397 L 87.189 87.397 L 87.189 87.397 Q 86.369 87.372 85.598 86.949 Z  M 96.91 84.095 L 96.91 84.095 L 96.91 84.095 Q 96.821 83.966 96.659 83.58 L 96.659 83.58 L 96.659 83.58 Q 96.498 83.195 96.324 82.722 L 96.324 82.722 L 96.324 82.722 Q 96.15 82.25 96.016 81.808 L 96.016 81.808 L 96.016 81.808 Q 95.882 81.365 95.853 81.156 L 95.853 81.156 L 93.443 64.241 L 93.443 64.241 Q 93.393 63.893 93.687 63.709 L 93.687 63.709 L 93.687 63.709 Q 93.98 63.525 94.378 63.451 L 94.378 63.451 L 94.378 63.451 Q 94.776 63.376 95.111 63.364 L 95.111 63.364 L 95.111 63.364 Q 95.447 63.352 95.482 63.347 L 95.482 63.347 L 98.149 82.072 L 98.149 82.072 Q 98.233 82.664 98.671 82.992 L 98.671 82.992 L 98.671 82.992 Q 99.108 83.32 99.662 83.472 L 99.662 83.472 L 99.662 83.472 Q 100.217 83.624 100.781 83.597 L 100.781 83.597 L 100.781 83.597 Q 101.345 83.57 101.713 83.411 L 101.713 83.411 L 101.713 83.411 Q 102.305 84.072 101.862 84.579 L 101.862 84.579 L 101.862 84.579 Q 101.419 85.086 100.504 85.27 L 100.504 85.27 L 100.504 85.27 Q 99.59 85.453 98.541 85.194 L 98.541 85.194 L 98.541 85.194 Q 97.492 84.935 96.91 84.095 Z  M 91.989 58.269 L 91.989 58.269 L 91.989 58.269 Q 91.845 57.26 92.603 56.85 L 92.603 56.85 L 92.603 56.85 Q 93.362 56.44 94.252 56.704 L 94.252 56.704 L 94.514 58.549 L 94.514 58.549 Q 94.415 58.598 94.156 58.653 L 94.156 58.653 L 94.156 58.653 Q 93.898 58.707 93.602 58.75 L 93.602 58.75 L 93.602 58.75 Q 93.306 58.792 93.043 58.812 L 93.043 58.812 L 93.043 58.812 Q 92.779 58.831 92.67 58.811 L 92.67 58.811 L 92.67 58.811 Q 92.525 58.796 92.265 58.585 L 92.265 58.585 L 92.265 58.585 Q 92.004 58.374 91.989 58.269 Z  M 110.986 94.412 L 110.986 94.412 L 110.986 94.412 Q 109.754 93.487 109.476 91.911 L 109.476 91.911 L 109.476 91.911 Q 109.198 90.335 109.53 88.423 L 109.53 88.423 L 109.53 88.423 Q 109.861 86.512 110.632 84.449 L 110.632 84.449 L 110.632 84.449 Q 111.404 82.386 112.262 80.434 L 112.262 80.434 L 112.262 80.434 Q 113.121 78.483 113.862 76.833 L 113.862 76.833 L 113.862 76.833 Q 114.604 75.183 114.917 74.144 L 114.917 74.144 L 114.917 74.144 Q 115.082 73.552 114.814 72.543 L 114.814 72.543 L 114.814 72.543 Q 114.546 71.533 114.133 70.509 L 114.133 70.509 L 114.133 70.509 Q 113.721 69.485 113.301 68.657 L 113.301 68.657 L 113.301 68.657 Q 112.882 67.829 112.747 67.635 L 112.747 67.635 L 112.245 68.345 L 107.233 80.778 L 107.233 80.778 Q 107.174 80.857 106.972 81.064 L 106.972 81.064 L 106.972 81.064 Q 106.771 81.27 106.517 81.484 L 106.517 81.484 L 106.517 81.484 Q 106.263 81.697 105.992 81.914 L 105.992 81.914 L 105.992 81.914 Q 105.721 82.13 105.592 82.219 L 105.592 82.219 L 105.592 82.219 Q 104.543 82.83 103.924 82.35 L 103.924 82.35 L 103.924 82.35 Q 103.305 81.87 103.112 80.637 L 103.112 80.637 L 103.112 80.637 Q 102.918 79.404 103.068 77.589 L 103.068 77.589 L 103.068 77.589 Q 103.218 75.775 103.689 73.719 L 103.689 73.719 L 103.689 73.719 Q 104.159 71.663 104.886 69.536 L 104.886 69.536 L 104.886 69.536 Q 105.613 67.408 106.573 65.549 L 106.573 65.549 L 106.573 65.549 Q 107.534 63.69 108.665 62.286 L 108.665 62.286 L 108.665 62.286 Q 109.797 60.882 111.06 60.276 L 111.06 60.276 L 111.06 60.276 Q 111.751 60.39 111.815 60.718 L 111.815 60.718 L 111.815 60.718 Q 111.88 61.047 111.572 61.499 L 111.572 61.499 L 111.572 61.499 Q 111.263 61.951 110.718 62.49 L 110.718 62.49 L 110.718 62.49 Q 110.174 63.03 109.592 63.556 L 109.592 63.556 L 109.592 63.556 Q 109.01 64.083 108.525 64.543 L 108.525 64.543 L 108.525 64.543 Q 108.04 65.003 107.906 65.306 L 107.906 65.306 L 107.906 65.306 Q 107.333 67.27 106.661 69.034 L 106.661 69.034 L 106.661 69.034 Q 105.989 70.799 105.509 72.536 L 105.509 72.536 L 105.509 72.536 Q 105.028 74.274 104.891 76.051 L 104.891 76.051 L 104.891 76.051 Q 104.753 77.829 105.25 79.818 L 105.25 79.818 L 105.752 79.107 L 105.752 79.107 Q 106.822 77.392 107.583 75.259 L 107.583 75.259 L 107.583 75.259 Q 108.345 73.127 108.93 71.002 L 108.93 71.002 L 108.93 71.002 Q 109.515 68.876 109.986 66.945 L 109.986 66.945 L 109.986 66.945 Q 110.456 65.014 110.909 63.706 L 110.909 63.706 L 110.909 63.706 Q 111.362 62.399 111.895 61.897 L 111.895 61.897 L 111.895 61.897 Q 112.427 61.395 113.12 62.148 L 113.12 62.148 L 113.12 62.148 Q 113.813 62.902 114.767 65.11 L 114.767 65.11 L 114.767 65.11 Q 115.721 67.318 117.007 71.36 L 117.007 71.36 L 117.007 71.36 Q 117.161 71.196 117.614 70.759 L 117.614 70.759 L 117.614 70.759 Q 118.066 70.322 118.586 69.857 L 118.586 69.857 L 118.586 69.857 Q 119.106 69.392 119.581 68.987 L 119.581 68.987 L 119.581 68.987 Q 120.056 68.582 120.25 68.448 L 120.25 68.448 L 120.25 68.448 Q 120.414 68.354 120.866 68.289 L 120.866 68.289 L 120.866 68.289 Q 121.319 68.225 121.468 68.275 L 121.468 68.275 L 121.468 68.275 Q 121.418 68.921 120.89 69.831 L 120.89 69.831 L 120.89 69.831 Q 120.363 70.74 119.719 71.578 L 119.719 71.578 L 119.719 71.578 Q 119.075 72.415 118.525 73.044 L 118.525 73.044 L 118.525 73.044 Q 117.975 73.673 117.945 73.712 L 117.945 73.712 L 117.945 73.712 Q 117.995 74.06 118.077 74.759 L 118.077 74.759 L 118.077 74.759 Q 118.159 75.458 118.235 76.37 L 118.235 76.37 L 118.235 76.37 Q 118.312 77.282 118.381 78.267 L 118.381 78.267 L 118.381 78.267 Q 118.45 79.251 118.51 80.166 L 118.51 80.166 L 118.51 80.166 Q 118.569 81.081 118.598 81.787 L 118.598 81.787 L 118.643 82.846 L 118.643 82.846 Q 118.638 83.308 118.374 84.571 L 118.374 84.571 L 118.374 84.571 Q 118.11 85.834 117.661 87.425 L 117.661 87.425 L 117.661 87.425 Q 117.213 89.015 116.556 90.636 L 116.556 90.636 L 116.556 90.636 Q 115.899 92.257 115.066 93.387 L 115.066 93.387 L 115.066 93.387 Q 114.233 94.518 113.206 94.913 L 113.206 94.913 L 113.206 94.913 Q 112.179 95.308 110.986 94.412 Z  M 111.973 88.128 L 111.973 88.128 L 111.973 88.128 Q 111.978 88.412 112.057 89.093 L 112.057 89.093 L 112.057 89.093 Q 112.137 89.774 112.246 90.54 L 112.246 90.54 L 112.246 90.54 Q 112.355 91.305 112.471 91.999 L 112.471 91.999 L 112.471 91.999 Q 112.588 92.693 112.658 92.931 L 112.658 92.931 L 112.658 92.931 Q 114.393 91.903 115.353 89.92 L 115.353 89.92 L 115.353 89.92 Q 116.314 87.936 116.626 85.637 L 116.626 85.637 L 116.626 85.637 Q 116.937 83.337 116.732 81.023 L 116.732 81.023 L 116.732 81.023 Q 116.526 78.708 115.935 77.053 L 115.935 77.053 L 115.935 77.053 Q 115.045 78.032 114.316 79.396 L 114.316 79.396 L 114.316 79.396 Q 113.587 80.761 113.057 82.274 L 113.057 82.274 L 113.057 82.274 Q 112.527 83.788 112.248 85.319 L 112.248 85.319 L 112.248 85.319 Q 111.969 86.851 111.973 88.128 Z  M 124.058 81.471 L 124.058 81.471 L 124.058 81.471 Q 124.028 81.014 123.869 79.9 L 123.869 79.9 L 123.195 75.166 L 123.195 75.166 Q 123.036 74.053 122.937 73.605 L 122.937 73.605 L 122.937 73.605 Q 122.873 73.401 122.686 72.717 L 122.686 72.717 L 122.686 72.717 Q 122.5 72.034 122.245 71.111 L 122.245 71.111 L 122.245 71.111 Q 121.989 70.189 121.701 69.165 L 121.701 69.165 L 121.701 69.165 Q 121.413 68.14 121.14 67.22 L 121.14 67.22 L 121.14 67.22 Q 120.867 66.301 120.681 65.617 L 120.681 65.617 L 120.681 65.617 Q 120.495 64.933 120.425 64.694 L 120.425 64.694 L 120.425 64.694 Q 120.286 64.217 120.229 63.693 L 120.229 63.693 L 120.229 63.693 Q 120.172 63.168 120.292 62.76 L 120.292 62.76 L 120.292 62.76 Q 120.411 62.353 120.772 62.142 L 120.772 62.142 L 120.772 62.142 Q 121.132 61.93 121.898 62.07 L 121.898 62.07 L 121.898 62.07 Q 122.037 62.796 122.265 63.775 L 122.265 63.775 L 122.265 63.775 Q 122.493 64.755 122.786 65.814 L 122.786 65.814 L 122.786 65.814 Q 123.079 66.873 123.437 67.888 L 123.437 67.888 L 123.437 67.888 Q 123.794 68.902 124.231 69.727 L 124.231 69.727 L 124.231 69.727 Q 124.501 68.375 124.794 67.321 L 124.794 67.321 L 124.794 67.321 Q 125.088 66.267 125.526 65.353 L 125.526 65.353 L 125.526 65.353 Q 125.964 64.438 126.553 63.591 L 126.553 63.591 L 126.553 63.591 Q 127.143 62.743 128.003 61.804 L 128.003 61.804 L 128.003 61.804 Q 129.078 60.621 129.923 60.696 L 129.923 60.696 L 129.923 60.696 Q 130.768 60.771 131.449 61.686 L 131.449 61.686 L 131.449 61.686 Q 132.13 62.601 132.701 64.118 L 132.701 64.118 L 132.701 64.118 Q 133.272 65.634 133.801 67.352 L 133.801 67.352 L 133.801 67.352 Q 134.33 69.07 134.866 70.716 L 134.866 70.716 L 134.866 70.716 Q 135.402 72.362 136.031 73.533 L 136.031 73.533 L 136.031 73.533 Q 136.659 74.704 137.42 75.182 L 137.42 75.182 L 137.42 75.182 Q 138.18 75.66 139.15 74.989 L 139.15 74.989 L 139.15 74.989 Q 139.597 75.884 139.433 76.351 L 139.433 76.351 L 139.433 76.351 Q 139.268 76.818 138.736 76.948 L 138.736 76.948 L 138.736 76.948 Q 138.204 77.077 137.426 76.85 L 137.426 76.85 L 137.426 76.85 Q 136.648 76.624 135.853 76.151 L 135.853 76.151 L 135.853 76.151 Q 135.058 75.678 134.387 74.957 L 134.387 74.957 L 134.387 74.957 Q 133.716 74.236 133.378 73.361 L 133.378 73.361 L 133.378 73.361 Q 133.15 72.754 132.842 71.342 L 132.842 71.342 L 132.842 71.342 Q 132.534 69.93 132.093 68.324 L 132.093 68.324 L 132.093 68.324 Q 131.651 66.718 130.99 65.196 L 130.99 65.196 L 130.99 65.196 Q 130.329 63.674 129.395 62.849 L 129.395 62.849 L 127.296 65.562 L 127.296 65.562 Q 127.211 65.716 126.97 66.887 L 126.97 66.887 L 126.97 66.887 Q 126.728 68.058 126.446 69.572 L 126.446 69.572 L 126.446 69.572 Q 126.165 71.086 125.923 72.629 L 125.923 72.629 L 125.923 72.629 Q 125.681 74.173 125.602 75.108 L 125.602 75.108 L 125.602 75.108 Q 125.577 75.431 125.594 76.298 L 125.594 76.298 L 125.594 76.298 Q 125.611 77.166 125.645 78.155 L 125.645 78.155 L 125.645 78.155 Q 125.679 79.145 125.749 80.005 L 125.749 80.005 L 125.749 80.005 Q 125.818 80.865 125.868 81.213 L 125.868 81.213 L 125.868 81.213 Q 125.644 81.884 125.052 81.969 L 125.052 81.969 L 125.052 81.969 Q 124.46 82.053 124.058 81.471 Z " fill="rgb(0,0,0)"/></g></svg>