<?xml version="1.0" standalone="no"?><!-- Generator: Gravit.io --><svg xmlns="http://www.w3.org/2000/svg" xmlns:xlink="http://www.w3.org/1999/xlink" style="isolation:isolate" viewBox="0 0 180 163" width="180" height="163"><defs><clipPath id="_clipPath_V5HkuKNipFNqCDgY5ToHgn2lQwOatnVv"><rect width="180" height="163"/></clipPath></defs><g clip-path="url(#_clipPath_V5HkuKNipFNqCDgY5ToHgn2lQwOatnVv)"><path d=" M 0 0 L 180 0 L 180 163 L 0 163 L 0 0 Z " fill="rgb(166,219,166)"/><g><g><path d=" M 86.897 20.828 L 87.868 20.592 L 89.394 26.896 L 88.422 27.131 L 86.897 20.828 Z " fill="rgb(116,116,116)"/><path d=" M 79.167 18.536 C 78.356 16.091 80.674 13.119 84.341 11.902 C 88.008 10.686 91.644 11.682 92.455 14.127 C 93.266 16.572 90.947 19.544 87.28 20.761 C 83.614 21.977 79.978 20.98 79.167 18.536 Z " fill="rgb(255,0,0)" vector-effect="non-scaling-stroke" stroke-width="1" stroke="rgb(144,0,0)" stroke-linejoin="miter" stroke-linecap="butt" stroke-miterlimit="3" style="mix-blend-mode:hard-light;"/><defs><filter id="x9Ru9qKyjF5l9sOvUw8DvCzSroGj8mSf" x="-200%" y="-200%" width="400%" height="400%" filterUnits="objectBoundingBox" color-interpolation-filters="sRGB"><feOffset xmlns="http://www.w3.org/2000/svg" in="SourceGraphic" dx="3" dy="3"/><feGaussianBlur xmlns="http://www.w3.org/2000/svg" stdDeviation="2.146804531419514" result="pf_100_offsetBlur"/><feComposite xmlns="http://www.w3.org/2000/svg" in="SourceGraphic" in2="pf_100_offsetBlur" result="pf_100_inverse" operator="out"/><feFlood xmlns="http://www.w3.org/2000/svg" flood-color="#000000" flood-opacity="0.5" result="pf_100_color"/><feComposite xmlns="http://www.w3.org/2000/svg" in="pf_100_color" in2="pf_100_inverse" operator="in" result="pf_100_shadow"/><feComposite xmlns="http://www.w3.org/2000/svg" in="pf_100_shadow" in2="SourceGraphic" operator="over"/></filter></defs><g filter="url(#x9Ru9qKyjF5l9sOvUw8DvCzSroGj8mSf)"><path d=" M 80.232 4.31 L 83.097 3.359 C 84.402 2.926 85.812 3.634 86.245 4.939 L 89.085 13.499 C 89.518 14.803 88.81 16.214 87.506 16.647 L 84.641 17.598 C 83.336 18.031 81.925 17.323 81.492 16.018 L 78.652 7.458 C 78.219 6.154 78.927 4.743 80.232 4.31 Z " fill="rgb(255,0,0)"/></g><path d=" M 76.285 6.673 C 75.589 4.578 77.577 2.03 80.72 0.987 C 83.863 -0.056 86.979 0.799 87.674 2.894 C 88.369 4.99 86.382 7.537 83.239 8.58 C 80.096 9.623 76.98 8.769 76.285 6.673 Z " fill="rgb(255,0,0)" vector-effect="non-scaling-stroke" stroke-width="1" stroke="rgb(205,0,0)" stroke-linejoin="miter" stroke-linecap="butt" stroke-miterlimit="3" style="mix-blend-mode:hard-light;"/></g><defs><filter id="UQr3usqFZozlIO9qWzNbDm0gaqY4tqJK" x="-200%" y="-200%" width="400%" height="400%" filterUnits="objectBoundingBox" color-interpolation-filters="sRGB"><feGaussianBlur xmlns="http://www.w3.org/2000/svg" stdDeviation="3.9071842471835154"/></filter></defs><g filter="url(#UQr3usqFZozlIO9qWzNbDm0gaqY4tqJK)"><path d=" M 81 25.957 C 81 24.026 84.137 22.457 88 22.457 C 91.863 22.457 95 24.026 95 25.957 C 95 27.889 91.863 29.457 88 29.457 C 84.137 29.457 81 27.889 81 25.957 Z " fill="rgb(70,70,70)"/></g></g><path d=" M 33.125 81.905 L 39.472 74.858 L 39.472 74.858 Q 39.536 74.813 39.502 73.948 L 39.502 73.948 L 39.502 73.948 Q 39.467 73.083 39.408 71.92 L 39.408 71.92 L 39.408 71.92 Q 39.349 70.756 39.245 69.528 L 39.245 69.528 L 39.245 69.528 Q 39.141 68.3 39.062 67.494 L 39.062 67.494 L 39.062 67.494 Q 38.997 67.042 38.896 66.204 L 38.896 66.204 L 38.896 66.204 Q 38.794 65.366 38.648 64.34 L 38.648 64.34 L 38.648 64.34 Q 38.502 63.313 38.361 62.197 L 38.361 62.197 L 38.361 62.197 Q 38.219 61.08 38.061 60.091 L 38.061 60.091 L 38.061 60.091 Q 37.902 59.101 37.775 58.338 L 37.775 58.338 L 37.775 58.338 Q 37.649 57.575 37.599 57.227 L 37.599 57.227 L 37.599 57.227 Q 37.58 57.088 37.443 56.752 L 37.443 56.752 L 37.443 56.752 Q 37.306 56.416 37.165 56.046 L 37.165 56.046 L 37.165 56.046 Q 37.023 55.676 36.872 55.36 L 36.872 55.36 L 36.872 55.36 Q 36.72 55.044 36.631 54.915 L 36.631 54.915 L 36.631 54.915 Q 35.398 54.984 34.18 55.406 L 34.18 55.406 L 34.18 55.406 Q 32.961 55.828 31.788 56.315 L 31.788 56.315 L 31.788 56.315 Q 30.614 56.802 29.443 57.181 L 29.443 57.181 L 29.443 57.181 Q 28.272 57.561 27.163 57.506 L 27.163 57.506 L 27.163 57.506 Q 26.801 56.954 27.532 56.229 L 27.532 56.229 L 27.532 56.229 Q 28.263 55.503 29.762 54.81 L 29.762 54.81 L 29.762 54.81 Q 31.262 54.117 33.308 53.524 L 33.308 53.524 L 33.308 53.524 Q 35.354 52.93 37.586 52.648 L 37.586 52.648 L 37.586 52.648 Q 39.819 52.365 42.039 52.493 L 42.039 52.493 L 42.039 52.493 Q 44.259 52.621 46.1 53.335 L 46.1 53.335 L 46.1 53.335 Q 47.942 54.049 49.204 55.432 L 49.204 55.432 L 49.204 55.432 Q 50.467 56.815 50.789 59.077 L 50.789 59.077 L 50.789 59.077 Q 50.903 59.877 50.753 60.822 L 50.753 60.822 L 50.753 60.822 Q 50.604 61.767 50.298 62.733 L 50.298 62.733 L 50.298 62.733 Q 49.992 63.7 49.569 64.595 L 49.569 64.595 L 49.569 64.595 Q 49.146 65.49 48.703 66.121 L 48.703 66.121 L 48.703 66.121 Q 48.499 66.434 48.024 67.088 L 48.024 67.088 L 48.024 67.088 Q 47.549 67.742 46.939 68.574 L 46.939 68.574 L 46.939 68.574 Q 46.33 69.407 45.641 70.304 L 45.641 70.304 L 45.641 70.304 Q 44.952 71.201 44.34 72.016 L 44.34 72.016 L 44.34 72.016 Q 43.728 72.831 43.233 73.47 L 43.233 73.47 L 43.233 73.47 Q 42.738 74.108 42.5 74.427 L 42.5 74.427 L 42.5 74.427 Q 42.514 75.277 42.439 75.998 L 42.439 75.998 L 42.439 75.998 Q 42.364 76.719 42.071 77.151 L 42.071 77.151 L 42.071 77.151 Q 41.777 77.583 41.235 77.643 L 41.235 77.643 L 41.235 77.643 Q 40.694 77.702 39.814 77.259 L 39.814 77.259 L 39.814 77.259 Q 39.122 77.891 38.406 78.969 L 38.406 78.969 L 38.406 78.969 Q 37.69 80.048 36.911 81.064 L 36.911 81.064 L 36.911 81.064 Q 36.133 82.081 35.232 82.742 L 35.232 82.742 L 35.232 82.742 Q 34.332 83.402 33.298 83.124 L 33.298 83.124 L 33.125 81.905 L 33.125 81.905 Z  M 39.659 54.483 L 42.153 71.99 L 42.153 71.99 Q 44.216 70.773 45.654 68.775 L 45.654 68.775 L 45.654 68.775 Q 47.092 66.777 47.786 64.547 L 47.786 64.547 L 47.786 64.547 Q 48.481 62.318 48.385 60.147 L 48.385 60.147 L 48.385 60.147 Q 48.289 57.977 47.325 56.445 L 47.325 56.445 L 47.325 56.445 Q 46.361 54.914 44.477 54.276 L 44.477 54.276 L 44.477 54.276 Q 42.593 53.639 39.659 54.483 L 39.659 54.483 L 39.659 54.483 Z  M 61.885 73.902 L 61.885 73.902 L 61.885 73.902 Q 60.26 72.962 59.186 71.535 L 59.186 71.535 L 59.186 71.535 Q 58.113 70.107 57.408 68.397 L 57.408 68.397 L 57.408 68.397 Q 57.224 68.601 56.836 68.869 L 56.836 68.869 L 56.836 68.869 Q 56.448 69.137 56.033 69.338 L 56.033 69.338 L 56.033 69.338 Q 55.617 69.54 55.207 69.651 L 55.207 69.651 L 55.207 69.651 Q 54.797 69.763 54.586 69.651 L 54.586 69.651 L 54.586 69.651 Q 54.374 69.539 54.414 69.196 L 54.414 69.196 L 54.414 69.196 Q 54.454 68.853 54.917 68.112 L 54.917 68.112 L 54.917 68.112 Q 54.972 67.998 55.287 67.598 L 55.287 67.598 L 55.287 67.598 Q 55.603 67.198 55.964 66.738 L 55.964 66.738 L 55.964 66.738 Q 56.325 66.278 56.621 65.863 L 56.621 65.863 L 56.621 65.863 Q 56.917 65.448 56.971 65.334 L 56.971 65.334 L 56.971 65.334 Q 57.23 64.409 57.169 63.353 L 57.169 63.353 L 57.169 63.353 Q 57.107 62.296 56.963 61.163 L 56.963 61.163 L 56.963 61.163 Q 56.819 60.029 56.765 58.9 L 56.765 58.9 L 56.765 58.9 Q 56.711 57.772 56.99 56.738 L 56.99 56.738 L 56.99 56.738 Q 57.154 56.146 57.716 55.232 L 57.716 55.232 L 57.716 55.232 Q 58.278 54.317 59.022 53.43 L 59.022 53.43 L 59.022 53.43 Q 59.766 52.543 60.567 51.807 L 60.567 51.807 L 60.567 51.807 Q 61.367 51.072 61.991 50.841 L 61.991 50.841 L 61.991 50.841 Q 62.615 50.61 62.976 51.02 L 62.976 51.02 L 62.976 51.02 Q 63.336 51.43 63.206 52.763 L 63.206 52.763 L 63.206 52.763 Q 63.042 54.349 62.464 55.905 L 62.464 55.905 L 62.464 55.905 Q 61.887 57.461 61.252 58.989 L 61.252 58.989 L 61.252 58.989 Q 60.618 60.518 60.068 62.017 L 60.068 62.017 L 60.068 62.017 Q 59.518 63.515 59.408 64.987 L 59.408 64.987 L 59.408 64.987 Q 59.343 65.777 59.499 66.874 L 59.499 66.874 L 59.499 66.874 Q 59.655 67.97 60.052 69.014 L 60.052 69.014 L 60.052 69.014 Q 60.45 70.059 61.133 70.867 L 61.133 70.867 L 61.133 70.867 Q 61.816 71.675 62.84 71.884 L 62.84 71.884 L 62.84 71.884 Q 64.014 72.143 65.098 71.776 L 65.098 71.776 L 65.098 71.776 Q 66.182 71.408 67.159 70.665 L 67.159 70.665 L 67.159 70.665 Q 68.136 69.923 68.984 68.896 L 68.984 68.896 L 68.984 68.896 Q 69.833 67.87 70.534 66.811 L 70.534 66.811 L 70.534 66.811 Q 71.235 65.752 71.77 64.771 L 71.77 64.771 L 71.77 64.771 Q 72.305 63.789 72.668 63.098 L 72.668 63.098 L 73.349 63.64 L 73.349 63.64 Q 73.623 63.814 73.222 64.866 L 73.222 64.866 L 73.222 64.866 Q 72.821 65.917 71.971 67.299 L 71.971 67.299 L 71.971 67.299 Q 71.12 68.681 69.911 70.167 L 69.911 70.167 L 69.911 70.167 Q 68.702 71.653 67.347 72.734 L 67.347 72.734 L 67.347 72.734 Q 65.992 73.815 64.577 74.229 L 64.577 74.229 L 64.577 74.229 Q 63.163 74.644 61.885 73.902 Z  M 58.545 58.931 L 58.545 58.931 L 58.545 58.931 Q 58.535 59.11 58.58 59.547 L 58.58 59.547 L 58.58 59.547 Q 58.624 59.985 58.694 60.472 L 58.694 60.472 L 58.694 60.472 Q 58.763 60.96 58.84 61.375 L 58.84 61.375 L 58.84 61.375 Q 58.917 61.79 58.976 61.959 L 58.976 61.959 L 58.976 61.959 Q 59.817 59.886 60.485 57.589 L 60.485 57.589 L 60.485 57.589 Q 61.152 55.293 61.396 53.021 L 61.396 53.021 L 61.396 53.021 Q 60.636 53.413 60.073 54.079 L 60.073 54.079 L 60.073 54.079 Q 59.511 54.745 59.165 55.558 L 59.165 55.558 L 59.165 55.558 Q 58.82 56.371 58.678 57.243 L 58.678 57.243 L 58.678 57.243 Q 58.535 58.116 58.545 58.931 Z  M 75.598 71.949 L 75.598 71.949 L 75.598 71.949 Q 74.674 71.442 74.112 70.368 L 74.112 70.368 L 74.112 70.368 Q 73.551 69.293 73.392 68.304 L 73.392 68.304 L 73.392 68.304 Q 73.233 67.314 73.435 66.735 L 73.435 66.735 L 73.435 66.735 Q 73.637 66.156 74.198 66.609 L 74.198 66.609 L 74.198 66.609 Q 74.396 68.498 75.301 69.364 L 75.301 69.364 L 75.301 69.364 Q 76.205 70.229 77.337 70.317 L 77.337 70.317 L 77.337 70.317 Q 78.468 70.404 79.649 69.845 L 79.649 69.845 L 79.649 69.845 Q 80.83 69.286 81.601 68.342 L 81.601 68.342 L 81.601 68.342 Q 82.372 67.398 82.534 66.167 L 82.534 66.167 L 82.534 66.167 Q 82.696 64.937 81.806 63.679 L 81.806 63.679 L 81.806 63.679 Q 80.758 62.798 79.49 62.002 L 79.49 62.002 L 79.49 62.002 Q 78.223 61.206 76.94 60.43 L 76.94 60.43 L 76.94 60.43 Q 75.658 59.654 74.438 58.816 L 74.438 58.816 L 74.438 58.816 Q 73.217 57.977 72.223 56.983 L 72.223 56.983 L 72.223 56.983 Q 72.144 56.923 72.112 56.697 L 72.112 56.697 L 72.112 56.697 Q 72.079 56.47 72.139 56.391 L 72.139 56.391 L 72.139 56.391 Q 72.338 56.043 72.696 55.317 L 72.696 55.317 L 72.696 55.317 Q 73.055 54.591 73.527 53.672 L 73.527 53.672 L 73.527 53.672 Q 74 52.752 74.53 51.736 L 74.53 51.736 L 74.53 51.736 Q 75.06 50.719 75.533 49.8 L 75.533 49.8 L 75.533 49.8 Q 76.005 48.88 76.381 48.152 L 76.381 48.152 L 76.381 48.152 Q 76.757 47.424 76.956 47.076 L 76.956 47.076 L 76.956 47.076 Q 77.354 46.38 77.844 46.203 L 77.844 46.203 L 77.844 46.203 Q 78.333 46.027 79.308 46.137 L 79.308 46.137 L 79.308 46.137 Q 79.293 46.281 79.116 46.786 L 79.116 46.786 L 79.116 46.786 Q 78.939 47.29 78.855 47.444 L 78.855 47.444 L 78.855 47.444 Q 78.636 47.902 78.016 49.037 L 78.016 49.037 L 78.016 49.037 Q 77.397 50.173 76.693 51.463 L 76.693 51.463 L 76.693 51.463 Q 75.989 52.753 75.369 53.889 L 75.369 53.889 L 75.369 53.889 Q 74.75 55.025 74.491 55.452 L 74.491 55.452 L 74.491 55.452 Q 74.272 55.909 74.839 56.397 L 74.839 56.397 L 74.839 56.397 Q 75.405 56.884 76.41 57.452 L 76.41 57.452 L 76.41 57.452 Q 77.414 58.019 78.684 58.708 L 78.684 58.708 L 78.684 58.708 Q 79.954 59.397 81.119 60.225 L 81.119 60.225 L 81.119 60.225 Q 82.285 61.054 83.157 62.066 L 83.157 62.066 L 83.157 62.066 Q 84.029 63.078 84.262 64.341 L 84.262 64.341 L 84.262 64.341 Q 84.495 65.604 83.911 67.107 L 83.911 67.107 L 83.911 67.107 Q 83.326 68.611 81.53 70.465 L 81.53 70.465 L 81.53 70.465 Q 80.973 71.041 80.274 71.496 L 80.274 71.496 L 80.274 71.496 Q 79.576 71.951 78.793 72.187 L 78.793 72.187 L 78.793 72.187 Q 78.009 72.422 77.189 72.397 L 77.189 72.397 L 77.189 72.397 Q 76.369 72.372 75.598 71.949 Z  M 86.91 69.095 L 86.91 69.095 L 86.91 69.095 Q 86.821 68.966 86.659 68.58 L 86.659 68.58 L 86.659 68.58 Q 86.498 68.195 86.324 67.722 L 86.324 67.722 L 86.324 67.722 Q 86.15 67.25 86.016 66.808 L 86.016 66.808 L 86.016 66.808 Q 85.882 66.365 85.852 66.156 L 85.852 66.156 L 83.443 49.241 L 83.443 49.241 Q 83.393 48.893 83.687 48.709 L 83.687 48.709 L 83.687 48.709 Q 83.98 48.525 84.378 48.451 L 84.378 48.451 L 84.378 48.451 Q 84.776 48.376 85.111 48.364 L 85.111 48.364 L 85.111 48.364 Q 85.447 48.352 85.482 48.347 L 85.482 48.347 L 88.149 67.072 L 88.149 67.072 Q 88.233 67.664 88.671 67.992 L 88.671 67.992 L 88.671 67.992 Q 89.108 68.32 89.662 68.472 L 89.662 68.472 L 89.662 68.472 Q 90.217 68.624 90.781 68.597 L 90.781 68.597 L 90.781 68.597 Q 91.345 68.57 91.713 68.411 L 91.713 68.411 L 91.713 68.411 Q 92.305 69.072 91.862 69.579 L 91.862 69.579 L 91.862 69.579 Q 91.419 70.086 90.504 70.27 L 90.504 70.27 L 90.504 70.27 Q 89.59 70.453 88.541 70.194 L 88.541 70.194 L 88.541 70.194 Q 87.492 69.935 86.91 69.095 Z  M 81.989 43.269 L 81.989 43.269 L 81.989 43.269 Q 81.845 42.26 82.603 41.85 L 82.603 41.85 L 82.603 41.85 Q 83.362 41.44 84.252 41.704 L 84.252 41.704 L 84.514 43.549 L 84.514 43.549 Q 84.415 43.598 84.156 43.653 L 84.156 43.653 L 84.156 43.653 Q 83.898 43.707 83.602 43.75 L 83.602 43.75 L 83.602 43.75 Q 83.306 43.792 83.043 43.812 L 83.043 43.812 L 83.043 43.812 Q 82.779 43.831 82.67 43.811 L 82.67 43.811 L 82.67 43.811 Q 82.525 43.796 82.265 43.585 L 82.265 43.585 L 82.265 43.585 Q 82.004 43.374 81.989 43.269 Z  M 100.986 79.412 L 100.986 79.412 L 100.986 79.412 Q 99.754 78.487 99.476 76.911 L 99.476 76.911 L 99.476 76.911 Q 99.198 75.335 99.53 73.423 L 99.53 73.423 L 99.53 73.423 Q 99.861 71.512 100.632 69.449 L 100.632 69.449 L 100.632 69.449 Q 101.404 67.386 102.262 65.434 L 102.262 65.434 L 102.262 65.434 Q 103.121 63.483 103.862 61.833 L 103.862 61.833 L 103.862 61.833 Q 104.604 60.183 104.917 59.144 L 104.917 59.144 L 104.917 59.144 Q 105.082 58.552 104.814 57.543 L 104.814 57.543 L 104.814 57.543 Q 104.546 56.533 104.133 55.509 L 104.133 55.509 L 104.133 55.509 Q 103.721 54.485 103.301 53.657 L 103.301 53.657 L 103.301 53.657 Q 102.882 52.829 102.747 52.635 L 102.747 52.635 L 102.245 53.345 L 97.233 65.778 L 97.233 65.778 Q 97.174 65.857 96.972 66.064 L 96.972 66.064 L 96.972 66.064 Q 96.771 66.27 96.517 66.484 L 96.517 66.484 L 96.517 66.484 Q 96.263 66.697 95.992 66.914 L 95.992 66.914 L 95.992 66.914 Q 95.721 67.13 95.592 67.219 L 95.592 67.219 L 95.592 67.219 Q 94.543 67.83 93.924 67.35 L 93.924 67.35 L 93.924 67.35 Q 93.305 66.87 93.112 65.637 L 93.112 65.637 L 93.112 65.637 Q 92.918 64.404 93.068 62.589 L 93.068 62.589 L 93.068 62.589 Q 93.218 60.775 93.689 58.719 L 93.689 58.719 L 93.689 58.719 Q 94.159 56.663 94.886 54.536 L 94.886 54.536 L 94.886 54.536 Q 95.613 52.408 96.573 50.549 L 96.573 50.549 L 96.573 50.549 Q 97.534 48.69 98.665 47.286 L 98.665 47.286 L 98.665 47.286 Q 99.797 45.882 101.06 45.276 L 101.06 45.276 L 101.06 45.276 Q 101.751 45.39 101.815 45.718 L 101.815 45.718 L 101.815 45.718 Q 101.88 46.047 101.572 46.499 L 101.572 46.499 L 101.572 46.499 Q 101.263 46.951 100.718 47.49 L 100.718 47.49 L 100.718 47.49 Q 100.174 48.03 99.592 48.556 L 99.592 48.556 L 99.592 48.556 Q 99.01 49.083 98.525 49.543 L 98.525 49.543 L 98.525 49.543 Q 98.04 50.003 97.906 50.306 L 97.906 50.306 L 97.906 50.306 Q 97.333 52.269 96.661 54.034 L 96.661 54.034 L 96.661 54.034 Q 95.989 55.799 95.509 57.536 L 95.509 57.536 L 95.509 57.536 Q 95.028 59.274 94.891 61.051 L 94.891 61.051 L 94.891 61.051 Q 94.753 62.829 95.25 64.818 L 95.25 64.818 L 95.752 64.107 L 95.752 64.107 Q 96.822 62.392 97.583 60.259 L 97.583 60.259 L 97.583 60.259 Q 98.345 58.127 98.93 56.002 L 98.93 56.002 L 98.93 56.002 Q 99.515 53.876 99.986 51.945 L 99.986 51.945 L 99.986 51.945 Q 100.456 50.014 100.909 48.706 L 100.909 48.706 L 100.909 48.706 Q 101.362 47.399 101.895 46.897 L 101.895 46.897 L 101.895 46.897 Q 102.427 46.395 103.12 47.148 L 103.12 47.148 L 103.12 47.148 Q 103.813 47.902 104.767 50.11 L 104.767 50.11 L 104.767 50.11 Q 105.721 52.318 107.007 56.36 L 107.007 56.36 L 107.007 56.36 Q 107.161 56.196 107.614 55.759 L 107.614 55.759 L 107.614 55.759 Q 108.066 55.322 108.586 54.857 L 108.586 54.857 L 108.586 54.857 Q 109.106 54.392 109.581 53.987 L 109.581 53.987 L 109.581 53.987 Q 110.056 53.582 110.25 53.448 L 110.25 53.448 L 110.25 53.448 Q 110.414 53.354 110.866 53.289 L 110.866 53.289 L 110.866 53.289 Q 111.319 53.225 111.468 53.275 L 111.468 53.275 L 111.468 53.275 Q 111.418 53.921 110.89 54.831 L 110.89 54.831 L 110.89 54.831 Q 110.363 55.74 109.719 56.578 L 109.719 56.578 L 109.719 56.578 Q 109.075 57.415 108.525 58.044 L 108.525 58.044 L 108.525 58.044 Q 107.975 58.673 107.945 58.712 L 107.945 58.712 L 107.945 58.712 Q 107.995 59.06 108.077 59.759 L 108.077 59.759 L 108.077 59.759 Q 108.159 60.458 108.235 61.37 L 108.235 61.37 L 108.235 61.37 Q 108.312 62.282 108.381 63.267 L 108.381 63.267 L 108.381 63.267 Q 108.45 64.251 108.51 65.166 L 108.51 65.166 L 108.51 65.166 Q 108.569 66.081 108.598 66.787 L 108.598 66.787 L 108.643 67.846 L 108.643 67.846 Q 108.638 68.308 108.374 69.571 L 108.374 69.571 L 108.374 69.571 Q 108.11 70.834 107.661 72.425 L 107.661 72.425 L 107.661 72.425 Q 107.213 74.015 106.556 75.636 L 106.556 75.636 L 106.556 75.636 Q 105.899 77.257 105.066 78.387 L 105.066 78.387 L 105.066 78.387 Q 104.233 79.518 103.206 79.913 L 103.206 79.913 L 103.206 79.913 Q 102.179 80.308 100.986 79.412 Z  M 101.973 73.128 L 101.973 73.128 L 101.973 73.128 Q 101.978 73.412 102.057 74.093 L 102.057 74.093 L 102.057 74.093 Q 102.137 74.774 102.246 75.54 L 102.246 75.54 L 102.246 75.54 Q 102.355 76.305 102.471 76.999 L 102.471 76.999 L 102.471 76.999 Q 102.588 77.693 102.658 77.931 L 102.658 77.931 L 102.658 77.931 Q 104.393 76.903 105.353 74.92 L 105.353 74.92 L 105.353 74.92 Q 106.314 72.936 106.626 70.637 L 106.626 70.637 L 106.626 70.637 Q 106.937 68.337 106.732 66.023 L 106.732 66.023 L 106.732 66.023 Q 106.526 63.708 105.935 62.053 L 105.935 62.053 L 105.935 62.053 Q 105.045 63.032 104.316 64.396 L 104.316 64.396 L 104.316 64.396 Q 103.587 65.761 103.057 67.274 L 103.057 67.274 L 103.057 67.274 Q 102.527 68.788 102.248 70.319 L 102.248 70.319 L 102.248 70.319 Q 101.969 71.851 101.973 73.128 Z  M 114.058 66.471 L 114.058 66.471 L 114.058 66.471 Q 114.028 66.014 113.869 64.9 L 113.869 64.9 L 113.195 60.166 L 113.195 60.166 Q 113.036 59.053 112.937 58.605 L 112.937 58.605 L 112.937 58.605 Q 112.873 58.401 112.686 57.717 L 112.686 57.717 L 112.686 57.717 Q 112.5 57.034 112.245 56.111 L 112.245 56.111 L 112.245 56.111 Q 111.989 55.189 111.701 54.165 L 111.701 54.165 L 111.701 54.165 Q 111.413 53.14 111.14 52.22 L 111.14 52.22 L 111.14 52.22 Q 110.867 51.301 110.681 50.617 L 110.681 50.617 L 110.681 50.617 Q 110.495 49.933 110.425 49.694 L 110.425 49.694 L 110.425 49.694 Q 110.286 49.217 110.229 48.693 L 110.229 48.693 L 110.229 48.693 Q 110.172 48.168 110.292 47.76 L 110.292 47.76 L 110.292 47.76 Q 110.411 47.353 110.772 47.142 L 110.772 47.142 L 110.772 47.142 Q 111.132 46.93 111.898 47.07 L 111.898 47.07 L 111.898 47.07 Q 112.037 47.796 112.265 48.775 L 112.265 48.775 L 112.265 48.775 Q 112.493 49.755 112.786 50.814 L 112.786 50.814 L 112.786 50.814 Q 113.079 51.873 113.437 52.888 L 113.437 52.888 L 113.437 52.888 Q 113.794 53.902 114.231 54.727 L 114.231 54.727 L 114.231 54.727 Q 114.501 53.375 114.794 52.321 L 114.794 52.321 L 114.794 52.321 Q 115.088 51.267 115.526 50.353 L 115.526 50.353 L 115.526 50.353 Q 115.964 49.438 116.553 48.591 L 116.553 48.591 L 116.553 48.591 Q 117.143 47.743 118.003 46.804 L 118.003 46.804 L 118.003 46.804 Q 119.078 45.621 119.923 45.696 L 119.923 45.696 L 119.923 45.696 Q 120.768 45.771 121.449 46.686 L 121.449 46.686 L 121.449 46.686 Q 122.13 47.601 122.701 49.118 L 122.701 49.118 L 122.701 49.118 Q 123.272 50.634 123.801 52.352 L 123.801 52.352 L 123.801 52.352 Q 124.33 54.07 124.866 55.716 L 124.866 55.716 L 124.866 55.716 Q 125.402 57.362 126.031 58.533 L 126.031 58.533 L 126.031 58.533 Q 126.659 59.704 127.42 60.182 L 127.42 60.182 L 127.42 60.182 Q 128.18 60.66 129.15 59.989 L 129.15 59.989 L 129.15 59.989 Q 129.597 60.884 129.433 61.351 L 129.433 61.351 L 129.433 61.351 Q 129.268 61.818 128.736 61.948 L 128.736 61.948 L 128.736 61.948 Q 128.204 62.077 127.426 61.85 L 127.426 61.85 L 127.426 61.85 Q 126.648 61.624 125.853 61.151 L 125.853 61.151 L 125.853 61.151 Q 125.058 60.678 124.387 59.957 L 124.387 59.957 L 124.387 59.957 Q 123.716 59.236 123.378 58.361 L 123.378 58.361 L 123.378 58.361 Q 123.15 57.754 122.842 56.342 L 122.842 56.342 L 122.842 56.342 Q 122.534 54.93 122.093 53.324 L 122.093 53.324 L 122.093 53.324 Q 121.651 51.718 120.99 50.196 L 120.99 50.196 L 120.99 50.196 Q 120.329 48.674 119.395 47.849 L 119.395 47.849 L 117.296 50.562 L 117.296 50.562 Q 117.211 50.716 116.97 51.887 L 116.97 51.887 L 116.97 51.887 Q 116.728 53.058 116.446 54.572 L 116.446 54.572 L 116.446 54.572 Q 116.165 56.086 115.923 57.629 L 115.923 57.629 L 115.923 57.629 Q 115.681 59.173 115.602 60.108 L 115.602 60.108 L 115.602 60.108 Q 115.577 60.431 115.594 61.298 L 115.594 61.298 L 115.594 61.298 Q 115.611 62.166 115.645 63.155 L 115.645 63.155 L 115.645 63.155 Q 115.679 64.145 115.749 65.005 L 115.749 65.005 L 115.749 65.005 Q 115.818 65.865 115.868 66.213 L 115.868 66.213 L 115.868 66.213 Q 115.643 66.884 115.052 66.969 L 115.052 66.969 L 115.052 66.969 Q 114.46 67.053 114.058 66.471 Z " fill="rgb(0,0,0)"/><path d=" M 38.764 128.467 L 37.302 118.199 L 37.302 118.199 Q 37.088 118.443 36.615 118.99 L 36.615 118.99 L 36.615 118.99 Q 36.143 119.536 35.531 120.103 L 35.531 120.103 L 35.531 120.103 Q 34.919 120.669 34.211 121.054 L 34.211 121.054 L 34.211 121.054 Q 33.502 121.44 32.811 121.325 L 32.811 121.325 L 32.811 121.325 Q 32.518 121.26 32.331 121.074 L 32.331 121.074 L 32.331 121.074 Q 32.145 120.887 32.055 120.633 L 32.055 120.633 L 32.055 120.633 Q 31.966 120.38 31.944 120.099 L 31.944 120.099 L 31.944 120.099 Q 31.922 119.818 31.956 119.564 L 31.956 119.564 L 37.775 115.042 L 36.313 104.775 L 36.313 104.775 Q 36.268 104.462 36.629 104.251 L 36.629 104.251 L 36.629 104.251 Q 36.989 104.039 37.442 103.975 L 37.442 103.975 L 37.442 103.975 Q 37.894 103.911 38.299 104.013 L 38.299 104.013 L 38.299 104.013 Q 38.705 104.115 38.749 104.428 L 38.749 104.428 L 39.954 112.886 L 39.954 112.886 Q 41.307 111.912 42.555 110.58 L 42.555 110.58 L 42.555 110.58 Q 43.804 109.248 44.654 107.866 L 44.654 107.866 L 44.654 107.866 Q 45.505 106.484 45.789 105.236 L 45.789 105.236 L 45.789 105.236 Q 46.073 103.988 45.494 103.165 L 45.494 103.165 L 45.494 103.165 Q 44.915 102.342 43.304 102.128 L 43.304 102.128 L 43.304 102.128 Q 41.694 101.913 38.77 102.578 L 38.77 102.578 L 38.77 102.578 Q 38.153 102.737 37.223 103.189 L 37.223 103.189 L 37.223 103.189 Q 36.293 103.641 35.209 104.258 L 35.209 104.258 L 35.209 104.258 Q 34.125 104.874 32.994 105.532 L 32.994 105.532 L 32.994 105.532 Q 31.862 106.19 30.841 106.744 L 30.841 106.744 L 30.841 106.744 Q 29.819 107.298 29.011 107.608 L 29.011 107.608 L 29.011 107.608 Q 28.203 107.919 27.8 107.834 L 27.8 107.834 L 27.8 107.834 Q 27.82 107.228 28.136 106.703 L 28.136 106.703 L 28.136 106.703 Q 28.452 106.179 28.937 105.719 L 28.937 105.719 L 28.937 105.719 Q 29.422 105.259 29.974 104.897 L 29.974 104.897 L 29.974 104.897 Q 30.526 104.534 31.023 104.286 L 31.023 104.286 L 31.023 104.286 Q 33.047 103.287 34.509 102.582 L 34.509 102.582 L 34.509 102.582 Q 35.971 101.876 37.415 101.422 L 37.415 101.422 L 37.415 101.422 Q 38.86 100.968 40.533 100.747 L 40.533 100.747 L 40.533 100.747 Q 42.206 100.526 44.652 100.498 L 44.652 100.498 L 44.652 100.498 Q 46.671 100.707 47.538 101.436 L 47.538 101.436 L 47.538 101.436 Q 48.405 102.165 48.45 103.224 L 48.45 103.224 L 48.45 103.224 Q 48.494 104.283 47.894 105.558 L 47.894 105.558 L 47.894 105.558 Q 47.295 106.833 46.365 108.155 L 46.365 108.155 L 46.365 108.155 Q 45.434 109.477 44.323 110.772 L 44.323 110.772 L 44.323 110.772 Q 43.211 112.067 42.261 113.125 L 42.261 113.125 L 42.261 113.125 Q 41.311 114.184 40.691 114.947 L 40.691 114.947 L 40.691 114.947 Q 40.072 115.71 40.072 115.958 L 40.072 115.958 L 40.401 126.991 L 40.231 127.299 L 40.231 127.299 Q 40.092 127.567 39.868 127.866 L 39.868 127.866 L 39.868 127.866 Q 39.644 128.164 39.339 128.385 L 39.339 128.385 L 39.339 128.385 Q 39.033 128.606 38.764 128.467 L 38.764 128.467 L 38.764 128.467 Z  M 53.613 110.549 L 55.764 125.655 L 55.764 125.655 Q 55.371 126.883 54.991 126.955 L 54.991 126.955 L 54.991 126.955 Q 54.61 127.027 54.238 126.281 L 54.238 126.281 L 54.238 126.281 Q 53.865 125.535 53.505 124.13 L 53.505 124.13 L 53.505 124.13 Q 53.145 122.725 52.845 120.992 L 52.845 120.992 L 52.845 120.992 Q 52.545 119.26 52.307 117.34 L 52.307 117.34 L 52.307 117.34 Q 52.069 115.421 51.903 113.634 L 51.903 113.634 L 51.903 113.634 Q 51.738 111.846 51.666 110.347 L 51.666 110.347 L 51.666 110.347 Q 51.595 108.848 51.63 107.973 L 51.63 107.973 L 51.63 107.973 Q 51.665 107.098 51.829 107.004 L 51.829 107.004 L 51.829 107.004 Q 51.993 106.909 52.311 107.894 L 52.311 107.894 L 52.311 107.894 Q 53.306 106.9 54.487 105.968 L 54.487 105.968 L 54.487 105.968 Q 55.668 105.036 56.971 104.336 L 56.971 104.336 L 56.971 104.336 Q 58.274 103.635 59.664 103.295 L 59.664 103.295 L 59.664 103.295 Q 61.054 102.955 62.431 103.15 L 62.431 103.15 L 62.431 103.15 Q 62.634 103.583 62.614 104.189 L 62.614 104.189 L 62.614 104.189 Q 62.594 104.796 62.062 105.049 L 62.062 105.049 L 62.062 105.049 Q 61.49 105.024 60.585 105.153 L 60.585 105.153 L 60.585 105.153 Q 59.68 105.282 58.691 105.565 L 58.691 105.565 L 58.691 105.565 Q 57.701 105.848 56.737 106.305 L 56.737 106.305 L 56.737 106.305 Q 55.772 106.762 55.026 107.383 L 55.026 107.383 L 55.026 107.383 Q 54.28 108.004 53.877 108.789 L 53.877 108.789 L 53.877 108.789 Q 53.474 109.575 53.613 110.549 L 53.613 110.549 L 53.613 110.549 Z  M 70.318 122.126 L 70.318 122.126 L 70.318 122.126 Q 69.265 120.962 68.865 119.403 L 68.865 119.403 L 68.865 119.403 Q 68.465 117.844 68.392 116.079 L 68.392 116.079 L 68.392 116.079 Q 68.318 114.314 68.448 112.485 L 68.448 112.485 L 68.448 112.485 Q 68.578 110.655 68.621 108.962 L 68.621 108.962 L 68.621 108.962 Q 68.664 107.269 68.493 105.82 L 68.493 105.82 L 68.493 105.82 Q 68.322 104.37 67.651 103.401 L 67.651 103.401 L 67.651 103.401 Q 67.293 102.883 66.826 102.968 L 66.826 102.968 L 66.826 102.968 Q 66.358 103.052 65.836 103.251 L 65.836 103.251 L 65.836 103.251 Q 65.314 103.449 64.77 103.491 L 64.77 103.491 L 64.77 103.491 Q 64.225 103.533 63.718 102.966 L 63.718 102.966 L 63.718 102.966 Q 63.733 102.822 63.927 102.564 L 63.927 102.564 L 63.927 102.564 Q 64.121 102.305 64.221 102.256 L 64.221 102.256 L 64.221 102.256 Q 67.289 101.357 69.551 102.153 L 69.551 102.153 L 69.551 102.153 Q 71.813 102.95 73.351 104.773 L 73.351 104.773 L 73.351 104.773 Q 74.889 106.596 75.725 109.104 L 75.725 109.104 L 75.725 109.104 Q 76.562 111.613 76.785 114.173 L 76.785 114.173 L 76.785 114.173 Q 77.008 116.734 76.656 119.003 L 76.656 119.003 L 76.656 119.003 Q 76.305 121.273 75.464 122.6 L 75.464 122.6 L 75.464 122.6 Q 74.623 123.927 73.315 123.971 L 73.315 123.971 L 73.315 123.971 Q 72.008 124.016 70.318 122.126 Z  M 71.955 120.65 L 71.955 120.65 L 71.955 120.65 Q 72.004 120.749 72.203 120.898 L 72.203 120.898 L 72.203 120.898 Q 72.402 121.048 72.623 121.229 L 72.623 121.229 L 72.623 121.229 Q 72.844 121.411 73.041 121.543 L 73.041 121.543 L 73.041 121.543 Q 73.237 121.674 73.311 121.699 L 73.311 121.699 L 73.311 121.699 Q 74.495 120.785 74.943 119.443 L 74.943 119.443 L 74.943 119.443 Q 75.391 118.101 75.295 116.552 L 75.295 116.552 L 75.295 116.552 Q 75.198 115.003 74.697 113.352 L 74.697 113.352 L 74.697 113.352 Q 74.196 111.701 73.485 110.204 L 73.485 110.204 L 73.485 110.204 Q 72.775 108.708 71.942 107.477 L 71.942 107.477 L 71.942 107.477 Q 71.11 106.246 70.4 105.495 L 70.4 105.495 L 70.4 105.495 Q 70.429 105.952 70.459 106.907 L 70.459 106.907 L 70.459 106.907 Q 70.488 107.862 70.552 109.06 L 70.552 109.06 L 70.552 109.06 Q 70.616 110.258 70.666 111.6 L 70.666 111.6 L 70.666 111.6 Q 70.715 112.943 70.764 114.161 L 70.764 114.161 L 70.764 114.161 Q 70.813 115.379 70.843 116.334 L 70.843 116.334 L 70.843 116.334 Q 70.872 117.288 70.902 117.746 L 70.902 117.746 L 70.902 117.746 Q 70.916 118.099 71.031 118.526 L 71.031 118.526 L 71.031 118.526 Q 71.145 118.954 71.309 119.357 L 71.309 119.357 L 71.309 119.357 Q 71.473 119.76 71.646 120.108 L 71.646 120.108 L 71.646 120.108 Q 71.82 120.456 71.955 120.65 Z  M 80.149 143.524 L 80.149 143.524 L 80.149 143.524 Q 79.528 142.902 79.22 141.987 L 79.22 141.987 L 79.22 141.987 Q 78.912 141.072 78.838 140.053 L 78.838 140.053 L 78.838 140.053 Q 78.763 139.033 78.853 138.044 L 78.853 138.044 L 78.853 138.044 Q 78.943 137.055 79.118 136.284 L 79.118 136.284 L 79.118 136.284 Q 79.197 135.847 79.389 134.949 L 79.389 134.949 L 79.389 134.949 Q 79.581 134.052 79.845 132.913 L 79.845 132.913 L 79.845 132.913 Q 80.109 131.775 80.393 130.527 L 80.393 130.527 L 80.393 130.527 Q 80.677 129.279 80.96 128.156 L 80.96 128.156 L 80.96 128.156 Q 81.244 127.032 81.473 126.147 L 81.473 126.147 L 81.817 124.82 L 81.817 124.82 Q 81.758 123.408 81.433 122.123 L 81.433 122.123 L 81.433 122.123 Q 81.108 120.837 80.651 119.624 L 80.651 119.624 L 80.651 119.624 Q 80.194 118.411 79.632 117.212 L 79.632 117.212 L 79.632 117.212 Q 79.071 116.014 78.505 114.781 L 78.505 114.781 L 78.505 114.781 Q 78.301 114.348 78.45 114.025 L 78.45 114.025 L 78.45 114.025 Q 78.6 113.702 78.901 113.57 L 78.901 113.57 L 78.901 113.57 Q 79.201 113.439 79.584 113.508 L 79.584 113.508 L 79.584 113.508 Q 79.967 113.578 80.265 113.926 L 80.265 113.926 L 80.265 113.926 Q 80.956 114.787 81.371 115.704 L 81.371 115.704 L 81.371 115.704 Q 81.786 116.622 82.136 117.584 L 82.136 117.584 L 82.136 117.584 Q 82.486 118.546 82.838 119.526 L 82.838 119.526 L 82.838 119.526 Q 83.191 120.505 83.752 121.455 L 83.752 121.455 L 83.752 121.455 Q 84.091 121.087 84.842 120.252 L 84.842 120.252 L 84.842 120.252 Q 85.593 119.417 86.558 118.587 L 86.558 118.587 L 86.558 118.587 Q 87.523 117.757 88.559 117.184 L 88.559 117.184 L 88.559 117.184 Q 89.596 116.61 90.506 116.764 L 90.506 116.764 L 90.506 116.764 Q 90.615 116.784 90.891 116.976 L 90.891 116.976 L 90.891 116.976 Q 91.167 117.167 91.222 117.302 L 91.222 117.302 L 91.222 117.302 Q 91.008 117.794 90.406 118.306 L 90.406 118.306 L 90.406 118.306 Q 89.804 118.817 89.013 119.374 L 89.013 119.374 L 89.013 119.374 Q 88.223 119.93 87.377 120.477 L 87.377 120.477 L 87.377 120.477 Q 86.532 121.024 85.848 121.583 L 85.848 121.583 L 85.848 121.583 Q 85.164 122.142 84.749 122.716 L 84.749 122.716 L 84.749 122.716 Q 84.333 123.29 84.408 123.812 L 84.408 123.812 L 86.217 136.516 L 86.217 136.516 Q 86.297 137.073 86.135 138.054 L 86.135 138.054 L 86.135 138.054 Q 85.973 139.036 85.614 140.135 L 85.614 140.135 L 85.614 140.135 Q 85.256 141.234 84.708 142.253 L 84.708 142.253 L 84.708 142.253 Q 84.161 143.272 83.447 143.87 L 83.447 143.87 L 83.447 143.87 Q 82.734 144.469 81.898 144.464 L 81.898 144.464 L 81.898 144.464 Q 81.063 144.459 80.149 143.524 Z  M 81.101 137.244 L 81.101 137.244 L 81.101 137.244 Q 81.106 137.528 81.185 138.209 L 81.185 138.209 L 81.185 138.209 Q 81.264 138.89 81.373 139.656 L 81.373 139.656 L 81.373 139.656 Q 81.482 140.422 81.599 141.115 L 81.599 141.115 L 81.599 141.115 Q 81.716 141.809 81.785 142.048 L 81.785 142.048 L 81.785 142.048 Q 81.86 142.072 82.086 142.04 L 82.086 142.04 L 82.086 142.04 Q 82.312 142.008 82.377 141.963 L 82.377 141.963 L 82.377 141.963 Q 82.894 141.606 83.195 140.604 L 83.195 140.604 L 83.195 140.604 Q 83.496 139.602 83.663 138.531 L 83.663 138.531 L 83.663 138.531 Q 83.83 137.459 83.9 136.579 L 83.9 136.579 L 83.9 136.579 Q 83.97 135.699 83.955 135.595 L 83.955 135.595 L 83.955 135.595 Q 83.931 135.172 83.802 134.143 L 83.802 134.143 L 83.802 134.143 Q 83.673 133.114 83.507 131.948 L 83.507 131.948 L 83.507 131.948 Q 83.341 130.782 83.177 129.758 L 83.177 129.758 L 83.177 129.758 Q 83.014 128.733 82.919 128.321 L 82.919 128.321 L 82.919 128.321 Q 82.088 130.463 81.518 132.693 L 81.518 132.693 L 81.518 132.693 Q 80.948 134.923 81.101 137.244 Z  M 78.887 104.25 L 78.887 104.25 L 78.887 104.25 Q 78.579 103.833 78.793 103.465 L 78.793 103.465 L 78.793 103.465 Q 79.007 103.097 79.444 102.928 L 79.444 102.928 L 79.444 102.928 Q 79.882 102.759 80.389 102.829 L 80.389 102.829 L 80.389 102.829 Q 80.896 102.899 81.164 103.287 L 81.164 103.287 L 81.164 103.287 Q 81.438 103.71 81.219 104.043 L 81.219 104.043 L 81.219 104.043 Q 81 104.376 80.562 104.544 L 80.562 104.544 L 80.562 104.544 Q 80.125 104.713 79.64 104.676 L 79.64 104.676 L 79.64 104.676 Q 79.155 104.638 78.887 104.25 Z  M 95.377 119.799 L 95.377 119.799 L 95.377 119.799 Q 93.752 118.859 92.678 117.431 L 92.678 117.431 L 92.678 117.431 Q 91.605 116.004 90.9 114.293 L 90.9 114.293 L 90.9 114.293 Q 90.716 114.497 90.328 114.766 L 90.328 114.766 L 90.328 114.766 Q 89.94 115.034 89.525 115.235 L 89.525 115.235 L 89.525 115.235 Q 89.11 115.436 88.699 115.548 L 88.699 115.548 L 88.699 115.548 Q 88.289 115.66 88.078 115.548 L 88.078 115.548 L 88.078 115.548 Q 87.867 115.436 87.906 115.093 L 87.906 115.093 L 87.906 115.093 Q 87.946 114.75 88.409 114.009 L 88.409 114.009 L 88.409 114.009 Q 88.464 113.895 88.78 113.495 L 88.78 113.495 L 88.78 113.495 Q 89.096 113.095 89.456 112.635 L 89.456 112.635 L 89.456 112.635 Q 89.817 112.175 90.113 111.76 L 90.113 111.76 L 90.113 111.76 Q 90.409 111.345 90.464 111.231 L 90.464 111.231 L 90.464 111.231 Q 90.722 110.306 90.661 109.249 L 90.661 109.249 L 90.661 109.249 Q 90.599 108.193 90.455 107.059 L 90.455 107.059 L 90.455 107.059 Q 90.312 105.926 90.257 104.797 L 90.257 104.797 L 90.257 104.797 Q 90.203 103.668 90.482 102.634 L 90.482 102.634 L 90.482 102.634 Q 90.646 102.043 91.208 101.128 L 91.208 101.128 L 91.208 101.128 Q 91.771 100.214 92.514 99.326 L 92.514 99.326 L 92.514 99.326 Q 93.258 98.439 94.059 97.704 L 94.059 97.704 L 94.059 97.704 Q 94.86 96.968 95.484 96.737 L 95.484 96.737 L 95.484 96.737 Q 96.108 96.506 96.468 96.917 L 96.468 96.917 L 96.468 96.917 Q 96.828 97.327 96.698 98.659 L 96.698 98.659 L 96.698 98.659 Q 96.534 100.245 95.956 101.801 L 95.956 101.801 L 95.956 101.801 Q 95.379 103.357 94.744 104.886 L 94.744 104.886 L 94.744 104.886 Q 94.11 106.414 93.56 107.913 L 93.56 107.913 L 93.56 107.913 Q 93.01 109.412 92.9 110.884 L 92.9 110.884 L 92.9 110.884 Q 92.835 111.674 92.991 112.77 L 92.991 112.77 L 92.991 112.77 Q 93.147 113.867 93.545 114.911 L 93.545 114.911 L 93.545 114.911 Q 93.942 115.955 94.625 116.764 L 94.625 116.764 L 94.625 116.764 Q 95.309 117.572 96.333 117.781 L 96.333 117.781 L 96.333 117.781 Q 97.506 118.04 98.59 117.672 L 98.59 117.672 L 98.59 117.672 Q 99.674 117.305 100.651 116.562 L 100.651 116.562 L 100.651 116.562 Q 101.628 115.819 102.477 114.793 L 102.477 114.793 L 102.477 114.793 Q 103.325 113.767 104.026 112.708 L 104.026 112.708 L 104.026 112.708 Q 104.728 111.649 105.262 110.667 L 105.262 110.667 L 105.262 110.667 Q 105.797 109.686 106.161 108.995 L 106.161 108.995 L 106.842 109.537 L 106.842 109.537 Q 107.115 109.711 106.714 110.762 L 106.714 110.762 L 106.714 110.762 Q 106.314 111.814 105.463 113.196 L 105.463 113.196 L 105.463 113.196 Q 104.612 114.577 103.403 116.064 L 103.403 116.064 L 103.403 116.064 Q 102.195 117.55 100.839 118.63 L 100.839 118.63 L 100.839 118.63 Q 99.484 119.711 98.069 120.126 L 98.069 120.126 L 98.069 120.126 Q 96.655 120.54 95.377 119.799 Z  M 92.037 104.828 L 92.037 104.828 L 92.037 104.828 Q 92.027 105.007 92.072 105.444 L 92.072 105.444 L 92.072 105.444 Q 92.116 105.882 92.186 106.369 L 92.186 106.369 L 92.186 106.369 Q 92.255 106.856 92.332 107.271 L 92.332 107.271 L 92.332 107.271 Q 92.409 107.686 92.469 107.856 L 92.469 107.856 L 92.469 107.856 Q 93.31 105.783 93.977 103.486 L 93.977 103.486 L 93.977 103.486 Q 94.644 101.189 94.889 98.917 L 94.889 98.917 L 94.889 98.917 Q 94.128 99.31 93.566 99.976 L 93.566 99.976 L 93.566 99.976 Q 93.004 100.642 92.658 101.454 L 92.658 101.454 L 92.658 101.454 Q 92.312 102.267 92.17 103.14 L 92.17 103.14 L 92.17 103.14 Q 92.028 104.012 92.037 104.828 Z  M 109.314 117.175 L 109.314 117.175 L 109.314 117.175 Q 107.888 116.384 107.118 115.091 L 107.118 115.091 L 107.118 115.091 Q 106.348 113.798 106.065 112.187 L 106.065 112.187 L 106.065 112.187 Q 105.782 110.576 105.939 108.813 L 105.939 108.813 L 105.939 108.813 Q 106.097 107.051 106.53 105.355 L 106.53 105.355 L 106.53 105.355 Q 106.963 103.66 107.585 102.169 L 107.585 102.169 L 107.585 102.169 Q 108.207 100.678 108.906 99.602 L 108.906 99.602 L 108.906 99.602 Q 109.605 98.525 110.279 98.021 L 110.279 98.021 L 110.279 98.021 Q 110.953 97.517 111.455 97.8 L 111.455 97.8 L 111.455 97.8 Q 111.579 98.173 111.917 99.173 L 111.917 99.173 L 111.917 99.173 Q 112.255 100.172 112.612 101.311 L 112.612 101.311 L 112.612 101.311 Q 112.97 102.45 113.273 103.454 L 113.273 103.454 L 113.273 103.454 Q 113.575 104.458 113.7 104.831 L 113.7 104.831 L 113.7 104.831 Q 113.834 105.274 113.871 105.784 L 113.871 105.784 L 113.871 105.784 Q 113.908 106.293 113.791 106.718 L 113.791 106.718 L 113.791 106.718 Q 113.674 107.143 113.301 107.392 L 113.301 107.392 L 113.301 107.392 Q 112.928 107.64 112.237 107.526 L 112.237 107.526 L 112.237 107.526 Q 112.167 107.287 111.926 106.717 L 111.926 106.717 L 111.926 106.717 Q 111.685 106.148 111.397 105.497 L 111.397 105.497 L 111.397 105.497 Q 111.109 104.845 110.831 104.263 L 110.831 104.263 L 110.831 104.263 Q 110.553 103.682 110.449 103.448 L 110.449 103.448 L 109.773 102.94 L 109.773 102.94 Q 108.798 103.825 108.278 105.284 L 108.278 105.284 L 108.278 105.284 Q 107.757 106.743 107.67 108.371 L 107.67 108.371 L 107.67 108.371 Q 107.582 110 107.964 111.561 L 107.964 111.561 L 107.964 111.561 Q 108.347 113.122 109.161 114.231 L 109.161 114.231 L 109.161 114.231 Q 109.976 115.34 111.229 115.783 L 111.229 115.783 L 111.229 115.783 Q 112.482 116.226 114.18 115.558 L 114.18 115.558 L 114.18 115.558 Q 115.878 114.89 118.014 112.935 L 118.014 112.935 L 118.014 112.935 Q 120.151 110.979 122.713 107.276 L 122.713 107.276 L 122.886 108.494 L 122.886 108.494 Q 122.901 108.599 122.558 109.18 L 122.558 109.18 L 122.558 109.18 Q 122.214 109.762 121.719 110.525 L 121.719 110.525 L 121.719 110.525 Q 121.224 111.288 120.709 112.036 L 120.709 112.036 L 120.709 112.036 Q 120.195 112.784 119.831 113.226 L 119.831 113.226 L 119.831 113.226 Q 118.837 114.469 117.66 115.56 L 117.66 115.56 L 117.66 115.56 Q 116.484 116.651 115.156 117.301 L 115.156 117.301 L 115.156 117.301 Q 113.829 117.952 112.362 118.001 L 112.362 118.001 L 112.362 118.001 Q 110.895 118.05 109.314 117.175 Z  M 134.166 112.392 L 134.166 112.392 L 134.166 112.392 Q 133.216 111.213 132.568 109.654 L 132.568 109.654 L 132.568 109.654 Q 131.92 108.095 131.503 106.415 L 131.503 106.415 L 131.503 106.415 Q 131.086 104.734 130.866 103.061 L 130.866 103.061 L 130.866 103.061 Q 130.645 101.388 130.516 99.986 L 130.516 99.986 L 130.516 99.986 Q 130.009 99.916 129.413 100.214 L 129.413 100.214 L 129.413 100.214 Q 128.816 100.512 128.167 100.942 L 128.167 100.942 L 128.167 100.942 Q 127.518 101.372 126.841 101.859 L 126.841 101.859 L 126.841 101.859 Q 126.165 102.346 125.563 102.609 L 125.563 102.609 L 125.563 102.609 Q 124.962 102.872 124.425 102.842 L 124.425 102.842 L 124.425 102.842 Q 123.888 102.812 123.485 102.23 L 123.485 102.23 L 123.485 102.23 Q 123.088 101.683 123.404 101.283 L 123.404 101.283 L 123.404 101.283 Q 123.719 100.883 124.406 100.59 L 124.406 100.59 L 124.406 100.59 Q 125.092 100.297 126.019 100.076 L 126.019 100.076 L 126.019 100.076 Q 126.947 99.855 127.762 99.597 L 127.762 99.597 L 127.762 99.597 Q 128.578 99.339 129.137 99.028 L 129.137 99.028 L 129.137 99.028 Q 129.697 98.718 129.667 98.26 L 129.667 98.26 L 128.996 84.826 L 128.996 84.826 Q 128.986 84.508 129.257 84.292 L 129.257 84.292 L 129.257 84.292 Q 129.528 84.075 129.859 84.028 L 129.859 84.028 L 129.859 84.028 Q 130.19 83.981 130.473 84.101 L 130.473 84.101 L 130.473 84.101 Q 130.756 84.22 130.806 84.568 L 130.806 84.568 L 132.437 96.019 L 132.437 96.019 Q 132.939 96.054 133.374 95.868 L 133.374 95.868 L 133.374 95.868 Q 133.809 95.681 134.237 95.443 L 134.237 95.443 L 134.237 95.443 Q 134.665 95.204 135.085 95.038 L 135.085 95.038 L 135.085 95.038 Q 135.505 94.872 136.007 94.907 L 136.007 94.907 L 136.007 94.907 Q 136.271 95.26 136.039 95.63 L 136.039 95.63 L 136.039 95.63 Q 135.808 96 135.554 96.214 L 135.554 96.214 L 134.982 96.686 L 134.982 96.686 Q 134.599 96.989 134.172 97.352 L 134.172 97.352 L 134.172 97.352 Q 133.744 97.715 133.344 98.02 L 133.344 98.02 L 133.344 98.02 Q 132.943 98.326 132.779 98.42 L 132.779 98.42 L 132.779 98.42 Q 132.814 98.913 132.967 100.116 L 132.967 100.116 L 132.967 100.116 Q 133.121 101.319 133.314 102.677 L 133.314 102.677 L 133.314 102.677 Q 133.508 104.034 133.696 105.232 L 133.696 105.232 L 133.696 105.232 Q 133.885 106.431 133.989 106.913 L 133.989 106.913 L 133.989 106.913 Q 134.361 108.529 135.042 109.817 L 135.042 109.817 L 135.042 109.817 Q 135.722 111.105 136.667 111.752 L 136.667 111.752 L 136.667 111.752 Q 137.611 112.398 138.777 112.232 L 138.777 112.232 L 138.777 112.232 Q 139.943 112.066 141.356 110.764 L 141.356 110.764 L 141.356 110.764 Q 141.713 111.53 141.524 112.196 L 141.524 112.196 L 141.524 112.196 Q 141.335 112.862 140.76 113.317 L 140.76 113.317 L 140.76 113.317 Q 140.186 113.772 139.331 114 L 139.331 114 L 139.331 114 Q 138.475 114.228 137.558 114.146 L 137.558 114.146 L 137.558 114.146 Q 136.641 114.063 135.729 113.643 L 135.729 113.643 L 135.729 113.643 Q 134.817 113.223 134.166 112.392 Z  M 142.677 113.062 L 142.677 113.062 L 142.677 113.062 Q 141.753 112.554 141.191 111.48 L 141.191 111.48 L 141.191 111.48 Q 140.63 110.406 140.471 109.416 L 140.471 109.416 L 140.471 109.416 Q 140.312 108.427 140.514 107.848 L 140.514 107.848 L 140.514 107.848 Q 140.716 107.269 141.277 107.721 L 141.277 107.721 L 141.277 107.721 Q 141.475 109.611 142.38 110.476 L 142.38 110.476 L 142.38 110.476 Q 143.284 111.342 144.415 111.429 L 144.415 111.429 L 144.415 111.429 Q 145.547 111.517 146.728 110.958 L 146.728 110.958 L 146.728 110.958 Q 147.909 110.399 148.68 109.455 L 148.68 109.455 L 148.68 109.455 Q 149.451 108.51 149.613 107.28 L 149.613 107.28 L 149.613 107.28 Q 149.775 106.049 148.885 104.791 L 148.885 104.791 L 148.885 104.791 Q 147.837 103.911 146.569 103.115 L 146.569 103.115 L 146.569 103.115 Q 145.302 102.319 144.019 101.542 L 144.019 101.542 L 144.019 101.542 Q 142.737 100.766 141.517 99.928 L 141.517 99.928 L 141.517 99.928 Q 140.296 99.09 139.302 98.095 L 139.302 98.095 L 139.302 98.095 Q 139.223 98.035 139.191 97.809 L 139.191 97.809 L 139.191 97.809 Q 139.158 97.583 139.218 97.503 L 139.218 97.503 L 139.218 97.503 Q 139.417 97.155 139.775 96.43 L 139.775 96.43 L 139.775 96.43 Q 140.134 95.704 140.606 94.784 L 140.606 94.784 L 140.606 94.784 Q 141.079 93.865 141.609 92.848 L 141.609 92.848 L 141.609 92.848 Q 142.139 91.832 142.612 90.912 L 142.612 90.912 L 142.612 90.912 Q 143.084 89.992 143.46 89.264 L 143.46 89.264 L 143.46 89.264 Q 143.836 88.536 144.035 88.188 L 144.035 88.188 L 144.035 88.188 Q 144.433 87.492 144.922 87.316 L 144.922 87.316 L 144.922 87.316 Q 145.412 87.14 146.387 87.249 L 146.387 87.249 L 146.387 87.249 Q 146.372 87.394 146.195 87.898 L 146.195 87.898 L 146.195 87.898 Q 146.018 88.403 145.934 88.557 L 145.934 88.557 L 145.934 88.557 Q 145.715 89.014 145.095 90.15 L 145.095 90.15 L 145.095 90.15 Q 144.476 91.286 143.772 92.576 L 143.772 92.576 L 143.772 92.576 Q 143.068 93.865 142.448 95.001 L 142.448 95.001 L 142.448 95.001 Q 141.829 96.137 141.57 96.565 L 141.57 96.565 L 141.57 96.565 Q 141.351 97.022 141.918 97.509 L 141.918 97.509 L 141.918 97.509 Q 142.484 97.997 143.488 98.564 L 143.488 98.564 L 143.488 98.564 Q 144.493 99.131 145.763 99.82 L 145.763 99.82 L 145.763 99.82 Q 147.033 100.509 148.198 101.338 L 148.198 101.338 L 148.198 101.338 Q 149.364 102.166 150.236 103.178 L 150.236 103.178 L 150.236 103.178 Q 151.108 104.19 151.341 105.453 L 151.341 105.453 L 151.341 105.453 Q 151.574 106.716 150.99 108.22 L 150.99 108.22 L 150.99 108.22 Q 150.405 109.724 148.609 111.577 L 148.609 111.577 L 148.609 111.577 Q 148.052 112.154 147.353 112.609 L 147.353 112.609 L 147.353 112.609 Q 146.655 113.063 145.871 113.299 L 145.871 113.299 L 145.871 113.299 Q 145.088 113.535 144.268 113.51 L 144.268 113.51 L 144.268 113.51 Q 143.448 113.485 142.677 113.062 Z " fill="rgb(0,0,0)"/></g></svg>