<?xml version="1.0" standalone="no"?><!-- Generator: Gravit.io --><svg xmlns="http://www.w3.org/2000/svg" xmlns:xlink="http://www.w3.org/1999/xlink" style="isolation:isolate" viewBox="0 0 150 150" width="150" height="150"><defs><clipPath id="_clipPath_w91WPkpRZ9lmnGG5hojXqSBlnR2XrwXA"><rect width="150" height="150"/></clipPath></defs><g clip-path="url(#_clipPath_w91WPkpRZ9lmnGG5hojXqSBlnR2XrwXA)"><path d=" M 2 72 L 2 72 Z  M 32.792 103.802 C 33.745 105.989 36.197 109.061 39.489 111.997 C 40.834 113.197 42.186 114.255 43.465 115.118 C 44.091 116.798 48.515 118.745 54.074 119.682 C 55.084 119.852 56.07 119.978 57.014 120.063 L 57.014 129.889 C 57.014 135.921 61.096 141.007 66.647 142.53 C 30.283 138.502 2 108.438 2 72 C 2 32.814 34.71 1 75 1 C 115.29 1 148 32.814 148 72 C 148 106.76 122.261 135.72 88.324 141.816 C 92.852 139.753 96 135.186 96 129.889 L 96 102.111 C 96 99.312 95.121 96.716 93.617 94.59 C 107.465 92.352 118.014 80.947 118.014 67.233 C 118.014 59.449 114.615 52.408 109.13 47.378 C 109.689 42.761 110.073 36.077 106.692 31.538 C 105.682 30.182 104.336 29.018 102.558 28.157 L 89.195 39.471 C 89.003 39.468 88.81 39.466 88.617 39.466 L 64.396 39.466 C 63.27 39.466 62.157 39.526 61.063 39.643 L 49.314 28.933 C 41.09 32.551 41.563 42.768 42.116 48.727 C 42.126 48.835 42.162 48.933 42.233 49.017 C 37.725 53.888 35 60.262 35 67.233 C 35 80.947 45.548 92.352 59.396 94.59 C 57.893 96.716 57.014 99.312 57.014 102.111 L 57.014 113.565 C 56.415 113.434 55.797 113.314 55.165 113.208 C 53.178 112.873 51.286 112.708 49.621 112.695 C 48.357 110.863 46.477 108.76 44.193 106.723 C 41.117 103.979 38.005 101.976 35.752 101.16 C 35.007 100.543 34.073 99.921 33.017 99.361 C 29.982 97.754 27.083 97.269 26.548 98.28 C 26.012 99.291 28.042 101.416 31.077 103.024 C 31.664 103.335 32.247 103.604 32.792 103.802 Z " fill-rule="evenodd" fill="rgb(0,0,0)"/></g></svg>