<?xml version="1.0" standalone="no"?><!-- Generator: Gravit.io --><svg xmlns="http://www.w3.org/2000/svg" xmlns:xlink="http://www.w3.org/1999/xlink" style="isolation:isolate" viewBox="0 0 150 144" width="150" height="144"><defs><clipPath id="_clipPath_Kk5bUuZBb2WmORv2rKzPcS9zNd5yxl4H"><rect width="150" height="144"/></clipPath></defs><g clip-path="url(#_clipPath_Kk5bUuZBb2WmORv2rKzPcS9zNd5yxl4H)"><path d="M 13.82 0 L 136.18 0 C 143.807 0 150 6.193 150 13.82 L 150 130.18 C 150 137.807 143.807 144 136.18 144 L 13.82 144 C 6.193 144 0 137.807 0 130.18 L 0 13.82 C 0 6.193 6.193 0 13.82 0 Z" style="stroke:none;fill:#171717;stroke-miterlimit:10;"/><path d=" M 29 34.5 C 29 28.153 34.153 23 40.5 23 C 46.847 23 52 28.153 52 34.5 C 52 40.847 46.847 46 40.5 46 C 34.153 46 29 40.847 29 34.5 Z " fill="rgb(255,255,255)"/><path d=" M 84 68.5 C 84 62.153 92.738 57 103.5 57 C 114.262 57 123 62.153 123 68.5 C 123 74.847 114.262 80 103.5 80 C 92.738 80 84 74.847 84 68.5 Z " fill="rgb(255,255,255)"/><rect x="31" y="57" width="20" height="59" transform="matrix(1,0,0,1,0,0)" fill="rgb(255,255,255)"/><rect x="70" y="57" width="15" height="59" transform="matrix(1,0,0,1,0,0)" fill="rgb(255,255,255)"/><rect x="84" y="68.5" width="39" height="47.5" transform="matrix(1,0,0,1,0,0)" fill="rgb(255,255,255)"/><path d="M 97 72 L 97 72 C 102.519 72 107 76.666 107 82.414 L 107 122.586 C 107 128.334 102.519 133 97 133 L 97 133 C 91.481 133 87 128.334 87 122.586 L 87 82.414 C 87 76.666 91.481 72 97 72 Z" style="stroke:none;fill:#171717;stroke-miterlimit:10;"/></g></svg>