<?xml version="1.0" encoding="UTF-8" standalone="no"?><!-- Generator: Gravit.io --><svg xmlns="http://www.w3.org/2000/svg" xmlns:xlink="http://www.w3.org/1999/xlink" style="isolation:isolate" viewBox="0 0 180 163" width="180pt" height="163pt"><defs><clipPath id="_clipPath_6ssS5Sg3j9XsqMUdqRsULbzaopcLsDcC"><rect width="180" height="163"/></clipPath></defs><g clip-path="url(#_clipPath_6ssS5Sg3j9XsqMUdqRsULbzaopcLsDcC)"><path d=" M 0 0 L 180 0 L 180 163 L 0 163 L 0 0 Z " fill="rgb(232,168,232)"/><path d=" M 36.526 97.233 L 34.713 87.021 L 34.713 87.021 Q 34.508 87.272 34.054 87.835 L 34.054 87.835 L 34.054 87.835 Q 33.601 88.397 33.009 88.984 L 33.009 88.984 L 33.009 88.984 Q 32.417 89.571 31.721 89.98 L 31.721 89.98 L 31.721 89.98 Q 31.026 90.389 30.332 90.298 L 30.332 90.298 L 30.332 90.298 Q 30.037 90.244 29.844 90.064 L 29.844 90.064 L 29.844 90.064 Q 29.651 89.884 29.553 89.633 L 29.553 89.633 L 29.553 89.633 Q 29.455 89.383 29.423 89.103 L 29.423 89.103 L 29.423 89.103 Q 29.392 88.823 29.418 88.568 L 29.418 88.568 L 35.079 83.85 L 33.266 73.639 L 33.266 73.639 Q 33.211 73.327 33.564 73.104 L 33.564 73.104 L 33.564 73.104 Q 33.917 72.88 34.367 72.8 L 34.367 72.8 L 34.367 72.8 Q 34.817 72.721 35.226 72.809 L 35.226 72.809 L 35.226 72.809 Q 35.634 72.897 35.689 73.208 L 35.689 73.208 L 37.182 81.62 L 37.182 81.62 Q 38.501 80.6 39.703 79.227 L 39.703 79.227 L 39.703 79.227 Q 40.906 77.853 41.709 76.443 L 41.709 76.443 L 41.709 76.443 Q 42.512 75.033 42.753 73.776 L 42.753 73.776 L 42.753 73.776 Q 42.994 72.519 42.387 71.716 L 42.387 71.716 L 42.387 71.716 Q 41.781 70.913 40.163 70.754 L 40.163 70.754 L 40.163 70.754 Q 38.546 70.595 35.647 71.359 L 35.647 71.359 L 35.647 71.359 Q 35.036 71.539 34.122 72.023 L 34.122 72.023 L 34.122 72.023 Q 33.208 72.506 32.146 73.159 L 32.146 73.159 L 32.146 73.159 Q 31.083 73.812 29.975 74.508 L 29.975 74.508 L 29.975 74.508 Q 28.867 75.205 27.865 75.793 L 27.865 75.793 L 27.865 75.793 Q 26.862 76.382 26.065 76.72 L 26.065 76.72 L 26.065 76.72 Q 25.268 77.058 24.863 76.987 L 24.863 76.987 L 24.863 76.987 Q 24.862 76.38 25.16 75.845 L 25.16 75.845 L 25.16 75.845 Q 25.458 75.31 25.927 74.834 L 25.927 74.834 L 25.927 74.834 Q 26.396 74.358 26.935 73.977 L 26.935 73.977 L 26.935 73.977 Q 27.474 73.595 27.963 73.33 L 27.963 73.33 L 27.963 73.33 Q 29.952 72.263 31.389 71.508 L 31.389 71.508 L 31.389 71.508 Q 32.826 70.753 34.254 70.25 L 34.254 70.25 L 34.254 70.25 Q 35.682 69.746 37.347 69.469 L 37.347 69.469 L 37.347 69.469 Q 39.011 69.191 41.455 69.079 L 41.455 69.079 L 41.455 69.079 Q 43.479 69.219 44.371 69.918 L 44.371 69.918 L 44.371 69.918 Q 45.263 70.617 45.343 71.674 L 45.343 71.674 L 45.343 71.674 Q 45.424 72.73 44.868 74.025 L 44.868 74.025 L 44.868 74.025 Q 44.312 75.32 43.428 76.673 L 43.428 76.673 L 43.428 76.673 Q 42.543 78.026 41.476 79.358 L 41.476 79.358 L 41.476 79.358 Q 40.409 80.69 39.496 81.781 L 39.496 81.781 L 39.496 81.781 Q 38.583 82.871 37.99 83.655 L 37.99 83.655 L 37.99 83.655 Q 37.397 84.438 37.405 84.687 L 37.405 84.687 L 38.111 95.702 L 37.952 96.016 L 37.952 96.016 Q 37.822 96.289 37.609 96.594 L 37.609 96.594 L 37.609 96.594 Q 37.395 96.9 37.097 97.131 L 37.097 97.131 L 37.097 97.131 Q 36.799 97.363 36.526 97.233 L 36.526 97.233 Z  M 50.753 78.818 L 53.42 93.842 L 53.42 93.842 Q 53.069 95.082 52.691 95.167 L 52.691 95.167 L 52.691 95.167 Q 52.313 95.252 51.915 94.519 L 51.915 94.519 L 51.915 94.519 Q 51.517 93.786 51.11 92.395 L 51.11 92.395 L 51.11 92.395 Q 50.702 91.003 50.343 89.282 L 50.343 89.282 L 50.343 89.282 Q 49.984 87.56 49.681 85.65 L 49.681 85.65 L 49.681 85.65 Q 49.377 83.74 49.15 81.959 L 49.15 81.959 L 49.15 81.959 Q 48.924 80.179 48.801 78.683 L 48.801 78.683 L 48.801 78.683 Q 48.678 77.187 48.684 76.312 L 48.684 76.312 L 48.684 76.312 Q 48.689 75.436 48.85 75.336 L 48.85 75.336 L 48.85 75.336 Q 49.01 75.236 49.362 76.209 L 49.362 76.209 L 49.362 76.209 Q 50.322 75.182 51.471 74.21 L 51.471 74.21 L 51.471 74.21 Q 52.619 73.239 53.897 72.494 L 53.897 72.494 L 53.897 72.494 Q 55.176 71.749 56.553 71.362 L 56.553 71.362 L 56.553 71.362 Q 57.93 70.975 59.313 71.122 L 59.313 71.122 L 59.313 71.122 Q 59.532 71.547 59.532 72.154 L 59.532 72.154 L 59.532 72.154 Q 59.533 72.761 59.01 73.033 L 59.01 73.033 L 59.01 73.033 Q 58.437 73.027 57.537 73.187 L 57.537 73.187 L 57.537 73.187 Q 56.637 73.347 55.658 73.663 L 55.658 73.663 L 55.658 73.663 Q 54.679 73.98 53.73 74.47 L 53.73 74.47 L 53.73 74.47 Q 52.782 74.959 52.057 75.606 L 52.057 75.606 L 52.057 75.606 Q 51.333 76.252 50.957 77.051 L 50.957 77.051 L 50.957 77.051 Q 50.581 77.849 50.753 78.818 L 50.753 78.818 Z  M 67.845 89.817 L 67.845 89.817 L 67.845 89.817 Q 66.752 88.69 66.299 87.146 L 66.299 87.146 L 66.299 87.146 Q 65.847 85.602 65.713 83.84 L 65.713 83.84 L 65.713 83.84 Q 65.578 82.079 65.646 80.246 L 65.646 80.246 L 65.646 80.246 Q 65.713 78.413 65.698 76.719 L 65.698 76.719 L 65.698 76.719 Q 65.683 75.026 65.463 73.583 L 65.463 73.583 L 65.463 73.583 Q 65.243 72.141 64.539 71.194 L 64.539 71.194 L 64.539 71.194 Q 64.164 70.69 63.7 70.79 L 63.7 70.79 L 63.7 70.79 Q 63.236 70.89 62.72 71.106 L 62.72 71.106 L 62.72 71.106 Q 62.205 71.323 61.663 71.383 L 61.663 71.383 L 61.663 71.383 Q 61.12 71.444 60.594 70.895 L 60.594 70.895 L 60.594 70.895 Q 60.604 70.75 60.789 70.485 L 60.789 70.485 L 60.789 70.485 Q 60.974 70.22 61.072 70.167 L 61.072 70.167 L 61.072 70.167 Q 64.107 69.164 66.395 69.883 L 66.395 69.883 L 66.395 69.883 Q 68.683 70.602 70.282 72.371 L 70.282 72.371 L 70.282 72.371 Q 71.882 74.14 72.804 76.619 L 72.804 76.619 L 72.804 76.619 Q 73.726 79.097 74.036 81.649 L 74.036 81.649 L 74.036 81.649 Q 74.346 84.2 74.072 86.48 L 74.072 86.48 L 74.072 86.48 Q 73.798 88.761 73.003 90.116 L 73.003 90.116 L 73.003 90.116 Q 72.209 91.471 70.903 91.56 L 70.903 91.56 L 70.903 91.56 Q 69.598 91.648 67.845 89.817 Z  M 69.43 88.286 L 69.43 88.286 L 69.43 88.286 Q 69.483 88.384 69.686 88.526 L 69.686 88.526 L 69.686 88.526 Q 69.89 88.669 70.117 88.843 L 70.117 88.843 L 70.117 88.843 Q 70.345 89.016 70.545 89.142 L 70.545 89.142 L 70.545 89.142 Q 70.746 89.267 70.822 89.289 L 70.822 89.289 L 70.822 89.289 Q 71.973 88.335 72.375 86.978 L 72.375 86.978 L 72.375 86.978 Q 72.777 85.621 72.628 84.077 L 72.628 84.077 L 72.628 84.077 Q 72.479 82.532 71.921 80.899 L 71.921 80.899 L 71.921 80.899 Q 71.364 79.267 70.602 77.795 L 70.602 77.795 L 70.602 77.795 Q 69.841 76.323 68.967 75.121 L 68.967 75.121 L 68.967 75.121 Q 68.094 73.92 67.358 73.193 L 67.358 73.193 L 67.358 73.193 Q 67.403 73.65 67.465 74.603 L 67.465 74.603 L 67.465 74.603 Q 67.527 75.556 67.632 76.751 L 67.632 76.751 L 67.632 76.751 Q 67.737 77.946 67.832 79.286 L 67.832 79.286 L 67.832 79.286 Q 67.927 80.626 68.018 81.842 L 68.018 81.842 L 68.018 81.842 Q 68.109 83.058 68.171 84.011 L 68.171 84.011 L 68.171 84.011 Q 68.233 84.964 68.278 85.42 L 68.278 85.42 L 68.278 85.42 Q 68.305 85.772 68.434 86.196 L 68.434 86.196 L 68.434 86.196 Q 68.562 86.619 68.74 87.016 L 68.74 87.016 L 68.74 87.016 Q 68.918 87.413 69.103 87.755 L 69.103 87.755 L 69.103 87.755 Q 69.289 88.097 69.43 88.286 Z  M 78.4 110.867 L 78.4 110.867 L 78.4 110.867 Q 77.758 110.267 77.419 109.363 L 77.419 109.363 L 77.419 109.363 Q 77.08 108.459 76.971 107.443 L 76.971 107.443 L 76.971 107.443 Q 76.863 106.427 76.919 105.435 L 76.919 105.435 L 76.919 105.435 Q 76.975 104.443 77.123 103.667 L 77.123 103.667 L 77.123 103.667 Q 77.187 103.227 77.348 102.324 L 77.348 102.324 L 77.348 102.324 Q 77.509 101.42 77.734 100.273 L 77.734 100.273 L 77.734 100.273 Q 77.959 99.127 78.2 97.87 L 78.2 97.87 L 78.2 97.87 Q 78.441 96.613 78.687 95.48 L 78.687 95.48 L 78.687 95.48 Q 78.932 94.348 79.131 93.456 L 79.131 93.456 L 79.429 92.117 L 79.429 92.117 Q 79.321 90.708 78.953 89.435 L 78.953 89.435 L 78.953 89.435 Q 78.584 88.161 78.086 86.964 L 78.086 86.964 L 78.086 86.964 Q 77.588 85.767 76.986 84.589 L 76.986 84.589 L 76.986 84.589 Q 76.384 83.41 75.776 82.197 L 75.776 82.197 L 75.776 82.197 Q 75.557 81.771 75.695 81.443 L 75.695 81.443 L 75.695 81.443 Q 75.834 81.115 76.13 80.974 L 76.13 80.974 L 76.13 80.974 Q 76.426 80.832 76.811 80.888 L 76.811 80.888 L 76.811 80.888 Q 77.196 80.945 77.506 81.283 L 77.506 81.283 L 77.506 81.283 Q 78.225 82.119 78.671 83.022 L 78.671 83.022 L 78.671 83.022 Q 79.117 83.925 79.5 84.874 L 79.5 84.874 L 79.5 84.874 Q 79.883 85.824 80.269 86.791 L 80.269 86.791 L 80.269 86.791 Q 80.654 87.758 81.248 88.688 L 81.248 88.688 L 81.248 88.688 Q 81.574 88.309 82.296 87.449 L 82.296 87.449 L 82.296 87.449 Q 83.018 86.589 83.954 85.726 L 83.954 85.726 L 83.954 85.726 Q 84.89 84.864 85.906 84.255 L 85.906 84.255 L 85.906 84.255 Q 86.923 83.646 87.838 83.769 L 87.838 83.769 L 87.838 83.769 Q 87.948 83.786 88.23 83.968 L 88.23 83.968 L 88.23 83.968 Q 88.512 84.15 88.571 84.282 L 88.571 84.282 L 88.571 84.282 Q 88.374 84.781 87.79 85.313 L 87.79 85.313 L 87.79 85.313 Q 87.206 85.845 86.435 86.428 L 86.435 86.428 L 86.435 86.428 Q 85.664 87.012 84.837 87.587 L 84.837 87.587 L 84.837 87.587 Q 84.011 88.162 83.347 88.744 L 83.347 88.744 L 83.347 88.744 Q 82.682 89.326 82.287 89.914 L 82.287 89.914 L 82.287 89.914 Q 81.891 90.502 81.984 91.021 L 81.984 91.021 L 84.226 103.656 L 84.226 103.656 Q 84.324 104.21 84.196 105.196 L 84.196 105.196 L 84.196 105.196 Q 84.068 106.183 83.747 107.293 L 83.747 107.293 L 83.747 107.293 Q 83.426 108.404 82.914 109.441 L 82.914 109.441 L 82.914 109.441 Q 82.402 110.478 81.709 111.101 L 81.709 111.101 L 81.709 111.101 Q 81.016 111.724 80.181 111.747 L 80.181 111.747 L 80.181 111.747 Q 79.346 111.77 78.4 110.867 Z  M 79.138 104.559 L 79.138 104.559 L 79.138 104.559 Q 79.152 104.842 79.255 105.52 L 79.255 105.52 L 79.255 105.52 Q 79.357 106.198 79.492 106.96 L 79.492 106.96 L 79.492 106.96 Q 79.627 107.721 79.768 108.41 L 79.768 108.41 L 79.768 108.41 Q 79.908 109.1 79.985 109.336 L 79.985 109.336 L 79.985 109.336 Q 80.061 109.358 80.286 109.318 L 80.286 109.318 L 80.286 109.318 Q 80.511 109.278 80.574 109.231 L 80.574 109.231 L 80.574 109.231 Q 81.079 108.856 81.345 107.845 L 81.345 107.845 L 81.345 107.845 Q 81.612 106.833 81.742 105.757 L 81.742 105.757 L 81.742 105.757 Q 81.873 104.68 81.913 103.799 L 81.913 103.799 L 81.913 103.799 Q 81.952 102.917 81.934 102.813 L 81.934 102.813 L 81.934 102.813 Q 81.895 102.391 81.731 101.367 L 81.731 101.367 L 81.731 101.367 Q 81.567 100.343 81.361 99.183 L 81.361 99.183 L 81.361 99.183 Q 81.155 98.024 80.957 97.006 L 80.957 97.006 L 80.957 97.006 Q 80.758 95.987 80.65 95.578 L 80.65 95.578 L 80.65 95.578 Q 79.893 97.748 79.399 99.996 L 79.399 99.996 L 79.399 99.996 Q 78.905 102.244 79.138 104.559 Z  M 75.798 71.66 L 75.798 71.66 L 75.798 71.66 Q 75.476 71.253 75.677 70.878 L 75.677 70.878 L 75.677 70.878 Q 75.878 70.503 76.31 70.319 L 76.31 70.319 L 76.31 70.319 Q 76.741 70.135 77.25 70.188 L 77.25 70.188 L 77.25 70.188 Q 77.76 70.24 78.041 70.619 L 78.041 70.619 L 78.041 70.619 Q 78.329 71.032 78.121 71.372 L 78.121 71.372 L 78.121 71.372 Q 77.914 71.713 77.482 71.896 L 77.482 71.896 L 77.482 71.896 Q 77.051 72.08 76.565 72.059 L 76.565 72.059 L 76.565 72.059 Q 76.079 72.038 75.798 71.66 Z  M 92.81 86.636 L 92.81 86.636 L 92.81 86.636 Q 91.153 85.752 90.031 84.362 L 90.031 84.362 L 90.031 84.362 Q 88.91 82.972 88.147 81.286 L 88.147 81.286 L 88.147 81.286 Q 87.97 81.496 87.591 81.778 L 87.591 81.778 L 87.591 81.778 Q 87.213 82.059 86.805 82.275 L 86.805 82.275 L 86.805 82.275 Q 86.396 82.49 85.99 82.615 L 85.99 82.615 L 85.99 82.615 Q 85.584 82.741 85.369 82.636 L 85.369 82.636 L 85.369 82.636 Q 85.154 82.532 85.182 82.188 L 85.182 82.188 L 85.182 82.188 Q 85.211 81.843 85.648 81.087 L 85.648 81.087 L 85.648 81.087 Q 85.698 80.971 86 80.561 L 86 80.561 L 86 80.561 Q 86.302 80.15 86.647 79.678 L 86.647 79.678 L 86.647 79.678 Q 86.992 79.206 87.274 78.781 L 87.274 78.781 L 87.274 78.781 Q 87.555 78.356 87.606 78.24 L 87.606 78.24 L 87.606 78.24 Q 87.833 77.307 87.735 76.254 L 87.735 76.254 L 87.735 76.254 Q 87.638 75.2 87.455 74.072 L 87.455 74.072 L 87.455 74.072 Q 87.273 72.944 87.18 71.817 L 87.18 71.817 L 87.18 71.817 Q 87.087 70.691 87.331 69.648 L 87.331 69.648 L 87.331 69.648 Q 87.475 69.052 88.005 68.118 L 88.005 68.118 L 88.005 68.118 Q 88.536 67.185 89.249 66.273 L 89.249 66.273 L 89.249 66.273 Q 89.962 65.361 90.737 64.598 L 90.737 64.598 L 90.737 64.598 Q 91.512 63.836 92.128 63.584 L 92.128 63.584 L 92.128 63.584 Q 92.744 63.332 93.118 63.73 L 93.118 63.73 L 93.118 63.73 Q 93.492 64.127 93.408 65.463 L 93.408 65.463 L 93.408 65.463 Q 93.297 67.054 92.773 68.629 L 92.773 68.629 L 92.773 68.629 Q 92.25 70.204 91.668 71.753 L 91.668 71.753 L 91.668 71.753 Q 91.086 73.302 90.587 74.819 L 90.587 74.819 L 90.587 74.819 Q 90.089 76.336 90.029 77.81 L 90.029 77.81 L 90.029 77.81 Q 89.991 78.603 90.185 79.693 L 90.185 79.693 L 90.185 79.693 Q 90.378 80.783 90.811 81.813 L 90.811 81.813 L 90.811 81.813 Q 91.244 82.843 91.954 83.628 L 91.954 83.628 L 91.954 83.628 Q 92.665 84.412 93.695 84.586 L 93.695 84.586 L 93.695 84.586 Q 94.877 84.805 95.948 84.401 L 95.948 84.401 L 95.948 84.401 Q 97.019 83.997 97.97 83.221 L 97.97 83.221 L 97.97 83.221 Q 98.921 82.445 99.734 81.39 L 99.734 81.39 L 99.734 81.39 Q 100.546 80.335 101.211 79.253 L 101.211 79.253 L 101.211 79.253 Q 101.876 78.171 102.377 77.172 L 102.377 77.172 L 102.377 77.172 Q 102.878 76.172 103.217 75.469 L 103.217 75.469 L 103.917 75.988 L 103.917 75.988 Q 104.196 76.153 103.831 77.217 L 103.831 77.217 L 103.831 77.217 Q 103.467 78.282 102.664 79.692 L 102.664 79.692 L 102.664 79.692 Q 101.861 81.102 100.703 82.628 L 100.703 82.628 L 100.703 82.628 Q 99.546 84.155 98.228 85.281 L 98.228 85.281 L 98.228 85.281 Q 96.911 86.408 95.511 86.871 L 95.511 86.871 L 95.511 86.871 Q 94.112 87.333 92.81 86.636 Z  M 88.96 71.787 L 88.96 71.787 L 88.96 71.787 Q 88.956 71.966 89.016 72.402 L 89.016 72.402 L 89.016 72.402 Q 89.075 72.838 89.161 73.323 L 89.161 73.323 L 89.161 73.323 Q 89.247 73.807 89.338 74.22 L 89.338 74.22 L 89.338 74.22 Q 89.429 74.632 89.495 74.799 L 89.495 74.799 L 89.495 74.799 Q 90.264 72.698 90.853 70.38 L 90.853 70.38 L 90.853 70.38 Q 91.441 68.062 91.608 65.783 L 91.608 65.783 L 91.608 65.783 Q 90.861 66.201 90.322 66.886 L 90.322 66.886 L 90.322 66.886 Q 89.783 67.571 89.465 68.395 L 89.465 68.395 L 89.465 68.395 Q 89.147 69.219 89.035 70.096 L 89.035 70.096 L 89.035 70.096 Q 88.923 70.973 88.96 71.787 Z  M 106.649 83.537 L 106.649 83.537 L 106.649 83.537 Q 105.196 82.795 104.382 81.529 L 104.382 81.529 L 104.382 81.529 Q 103.568 80.263 103.231 78.663 L 103.231 78.663 L 103.231 78.663 Q 102.893 77.062 102.99 75.296 L 102.99 75.296 L 102.99 75.296 Q 103.087 73.529 103.462 71.82 L 103.462 71.82 L 103.462 71.82 Q 103.837 70.111 104.408 68.599 L 104.408 68.599 L 104.408 68.599 Q 104.979 67.087 105.641 65.988 L 105.641 65.988 L 105.641 65.988 Q 106.303 64.889 106.959 64.361 L 106.959 64.361 L 106.959 64.361 Q 107.615 63.834 108.127 64.101 L 108.127 64.101 L 108.127 64.101 Q 108.263 64.469 108.635 65.457 L 108.635 65.457 L 108.635 65.457 Q 109.007 66.444 109.403 67.57 L 109.403 67.57 L 109.403 67.57 Q 109.799 68.696 110.136 69.689 L 110.136 69.689 L 110.136 69.689 Q 110.473 70.683 110.61 71.051 L 110.61 71.051 L 110.61 71.051 Q 110.759 71.489 110.813 71.997 L 110.813 71.997 L 110.813 71.997 Q 110.868 72.505 110.765 72.934 L 110.765 72.934 L 110.765 72.934 Q 110.663 73.362 110.299 73.623 L 110.299 73.623 L 110.299 73.623 Q 109.934 73.885 109.24 73.794 L 109.24 73.794 L 109.24 73.794 Q 109.162 73.557 108.902 72.997 L 108.902 72.997 L 108.902 72.997 Q 108.642 72.436 108.332 71.795 L 108.332 71.795 L 108.332 71.795 Q 108.021 71.153 107.724 70.581 L 107.724 70.581 L 107.724 70.581 Q 107.426 70.009 107.313 69.779 L 107.313 69.779 L 106.621 69.295 L 106.621 69.295 Q 105.677 70.213 105.207 71.689 L 105.207 71.689 L 105.207 71.689 Q 104.737 73.165 104.705 74.795 L 104.705 74.795 L 104.705 74.795 Q 104.673 76.425 105.108 77.973 L 105.108 77.973 L 105.108 77.973 Q 105.543 79.52 106.395 80.6 L 106.395 80.6 L 106.395 80.6 Q 107.248 81.681 108.515 82.081 L 108.515 82.081 L 108.515 82.081 Q 109.782 82.481 111.456 81.755 L 111.456 81.755 L 111.456 81.755 Q 113.131 81.03 115.199 79.002 L 115.199 79.002 L 115.199 79.002 Q 117.267 76.975 119.701 73.187 L 119.701 73.187 L 119.916 74.398 L 119.916 74.398 Q 119.935 74.502 119.611 75.095 L 119.611 75.095 L 119.611 75.095 Q 119.288 75.688 118.819 76.467 L 118.819 76.467 L 118.819 76.467 Q 118.351 77.247 117.862 78.012 L 117.862 78.012 L 117.862 78.012 Q 117.373 78.777 117.025 79.232 L 117.025 79.232 L 117.025 79.232 Q 116.073 80.507 114.935 81.638 L 114.935 81.638 L 114.935 81.638 Q 113.796 82.768 112.492 83.464 L 112.492 83.464 L 112.492 83.464 Q 111.187 84.16 109.723 84.259 L 109.723 84.259 L 109.723 84.259 Q 108.259 84.358 106.649 83.537 Z  M 131.322 77.908 L 131.322 77.908 L 131.322 77.908 Q 130.333 76.762 129.632 75.226 L 129.632 75.226 L 129.632 75.226 Q 128.931 73.691 128.457 72.025 L 128.457 72.025 L 128.457 72.025 Q 127.983 70.36 127.705 68.695 L 127.705 68.695 L 127.705 68.695 Q 127.428 67.031 127.251 65.634 L 127.251 65.634 L 127.251 65.634 Q 126.742 65.581 126.156 65.899 L 126.156 65.899 L 126.156 65.899 Q 125.57 66.218 124.936 66.669 L 124.936 66.669 L 124.936 66.669 Q 124.302 67.121 123.642 67.631 L 123.642 67.631 L 123.642 67.631 Q 122.983 68.141 122.391 68.424 L 122.391 68.424 L 122.391 68.424 Q 121.798 68.708 121.261 68.696 L 121.261 68.696 L 121.261 68.696 Q 120.723 68.685 120.301 68.117 L 120.301 68.117 L 120.301 68.117 Q 119.885 67.584 120.187 67.173 L 120.187 67.173 L 120.187 67.173 Q 120.489 66.762 121.165 66.446 L 121.165 66.446 L 121.165 66.446 Q 121.841 66.13 122.76 65.877 L 122.76 65.877 L 122.76 65.877 Q 123.679 65.625 124.485 65.339 L 124.485 65.339 L 124.485 65.339 Q 125.292 65.053 125.84 64.724 L 125.84 64.724 L 125.84 64.724 Q 126.389 64.394 126.343 63.938 L 126.343 63.938 L 125.214 50.535 L 125.214 50.535 Q 125.193 50.217 125.457 49.992 L 125.457 49.992 L 125.457 49.992 Q 125.72 49.766 126.049 49.708 L 126.049 49.708 L 126.049 49.708 Q 126.378 49.65 126.665 49.759 L 126.665 49.759 L 126.665 49.759 Q 126.953 49.869 127.014 50.215 L 127.014 50.215 L 129.035 61.604 L 129.035 61.604 Q 129.538 61.621 129.967 61.42 L 129.967 61.42 L 129.967 61.42 Q 130.395 61.219 130.815 60.966 L 130.815 60.966 L 130.815 60.966 Q 131.234 60.713 131.648 60.533 L 131.648 60.533 L 131.648 60.533 Q 132.062 60.352 132.566 60.37 L 132.566 60.37 L 132.566 60.37 Q 132.841 60.714 132.622 61.092 L 132.622 61.092 L 132.622 61.092 Q 132.404 61.47 132.157 61.692 L 132.157 61.692 L 131.602 62.183 L 131.602 62.183 Q 131.23 62.5 130.815 62.877 L 130.815 62.877 L 130.815 62.877 Q 130.399 63.254 130.01 63.573 L 130.01 63.573 L 130.01 63.573 Q 129.62 63.892 129.459 63.992 L 129.459 63.992 L 129.459 63.992 Q 129.511 64.483 129.705 65.68 L 129.705 65.68 L 129.705 65.68 Q 129.9 66.877 130.14 68.227 L 130.14 68.227 L 130.14 68.227 Q 130.379 69.577 130.608 70.769 L 130.608 70.769 L 130.608 70.769 Q 130.838 71.96 130.958 72.438 L 130.958 72.438 L 130.958 72.438 Q 131.386 74.04 132.11 75.304 L 132.11 75.304 L 132.11 75.304 Q 132.834 76.568 133.8 77.183 L 133.8 77.183 L 133.8 77.183 Q 134.766 77.797 135.926 77.591 L 135.926 77.591 L 135.926 77.591 Q 137.085 77.385 138.452 76.035 L 138.452 76.035 L 138.452 76.035 Q 138.836 76.789 138.67 77.461 L 138.67 77.461 L 138.67 77.461 Q 138.503 78.133 137.945 78.607 L 137.945 78.607 L 137.945 78.607 Q 137.386 79.081 136.539 79.339 L 136.539 79.339 L 136.539 79.339 Q 135.692 79.596 134.773 79.545 L 134.773 79.545 L 134.773 79.545 Q 133.853 79.494 132.927 79.105 L 132.927 79.105 L 132.927 79.105 Q 132.001 78.716 131.322 77.908 Z  M 139.852 78.286 L 139.852 78.286 L 139.852 78.286 Q 138.91 77.811 138.313 76.757 L 138.313 76.757 L 138.313 76.757 Q 137.715 75.702 137.522 74.719 L 137.522 74.719 L 137.522 74.719 Q 137.33 73.735 137.512 73.15 L 137.512 73.15 L 137.512 73.15 Q 137.693 72.564 138.27 72.997 L 138.27 72.997 L 138.27 72.997 Q 138.533 74.879 139.466 75.713 L 139.466 75.713 L 139.466 75.713 Q 140.4 76.547 141.533 76.595 L 141.533 76.595 L 141.533 76.595 Q 142.667 76.644 143.828 76.045 L 143.828 76.045 L 143.828 76.045 Q 144.989 75.447 145.727 74.476 L 145.727 74.476 L 145.727 74.476 Q 146.466 73.506 146.586 72.271 L 146.586 72.271 L 146.586 72.271 Q 146.706 71.036 145.774 69.809 L 145.774 69.809 L 145.774 69.809 Q 144.696 68.964 143.402 68.212 L 143.402 68.212 L 143.402 68.212 Q 142.108 67.46 140.799 66.728 L 140.799 66.728 L 140.799 66.728 Q 139.491 65.996 138.243 65.2 L 138.243 65.2 L 138.243 65.2 Q 136.995 64.404 135.968 63.444 L 135.968 63.444 L 135.968 63.444 Q 135.886 63.387 135.846 63.162 L 135.846 63.162 L 135.846 63.162 Q 135.806 62.937 135.863 62.855 L 135.863 62.855 L 135.863 62.855 Q 136.05 62.501 136.383 61.763 L 136.383 61.763 L 136.383 61.763 Q 136.717 61.026 137.158 60.091 L 137.158 60.091 L 137.158 60.091 Q 137.599 59.155 138.094 58.121 L 138.094 58.121 L 138.094 58.121 Q 138.588 57.087 139.029 56.152 L 139.029 56.152 L 139.029 56.152 Q 139.47 55.217 139.821 54.476 L 139.821 54.476 L 139.821 54.476 Q 140.172 53.736 140.359 53.381 L 140.359 53.381 L 140.359 53.381 Q 140.733 52.672 141.216 52.479 L 141.216 52.479 L 141.216 52.479 Q 141.7 52.286 142.677 52.362 L 142.677 52.362 L 142.677 52.362 Q 142.667 52.507 142.508 53.017 L 142.508 53.017 L 142.508 53.017 Q 142.348 53.528 142.269 53.685 L 142.269 53.685 L 142.269 53.685 Q 142.066 54.149 141.486 55.305 L 141.486 55.305 L 141.486 55.305 Q 140.905 56.462 140.246 57.775 L 140.246 57.775 L 140.246 57.775 Q 139.586 59.088 139.006 60.245 L 139.006 60.245 L 139.006 60.245 Q 138.426 61.401 138.182 61.837 L 138.182 61.837 L 138.182 61.837 Q 137.979 62.301 138.561 62.769 L 138.561 62.769 L 138.561 62.769 Q 139.144 63.237 140.167 63.77 L 140.167 63.77 L 140.167 63.77 Q 141.19 64.302 142.483 64.948 L 142.483 64.948 L 142.483 64.948 Q 143.776 65.593 144.969 66.381 L 144.969 66.381 L 144.969 66.381 Q 146.162 67.169 147.068 68.151 L 147.068 68.151 L 147.068 68.151 Q 147.975 69.132 148.251 70.387 L 148.251 70.387 L 148.251 70.387 Q 148.527 71.641 147.994 73.164 L 147.994 73.164 L 147.994 73.164 Q 147.461 74.686 145.729 76.601 L 145.729 76.601 L 145.729 76.601 Q 145.192 77.196 144.51 77.674 L 144.51 77.674 L 144.51 77.674 Q 143.827 78.152 143.052 78.415 L 143.052 78.415 L 143.052 78.415 Q 142.278 78.677 141.457 78.68 L 141.457 78.68 L 141.457 78.68 Q 140.636 78.683 139.852 78.286 Z " fill="rgb(0,0,0)"/><g><g><path d=" M 86.897 22.37 L 87.868 22.135 L 89.394 28.439 L 88.422 28.674 L 86.897 22.37 Z " fill="rgb(116,116,116)"/><path d=" M 79.167 20.079 C 78.356 17.634 80.674 14.662 84.341 13.445 C 88.008 12.228 91.644 13.225 92.455 15.67 C 93.266 18.114 90.947 21.087 87.28 22.303 C 83.614 23.52 79.978 22.523 79.167 20.079 Z " fill="rgb(0,0,255)" vector-effect="non-scaling-stroke" stroke-width="1" stroke="rgb(0,0,248)" stroke-linejoin="miter" stroke-linecap="butt" stroke-miterlimit="3" style="mix-blend-mode:hard-light;"/><defs><filter id="lPuxmL4BDsFyNYT8eNS71DPMtODfM0r1" x="-200%" y="-200%" width="400%" height="400%" filterUnits="objectBoundingBox" color-interpolation-filters="sRGB"><feOffset xmlns="http://www.w3.org/2000/svg" in="SourceGraphic" dx="3" dy="3"/><feGaussianBlur xmlns="http://www.w3.org/2000/svg" stdDeviation="2.146804531419514" result="pf_100_offsetBlur"/><feComposite xmlns="http://www.w3.org/2000/svg" in="SourceGraphic" in2="pf_100_offsetBlur" result="pf_100_inverse" operator="out"/><feFlood xmlns="http://www.w3.org/2000/svg" flood-color="#000000" flood-opacity="0.5" result="pf_100_color"/><feComposite xmlns="http://www.w3.org/2000/svg" in="pf_100_color" in2="pf_100_inverse" operator="in" result="pf_100_shadow"/><feComposite xmlns="http://www.w3.org/2000/svg" in="pf_100_shadow" in2="SourceGraphic" operator="over"/></filter></defs><g filter="url(#lPuxmL4BDsFyNYT8eNS71DPMtODfM0r1)"><path d=" M 80.232 5.853 L 83.097 4.902 C 84.402 4.469 85.812 5.177 86.245 6.482 L 89.085 15.041 C 89.518 16.346 88.81 17.757 87.506 18.19 L 84.641 19.14 C 83.336 19.573 81.925 18.865 81.492 17.561 L 78.652 9.001 C 78.219 7.696 78.927 6.286 80.232 5.853 Z " fill="rgb(0,0,255)"/></g><path d=" M 76.285 8.216 C 75.589 6.121 77.577 3.573 80.72 2.53 C 83.863 1.487 86.979 2.342 87.674 4.437 C 88.369 6.532 86.382 9.08 83.239 10.123 C 80.096 11.166 76.98 10.311 76.285 8.216 Z " fill="rgb(0,0,255)" vector-effect="non-scaling-stroke" stroke-width="1" stroke="rgb(0,0,164)" stroke-linejoin="miter" stroke-linecap="butt" stroke-miterlimit="3" style="mix-blend-mode:hard-light;"/></g><defs><filter id="nTXzrV84VLDwwp5uPaE0wV3ddiWdqhGd" x="-200%" y="-200%" width="400%" height="400%" filterUnits="objectBoundingBox" color-interpolation-filters="sRGB"><feGaussianBlur xmlns="http://www.w3.org/2000/svg" stdDeviation="3.9071842471835154"/></filter></defs><g filter="url(#nTXzrV84VLDwwp5uPaE0wV3ddiWdqhGd)"><path d=" M 81 27.5 C 81 25.568 84.137 24 88 24 C 91.863 24 95 25.568 95 27.5 C 95 29.432 91.863 31 88 31 C 84.137 31 81 29.432 81 27.5 Z " fill="rgb(70,70,70)"/></g></g></g></svg>