<?xml version="1.0" standalone="no"?><!-- Generator: Gravit.io --><svg xmlns="http://www.w3.org/2000/svg" xmlns:xlink="http://www.w3.org/1999/xlink" style="isolation:isolate" viewBox="0 0 180 163" width="180px" height="163px"><defs><clipPath id="_clipPath_XSHuR9CwGJdYOzGVRV7FrkuNWWJ9tYb1"><rect width="180" height="163"/></clipPath></defs><g clip-path="url(#_clipPath_XSHuR9CwGJdYOzGVRV7FrkuNWWJ9tYb1)"><path d=" M 0 0 L 180 0 L 180 163 L 0 163 L 0 0 Z " fill="rgb(78,174,174)"/><g><g><path d=" M 86.897 20.828 L 87.868 20.592 L 89.394 26.896 L 88.422 27.131 L 86.897 20.828 Z " fill="rgb(116,116,116)"/><path d=" M 79.167 18.536 C 78.356 16.091 80.674 13.119 84.341 11.902 C 88.008 10.686 91.644 11.682 92.455 14.127 C 93.068 15.975 91.892 18.125 89.698 19.59 C 88.989 20.062 88.175 20.464 87.28 20.761 C 83.614 21.977 79.978 20.98 79.167 18.536 Z " fill="rgb(198,130,28)" vector-effect="non-scaling-stroke" stroke-width="1" stroke="rgb(165,105,15)" stroke-linejoin="miter" stroke-linecap="butt" stroke-miterlimit="3" style="mix-blend-mode:hard-light;"/><defs><filter id="iuosg9hFQ8LnlZxsh7LcelfPinDjWNQF" x="-200%" y="-200%" width="400%" height="400%" filterUnits="objectBoundingBox" color-interpolation-filters="sRGB"><feOffset xmlns="http://www.w3.org/2000/svg" in="SourceGraphic" dx="3" dy="3"/><feGaussianBlur xmlns="http://www.w3.org/2000/svg" stdDeviation="2.146804531419514" result="pf_100_offsetBlur"/><feComposite xmlns="http://www.w3.org/2000/svg" in="SourceGraphic" in2="pf_100_offsetBlur" result="pf_100_inverse" operator="out"/><feFlood xmlns="http://www.w3.org/2000/svg" flood-color="#000000" flood-opacity="0.5" result="pf_100_color"/><feComposite xmlns="http://www.w3.org/2000/svg" in="pf_100_color" in2="pf_100_inverse" operator="in" result="pf_100_shadow"/><feComposite xmlns="http://www.w3.org/2000/svg" in="pf_100_shadow" in2="SourceGraphic" operator="over"/></filter></defs><g filter="url(#iuosg9hFQ8LnlZxsh7LcelfPinDjWNQF)"><path d=" M 80.232 4.31 L 83.097 3.359 C 84.402 2.926 85.812 3.634 86.245 4.939 L 89.085 13.499 C 89.518 14.803 88.81 16.214 87.506 16.647 L 84.641 17.598 C 83.336 18.031 81.925 17.323 81.492 16.018 L 78.652 7.458 C 78.219 6.154 78.927 4.743 80.232 4.31 Z " fill="rgb(225,143,21)"/></g><path d=" M 76.285 6.673 C 75.589 4.578 77.577 2.03 80.72 0.987 C 83.863 -0.056 86.979 0.799 87.674 2.894 C 88.369 4.99 86.382 7.537 83.239 8.58 C 80.096 9.623 76.98 8.769 76.285 6.673 Z " fill="rgb(225,143,21)" vector-effect="non-scaling-stroke" stroke-width="1" stroke="rgb(190,126,30)" stroke-linejoin="miter" stroke-linecap="butt" stroke-miterlimit="3" style="mix-blend-mode:hard-light;"/></g><defs><filter id="LlbwuNPdEyqLU6MZw8C9VzuREK4Y2dUi" x="-200%" y="-200%" width="400%" height="400%" filterUnits="objectBoundingBox" color-interpolation-filters="sRGB"><feGaussianBlur xmlns="http://www.w3.org/2000/svg" stdDeviation="3.9071842471835154"/></filter></defs><g filter="url(#LlbwuNPdEyqLU6MZw8C9VzuREK4Y2dUi)"><path d=" M 81 25.957 C 81 24.026 84.137 22.457 88 22.457 C 91.863 22.457 95 24.026 95 25.957 C 95 27.889 91.863 29.457 88 29.457 C 84.137 29.457 81 27.889 81 25.957 Z " fill="rgb(70,70,70)"/></g></g><path d=" M 55.899 101.581 L 55.899 101.581 L 55.899 101.581 Q 53.786 101.129 52.52 100.011 L 52.52 100.011 L 52.52 100.011 Q 51.255 98.893 50.63 97.557 L 50.63 97.557 L 50.63 97.557 Q 50.004 96.221 49.913 94.881 L 49.913 94.881 L 49.913 94.881 Q 49.822 93.54 50.061 92.66 L 50.061 92.66 L 50.061 92.66 Q 50.3 91.78 50.788 91.606 L 50.788 91.606 L 50.788 91.606 Q 51.275 91.432 51.796 92.376 L 51.796 92.376 L 51.796 92.376 Q 51.795 94.624 52.457 96.168 L 52.457 96.168 L 52.457 96.168 Q 53.119 97.712 54.169 98.618 L 54.169 98.618 L 54.169 98.618 Q 55.219 99.523 56.553 99.808 L 56.553 99.808 L 56.553 99.808 Q 57.888 100.093 59.207 99.881 L 59.207 99.881 L 59.207 99.881 Q 60.526 99.668 61.688 98.966 L 61.688 98.966 L 61.688 98.966 Q 62.85 98.264 63.591 97.189 L 63.591 97.189 L 63.591 97.189 Q 64.331 96.114 64.506 94.657 L 64.506 94.657 L 64.506 94.657 Q 64.68 93.199 64.025 91.493 L 64.025 91.493 L 64.025 91.493 Q 63.713 90.726 62.766 89.696 L 62.766 89.696 L 62.766 89.696 Q 61.82 88.666 60.638 87.516 L 60.638 87.516 L 60.638 87.516 Q 59.456 86.365 58.213 85.173 L 58.213 85.173 L 58.213 85.173 Q 56.97 83.98 56.074 82.833 L 56.074 82.833 L 56.074 82.833 Q 55.179 81.687 54.804 80.664 L 54.804 80.664 L 54.804 80.664 Q 54.429 79.64 55.001 78.827 L 55.001 78.827 L 55.001 78.827 Q 55.477 78.28 56.408 77.172 L 56.408 77.172 L 56.408 77.172 Q 57.339 76.064 58.464 74.94 L 58.464 74.94 L 58.464 74.94 Q 59.588 73.817 60.804 72.909 L 60.804 72.909 L 60.804 72.909 Q 62.019 72.001 63.093 71.814 L 63.093 71.814 L 63.093 71.814 Q 63.89 71.675 63.984 71.908 L 63.984 71.908 L 63.984 71.908 Q 64.078 72.142 63.732 72.612 L 63.732 72.612 L 63.732 72.612 Q 63.386 73.083 62.703 73.773 L 62.703 73.773 L 62.703 73.773 Q 62.02 74.463 61.232 75.261 L 61.232 75.261 L 61.232 75.261 Q 60.443 76.059 59.649 76.928 L 59.649 76.928 L 59.649 76.928 Q 58.855 77.798 58.338 78.62 L 58.338 78.62 L 58.338 78.62 Q 57.821 79.442 57.644 80.169 L 57.644 80.169 L 57.644 80.169 Q 57.467 80.895 57.916 81.424 L 57.916 81.424 L 57.916 81.424 Q 59.471 82.973 61.049 84.553 L 61.049 84.553 L 61.049 84.553 Q 62.627 86.134 63.867 87.72 L 63.867 87.72 L 63.867 87.72 Q 65.107 89.306 65.868 90.904 L 65.868 90.904 L 65.868 90.904 Q 66.628 92.502 66.55 94.104 L 66.55 94.104 L 66.55 94.104 Q 66.473 95.705 65.381 97.323 L 65.381 97.323 L 65.381 97.323 Q 64.289 98.941 61.891 100.537 L 61.891 100.537 L 61.891 100.537 Q 60.447 101.467 59.003 101.682 L 59.003 101.682 L 59.003 101.682 Q 57.56 101.898 55.899 101.581 Z  M 72.48 96.799 L 72.48 96.799 L 72.48 96.799 Q 72.418 96.239 72.459 95.144 L 72.459 95.144 L 72.459 95.144 Q 72.5 94.048 72.482 92.82 L 72.482 92.82 L 72.482 92.82 Q 72.465 91.592 72.311 90.405 L 72.311 90.405 L 72.311 90.405 Q 72.158 89.219 71.739 88.453 L 71.739 88.453 L 71.739 88.453 Q 71.32 87.688 70.562 87.534 L 70.562 87.534 L 70.562 87.534 Q 69.804 87.381 68.555 88.205 L 68.555 88.205 L 68.555 88.205 Q 67.757 88.13 67.587 87.767 L 67.587 87.767 L 67.587 87.767 Q 67.417 87.404 67.644 86.865 L 67.644 86.865 L 67.644 86.865 Q 67.871 86.326 68.343 85.655 L 68.343 85.655 L 68.343 85.655 Q 68.815 84.984 69.298 84.275 L 69.298 84.275 L 69.298 84.275 Q 69.781 83.566 70.146 82.896 L 70.146 82.896 L 70.146 82.896 Q 70.511 82.226 70.483 81.66 L 70.483 81.66 L 70.483 81.66 Q 70.401 81.389 70.151 80.469 L 70.151 80.469 L 70.151 80.469 Q 69.901 79.549 69.549 78.343 L 69.549 78.343 L 69.549 78.343 Q 69.196 77.138 68.833 75.774 L 68.833 75.774 L 68.833 75.774 Q 68.47 74.409 68.114 73.187 L 68.114 73.187 L 68.114 73.187 Q 67.758 71.964 67.512 71.061 L 67.512 71.061 L 67.512 71.061 Q 67.265 70.159 67.176 69.853 L 67.176 69.853 L 67.176 69.853 Q 67.063 69.409 67.046 69.001 L 67.046 69.001 L 67.046 69.001 Q 67.028 68.594 67.188 68.281 L 67.188 68.281 L 67.188 68.281 Q 67.347 67.967 67.696 67.817 L 67.696 67.817 L 67.696 67.817 Q 68.044 67.668 68.669 67.773 L 68.669 67.773 L 68.669 67.773 Q 69.072 69.059 69.535 70.691 L 69.535 70.691 L 69.535 70.691 Q 69.998 72.323 70.514 74.053 L 70.514 74.053 L 70.514 74.053 Q 71.029 75.783 71.597 77.504 L 71.597 77.504 L 71.597 77.504 Q 72.165 79.225 72.777 80.689 L 72.777 80.689 L 72.777 80.689 Q 73.075 80.351 73.442 79.592 L 73.442 79.592 L 73.442 79.592 Q 73.809 78.832 74.221 77.921 L 74.221 77.921 L 74.221 77.921 Q 74.634 77.011 75.098 76.091 L 75.098 76.091 L 75.098 76.091 Q 75.562 75.172 76.029 74.573 L 76.029 74.573 L 76.029 74.573 Q 76.495 73.974 76.965 73.803 L 76.965 73.803 L 76.965 73.803 Q 77.435 73.632 77.855 74.201 L 77.855 74.201 L 77.855 74.201 Q 77.902 74.264 77.941 74.489 L 77.941 74.489 L 77.941 74.489 Q 77.98 74.714 77.964 74.824 L 77.964 74.824 L 77.964 74.824 Q 77.755 76.288 76.973 77.638 L 76.973 77.638 L 76.973 77.638 Q 76.191 78.987 75.363 80.274 L 75.363 80.274 L 75.363 80.274 Q 74.534 81.56 73.975 82.853 L 73.975 82.853 L 73.975 82.853 Q 73.415 84.146 73.61 85.468 L 73.61 85.468 L 73.61 85.468 Q 73.97 85.691 74.667 86.212 L 74.667 86.212 L 78.206 88.7 L 78.206 88.7 Q 79.216 89.38 80.114 90.027 L 80.114 90.027 L 80.114 90.027 Q 81.012 90.673 81.709 91.194 L 81.709 91.194 L 82.761 91.903 L 82.761 91.903 Q 83.005 92.074 83.537 92.463 L 83.537 92.463 L 83.537 92.463 Q 84.068 92.852 84.511 93.346 L 84.511 93.346 L 84.511 93.346 Q 84.954 93.84 85.079 94.353 L 85.079 94.353 L 85.079 94.353 Q 85.205 94.867 84.607 95.328 L 84.607 95.328 L 84.607 95.328 Q 84.544 95.375 84.319 95.414 L 84.319 95.414 L 84.319 95.414 Q 84.093 95.453 84.018 95.431 L 84.018 95.431 L 84.018 95.431 Q 81.865 93.522 79.34 91.625 L 79.34 91.625 L 79.34 91.625 Q 76.815 89.727 74.135 88.482 L 74.135 88.482 L 74.135 88.482 Q 74.155 88.799 74.2 89.469 L 74.2 89.469 L 74.2 89.469 Q 74.246 90.14 74.269 90.992 L 74.269 90.992 L 74.269 90.992 Q 74.293 91.844 74.332 92.783 L 74.332 92.783 L 74.332 92.783 Q 74.37 93.722 74.377 94.577 L 74.377 94.577 L 74.377 94.577 Q 74.383 95.433 74.394 96.109 L 74.394 96.109 L 74.394 96.109 Q 74.405 96.785 74.39 97.109 L 74.39 97.109 L 74.39 97.109 Q 74.385 97.288 74.293 97.679 L 74.293 97.679 L 74.293 97.679 Q 74.201 98.07 74.018 98.458 L 74.018 98.458 L 74.018 98.458 Q 73.836 98.847 73.558 99.092 L 73.558 99.092 L 73.558 99.092 Q 73.279 99.337 72.903 99.224 L 72.903 99.224 L 72.903 99.224 Q 72.879 99.085 72.804 98.759 L 72.804 98.759 L 72.804 98.759 Q 72.729 98.433 72.66 98.035 L 72.66 98.035 L 72.66 98.035 Q 72.591 97.637 72.547 97.287 L 72.547 97.287 L 72.547 97.287 Q 72.504 96.938 72.48 96.799 Z  M 87.343 94.851 L 87.343 94.851 L 87.343 94.851 Q 87.25 94.725 87.076 94.344 L 87.076 94.344 L 87.076 94.344 Q 86.903 93.964 86.715 93.497 L 86.715 93.497 L 86.715 93.497 Q 86.526 93.031 86.378 92.592 L 86.378 92.592 L 86.378 92.592 Q 86.231 92.154 86.194 91.946 L 86.194 91.946 L 83.26 75.114 L 83.26 75.114 Q 83.2 74.768 83.487 74.575 L 83.487 74.575 L 83.487 74.575 Q 83.775 74.382 84.17 74.296 L 84.17 74.296 L 84.17 74.296 Q 84.566 74.209 84.901 74.186 L 84.901 74.186 L 84.901 74.186 Q 85.236 74.163 85.27 74.157 L 85.27 74.157 L 88.518 92.79 L 88.518 92.79 Q 88.621 93.379 89.068 93.694 L 89.068 93.694 L 89.068 93.694 Q 89.516 94.008 90.074 94.143 L 90.074 94.143 L 90.074 94.143 Q 90.633 94.277 91.196 94.233 L 91.196 94.233 L 91.196 94.233 Q 91.76 94.188 92.122 94.018 L 92.122 94.018 L 92.122 94.018 Q 92.734 94.661 92.307 95.181 L 92.307 95.181 L 92.307 95.181 Q 91.881 95.702 90.972 95.913 L 90.972 95.913 L 90.972 95.913 Q 90.063 96.125 89.007 95.899 L 89.007 95.899 L 89.007 95.899 Q 87.95 95.673 87.343 94.851 Z  M 81.621 69.191 L 81.621 69.191 L 81.621 69.191 Q 81.446 68.186 82.191 67.753 L 82.191 67.753 L 82.191 67.753 Q 82.936 67.32 83.834 67.556 L 83.834 67.556 L 84.154 69.391 L 84.154 69.391 Q 84.056 69.444 83.799 69.507 L 83.799 69.507 L 83.799 69.507 Q 83.543 69.569 83.248 69.621 L 83.248 69.621 L 83.248 69.621 Q 82.954 69.672 82.691 69.7 L 82.691 69.7 L 82.691 69.7 Q 82.428 69.728 82.318 69.711 L 82.318 69.711 L 82.318 69.711 Q 82.174 69.701 81.906 69.498 L 81.906 69.498 L 81.906 69.498 Q 81.639 69.295 81.621 69.191 Z  M 95.97 94.596 L 95.97 94.596 L 95.97 94.596 Q 95.124 94.244 94.582 93.286 L 94.582 93.286 L 94.582 93.286 Q 94.04 92.327 93.688 91.229 L 93.688 91.229 L 93.688 91.229 Q 93.336 90.131 93.167 89.161 L 93.167 89.161 L 92.914 87.706 L 92.914 87.706 Q 92.847 87.325 92.68 86.159 L 92.68 86.159 L 92.68 86.159 Q 92.512 84.993 92.313 83.439 L 92.313 83.439 L 92.313 83.439 Q 92.113 81.886 91.878 80.125 L 91.878 80.125 L 91.878 80.125 Q 91.642 78.364 91.443 76.811 L 91.443 76.811 L 91.443 76.811 Q 91.243 75.257 91.096 74.105 L 91.096 74.105 L 91.096 74.105 Q 90.949 72.953 90.882 72.572 L 90.882 72.572 L 90.882 72.572 Q 90.792 72.053 90.586 70.768 L 90.586 70.768 L 90.586 70.768 Q 90.38 69.484 90.129 68.047 L 90.129 68.047 L 90.129 68.047 Q 89.878 66.609 89.638 65.331 L 89.638 65.331 L 89.638 65.331 Q 89.397 64.052 89.306 63.533 L 89.306 63.533 L 89.306 63.533 Q 89.76 63.061 90.116 62.856 L 90.116 62.856 L 90.116 62.856 Q 90.439 62.658 90.731 62.696 L 90.731 62.696 L 90.731 62.696 Q 91.023 62.734 91.107 63.219 L 91.107 63.219 L 96.034 91.48 L 96.034 91.48 Q 96.076 91.723 96.289 92.025 L 96.289 92.025 L 96.289 92.025 Q 96.503 92.326 96.787 92.527 L 96.787 92.527 L 96.787 92.527 Q 97.072 92.727 97.41 92.721 L 97.41 92.721 L 97.41 92.721 Q 97.748 92.716 98.04 92.344 L 98.04 92.344 L 101.609 88.046 L 101.609 88.046 Q 101.921 88.813 101.864 89.715 L 101.864 89.715 L 101.864 89.715 Q 101.807 90.617 101.473 91.46 L 101.473 91.46 L 101.473 91.46 Q 101.138 92.304 100.554 93.048 L 100.554 93.048 L 100.554 93.048 Q 99.97 93.792 99.231 94.26 L 99.231 94.26 L 99.231 94.26 Q 98.491 94.728 97.657 94.855 L 97.657 94.855 L 97.657 94.855 Q 96.823 94.983 95.97 94.596 Z  M 104.594 93.093 L 104.594 93.093 L 104.594 93.093 Q 103.748 92.741 103.206 91.782 L 103.206 91.782 L 103.206 91.782 Q 102.664 90.824 102.312 89.726 L 102.312 89.726 L 102.312 89.726 Q 101.96 88.627 101.791 87.658 L 101.791 87.658 L 101.538 86.203 L 101.538 86.203 Q 101.471 85.822 101.303 84.656 L 101.303 84.656 L 101.303 84.656 Q 101.136 83.489 100.936 81.936 L 100.936 81.936 L 100.936 81.936 Q 100.737 80.383 100.501 78.622 L 100.501 78.622 L 100.501 78.622 Q 100.266 76.861 100.066 75.307 L 100.066 75.307 L 100.066 75.307 Q 99.867 73.754 99.72 72.602 L 99.72 72.602 L 99.72 72.602 Q 99.573 71.45 99.506 71.069 L 99.506 71.069 L 99.506 71.069 Q 99.416 70.55 99.209 69.265 L 99.209 69.265 L 99.209 69.265 Q 99.003 67.981 98.753 66.543 L 98.753 66.543 L 98.753 66.543 Q 98.502 65.106 98.262 63.828 L 98.262 63.828 L 98.262 63.828 Q 98.021 62.549 97.93 62.03 L 97.93 62.03 L 97.93 62.03 Q 98.383 61.558 98.74 61.353 L 98.74 61.353 L 98.74 61.353 Q 99.062 61.154 99.355 61.193 L 99.355 61.193 L 99.355 61.193 Q 99.647 61.231 99.731 61.716 L 99.731 61.716 L 104.658 89.977 L 104.658 89.977 Q 104.7 90.219 104.913 90.521 L 104.913 90.521 L 104.913 90.521 Q 105.126 90.823 105.411 91.023 L 105.411 91.023 L 105.411 91.023 Q 105.696 91.224 106.034 91.218 L 106.034 91.218 L 106.034 91.218 Q 106.372 91.213 106.664 90.841 L 106.664 90.841 L 110.233 86.543 L 110.233 86.543 Q 110.545 87.309 110.488 88.211 L 110.488 88.211 L 110.488 88.211 Q 110.431 89.113 110.096 89.957 L 110.096 89.957 L 110.096 89.957 Q 109.762 90.8 109.178 91.544 L 109.178 91.544 L 109.178 91.544 Q 108.594 92.289 107.854 92.756 L 107.854 92.756 L 107.854 92.756 Q 107.115 93.224 106.281 93.352 L 106.281 93.352 L 106.281 93.352 Q 105.447 93.48 104.594 93.093 Z  M 113.218 91.59 L 113.218 91.59 L 113.218 91.59 Q 112.278 91.111 111.684 90.055 L 111.684 90.055 L 111.684 90.055 Q 111.089 88.999 110.9 88.015 L 110.9 88.015 L 110.9 88.015 Q 110.71 87.031 110.894 86.445 L 110.894 86.445 L 110.894 86.445 Q 111.077 85.86 111.653 86.295 L 111.653 86.295 L 111.653 86.295 Q 111.91 88.178 112.841 89.015 L 112.841 89.015 L 112.841 89.015 Q 113.772 89.851 114.905 89.904 L 114.905 89.904 L 114.905 89.904 Q 116.038 89.956 117.201 89.361 L 117.201 89.361 L 117.201 89.361 Q 118.364 88.765 119.106 87.798 L 119.106 87.798 L 119.106 87.798 Q 119.847 86.83 119.971 85.595 L 119.971 85.595 L 119.971 85.595 Q 120.094 84.36 119.166 83.13 L 119.166 83.13 L 119.166 83.13 Q 118.091 82.282 116.799 81.526 L 116.799 81.526 L 116.799 81.526 Q 115.507 80.77 114.201 80.034 L 114.201 80.034 L 114.201 80.034 Q 112.896 79.298 111.65 78.498 L 111.65 78.498 L 111.65 78.498 Q 110.404 77.698 109.38 76.735 L 109.38 76.735 L 109.38 76.735 Q 109.298 76.678 109.259 76.453 L 109.259 76.453 L 109.259 76.453 Q 109.22 76.228 109.277 76.146 L 109.277 76.146 L 109.277 76.146 Q 109.465 75.792 109.801 75.056 L 109.801 75.056 L 109.801 75.056 Q 110.136 74.319 110.58 73.385 L 110.58 73.385 L 110.58 73.385 Q 111.024 72.452 111.522 71.419 L 111.522 71.419 L 111.522 71.419 Q 112.02 70.387 112.464 69.453 L 112.464 69.453 L 112.464 69.453 Q 112.908 68.519 113.261 67.779 L 113.261 67.779 L 113.261 67.779 Q 113.614 67.04 113.802 66.686 L 113.802 66.686 L 113.802 66.686 Q 114.178 65.978 114.662 65.786 L 114.662 65.786 L 114.662 65.786 Q 115.146 65.595 116.123 65.674 L 116.123 65.674 L 116.123 65.674 Q 116.113 65.819 115.952 66.329 L 115.952 66.329 L 115.952 66.329 Q 115.791 66.839 115.711 66.995 L 115.711 66.995 L 115.711 66.995 Q 115.507 67.459 114.923 68.614 L 114.923 68.614 L 114.923 68.614 Q 114.339 69.768 113.675 71.079 L 113.675 71.079 L 113.675 71.079 Q 113.012 72.391 112.428 73.545 L 112.428 73.545 L 112.428 73.545 Q 111.844 74.7 111.599 75.135 L 111.599 75.135 L 111.599 75.135 Q 111.394 75.599 111.976 76.068 L 111.976 76.068 L 111.976 76.068 Q 112.557 76.538 113.578 77.074 L 113.578 77.074 L 113.578 77.074 Q 114.6 77.609 115.89 78.259 L 115.89 78.259 L 115.89 78.259 Q 117.181 78.908 118.372 79.7 L 118.372 79.7 L 118.372 79.7 Q 119.563 80.491 120.466 81.476 L 120.466 81.476 L 120.466 81.476 Q 121.369 82.46 121.641 83.715 L 121.641 83.715 L 121.641 83.715 Q 121.914 84.971 121.376 86.492 L 121.376 86.492 L 121.376 86.492 Q 120.838 88.013 119.101 89.922 L 119.101 89.922 L 119.101 89.922 Q 118.562 90.515 117.878 90.991 L 117.878 90.991 L 117.878 90.991 Q 117.194 91.467 116.418 91.728 L 116.418 91.728 L 116.418 91.728 Q 115.643 91.988 114.822 91.988 L 114.822 91.988 L 114.822 91.988 Q 114.001 91.988 113.218 91.59 Z " fill="rgb(0,0,0)"/></g></svg>