<?xml version="1.0" encoding="UTF-8" standalone="no"?><!-- Generator: Gravit.io --><svg xmlns="http://www.w3.org/2000/svg" xmlns:xlink="http://www.w3.org/1999/xlink" style="isolation:isolate" viewBox="0 0 180 163" width="180pt" height="163pt"><defs><clipPath id="_clipPath_Y0n7L4kME1Pa9LVVuqkOMbKzp2Ow6rBJ"><rect width="180" height="163"/></clipPath></defs><g clip-path="url(#_clipPath_Y0n7L4kME1Pa9LVVuqkOMbKzp2Ow6rBJ)"><path d=" M 0 0 L 180 0 L 180 163 L 0 163 L 0 0 Z " fill="rgb(78,174,174)"/><g><g><path d=" M 86.897 20.828 L 87.868 20.592 L 89.394 26.896 L 88.422 27.131 L 86.897 20.828 Z " fill="rgb(116,116,116)"/><path d=" M 79.167 18.536 C 78.356 16.091 80.674 13.119 84.341 11.902 C 88.008 10.686 91.644 11.682 92.455 14.127 C 93.266 16.572 90.947 19.544 87.28 20.761 C 83.614 21.977 79.978 20.98 79.167 18.536 Z " fill="rgb(255,0,0)" vector-effect="non-scaling-stroke" stroke-width="1" stroke="rgb(144,0,0)" stroke-linejoin="miter" stroke-linecap="butt" stroke-miterlimit="3" style="mix-blend-mode:hard-light;"/><defs><filter id="J0P4uCiBQbNCSl8sNCN6xw5wVyDQzmKA" x="-200%" y="-200%" width="400%" height="400%" filterUnits="objectBoundingBox" color-interpolation-filters="sRGB"><feOffset xmlns="http://www.w3.org/2000/svg" in="SourceGraphic" dx="3" dy="3"/><feGaussianBlur xmlns="http://www.w3.org/2000/svg" stdDeviation="2.146804531419514" result="pf_100_offsetBlur"/><feComposite xmlns="http://www.w3.org/2000/svg" in="SourceGraphic" in2="pf_100_offsetBlur" result="pf_100_inverse" operator="out"/><feFlood xmlns="http://www.w3.org/2000/svg" flood-color="#000000" flood-opacity="0.5" result="pf_100_color"/><feComposite xmlns="http://www.w3.org/2000/svg" in="pf_100_color" in2="pf_100_inverse" operator="in" result="pf_100_shadow"/><feComposite xmlns="http://www.w3.org/2000/svg" in="pf_100_shadow" in2="SourceGraphic" operator="over"/></filter></defs><g filter="url(#J0P4uCiBQbNCSl8sNCN6xw5wVyDQzmKA)"><path d=" M 80.232 4.31 L 83.097 3.359 C 84.402 2.926 85.812 3.634 86.245 4.939 L 89.085 13.499 C 89.518 14.803 88.81 16.214 87.506 16.647 L 84.641 17.598 C 83.336 18.031 81.925 17.323 81.492 16.018 L 78.652 7.458 C 78.219 6.154 78.927 4.743 80.232 4.31 Z " fill="rgb(255,0,0)"/></g><path d=" M 76.285 6.673 C 75.589 4.578 77.577 2.03 80.72 0.987 C 83.863 -0.056 86.979 0.799 87.674 2.894 C 88.369 4.99 86.382 7.537 83.239 8.58 C 80.096 9.623 76.98 8.769 76.285 6.673 Z " fill="rgb(255,0,0)" vector-effect="non-scaling-stroke" stroke-width="1" stroke="rgb(205,0,0)" stroke-linejoin="miter" stroke-linecap="butt" stroke-miterlimit="3" style="mix-blend-mode:hard-light;"/></g><defs><filter id="sCJorc16Z7QbFchnhWtqgR0dKrNiUsUr" x="-200%" y="-200%" width="400%" height="400%" filterUnits="objectBoundingBox" color-interpolation-filters="sRGB"><feGaussianBlur xmlns="http://www.w3.org/2000/svg" stdDeviation="3.9071842471835154"/></filter></defs><g filter="url(#sCJorc16Z7QbFchnhWtqgR0dKrNiUsUr)"><path d=" M 81 25.957 C 81 24.026 84.137 22.457 88 22.457 C 91.863 22.457 95 24.026 95 25.957 C 95 27.889 91.863 29.457 88 29.457 C 84.137 29.457 81 27.889 81 25.957 Z " fill="rgb(70,70,70)"/></g></g><path d=" M 21.395 105.653 L 21.395 105.653 L 21.395 105.653 Q 21.031 103.664 20.506 101.694 L 20.506 101.694 L 20.506 101.694 Q 19.981 99.724 19.427 97.76 L 19.427 97.76 L 19.427 97.76 Q 18.874 95.797 18.349 93.827 L 18.349 93.827 L 18.349 93.827 Q 17.823 91.857 17.488 89.861 L 17.488 89.861 L 17.488 89.861 Q 17.191 90.014 16.566 90.313 L 16.566 90.313 L 16.566 90.313 Q 15.94 90.611 15.152 90.989 L 15.152 90.989 L 15.152 90.989 Q 14.364 91.366 13.478 91.78 L 13.478 91.78 L 13.478 91.78 Q 12.593 92.193 11.805 92.571 L 11.805 92.571 L 11.805 92.571 Q 11.017 92.949 10.391 93.247 L 10.391 93.247 L 10.391 93.247 Q 9.766 93.545 9.463 93.67 L 9.463 93.67 L 9.463 93.67 Q 9.08 93.841 8.654 93.738 L 8.654 93.738 L 8.654 93.738 Q 8.227 93.634 7.863 93.472 L 7.863 93.472 L 8.658 92.284 L 8.658 92.284 Q 13.094 90.888 17.193 88.621 L 17.193 88.621 L 17.193 88.621 Q 21.293 86.354 24.987 83.589 L 24.987 83.589 L 26.477 83.271 L 26.477 83.271 Q 26.669 83.469 26.595 83.755 L 26.595 83.755 L 26.595 83.755 Q 26.521 84.04 26.338 84.304 L 26.338 84.304 L 26.338 84.304 Q 26.154 84.568 25.962 84.789 L 25.962 84.789 L 25.792 84.975 L 19.39 88.946 L 19.39 88.946 Q 19.361 88.952 19.493 89.643 L 19.493 89.643 L 19.493 89.643 Q 19.626 90.334 19.827 91.279 L 19.827 91.279 L 19.827 91.279 Q 20.029 92.225 20.26 93.239 L 20.26 93.239 L 20.26 93.239 Q 20.491 94.253 20.661 94.906 L 20.661 94.906 L 20.661 94.906 Q 20.71 95.135 20.918 95.9 L 20.918 95.9 L 20.918 95.9 Q 21.126 96.664 21.386 97.672 L 21.386 97.672 L 21.386 97.672 Q 21.645 98.68 21.947 99.814 L 21.947 99.814 L 21.947 99.814 Q 22.249 100.948 22.526 101.967 L 22.526 101.967 L 22.526 101.967 Q 22.804 102.986 22.994 103.74 L 22.994 103.74 L 22.994 103.74 Q 23.185 104.493 23.269 104.745 L 23.269 104.745 L 23.269 104.745 Q 23.372 105.232 23.186 105.691 L 23.186 105.691 L 23.186 105.691 Q 22.999 106.15 22.686 106.367 L 22.686 106.367 L 22.686 106.367 Q 22.373 106.583 22.003 106.467 L 22.003 106.467 L 22.003 106.467 Q 21.634 106.351 21.395 105.653 Z  M 37.407 102.777 L 37.407 102.777 L 37.407 102.777 Q 36.002 102.088 35.028 100.963 L 35.028 100.963 L 35.028 100.963 Q 34.054 99.838 33.37 98.456 L 33.37 98.456 L 33.37 98.456 Q 33.229 98.636 32.922 98.881 L 32.922 98.881 L 32.922 98.881 Q 32.615 99.126 32.281 99.317 L 32.281 99.317 L 32.281 99.317 Q 31.947 99.508 31.613 99.625 L 31.613 99.625 L 31.613 99.625 Q 31.278 99.741 31.096 99.66 L 31.096 99.66 L 31.096 99.66 Q 30.914 99.579 30.927 99.291 L 30.927 99.291 L 30.927 99.291 Q 30.941 99.004 31.283 98.362 L 31.283 98.362 L 31.283 98.362 Q 31.322 98.264 31.562 97.913 L 31.562 97.913 L 31.562 97.913 Q 31.802 97.562 32.075 97.159 L 32.075 97.159 L 32.075 97.159 Q 32.349 96.757 32.571 96.395 L 32.571 96.395 L 32.571 96.395 Q 32.794 96.033 32.832 95.934 L 32.832 95.934 L 32.832 95.934 Q 32.995 95.151 32.883 94.276 L 32.883 94.276 L 32.883 94.276 Q 32.771 93.401 32.587 92.467 L 32.587 92.467 L 32.587 92.467 Q 32.403 91.533 32.293 90.597 L 32.293 90.597 L 32.293 90.597 Q 32.184 89.662 32.356 88.787 L 32.356 88.787 L 32.356 88.787 Q 32.459 88.285 32.874 87.493 L 32.874 87.493 L 32.874 87.493 Q 33.289 86.7 33.857 85.92 L 33.857 85.92 L 33.857 85.92 Q 34.424 85.14 35.048 84.483 L 35.048 84.483 L 35.048 84.483 Q 35.672 83.826 36.177 83.598 L 36.177 83.598 L 36.177 83.598 Q 36.683 83.37 37.006 83.691 L 37.006 83.691 L 37.006 83.691 Q 37.329 84.011 37.297 85.127 L 37.297 85.127 L 37.297 85.127 Q 37.251 86.455 36.86 87.781 L 36.86 87.781 L 36.86 87.781 Q 36.469 89.108 36.029 90.415 L 36.029 90.415 L 36.029 90.415 Q 35.589 91.722 35.217 92.999 L 35.217 92.999 L 35.217 92.999 Q 34.845 94.277 34.838 95.507 L 34.838 95.507 L 34.838 95.507 Q 34.829 96.168 35.022 97.07 L 35.022 97.07 L 35.022 97.07 Q 35.214 97.973 35.604 98.818 L 35.604 98.818 L 35.604 98.818 Q 35.994 99.664 36.609 100.296 L 36.609 100.296 L 36.609 100.296 Q 37.223 100.929 38.086 101.045 L 38.086 101.045 L 38.086 101.045 Q 39.077 101.193 39.957 100.825 L 39.957 100.825 L 39.957 100.825 Q 40.837 100.458 41.607 99.784 L 41.607 99.784 L 41.607 99.784 Q 42.377 99.111 43.023 98.209 L 43.023 98.209 L 43.023 98.209 Q 43.67 97.307 44.192 96.387 L 44.192 96.387 L 44.192 96.387 Q 44.715 95.467 45.104 94.62 L 45.104 94.62 L 45.104 94.62 Q 45.492 93.773 45.755 93.178 L 45.755 93.178 L 46.352 93.59 L 46.352 93.59 Q 46.589 93.719 46.316 94.616 L 46.316 94.616 L 46.316 94.616 Q 46.043 95.513 45.415 96.711 L 45.415 96.711 L 45.415 96.711 Q 44.786 97.908 43.867 99.213 L 43.867 99.213 L 43.867 99.213 Q 42.947 100.517 41.882 101.493 L 41.882 101.493 L 41.882 101.493 Q 40.817 102.469 39.664 102.895 L 39.664 102.895 L 39.664 102.895 Q 38.512 103.32 37.407 102.777 Z  M 33.775 90.521 L 33.775 90.521 L 33.775 90.521 Q 33.777 90.671 33.839 91.032 L 33.839 91.032 L 33.839 91.032 Q 33.901 91.393 33.986 91.794 L 33.986 91.794 L 33.986 91.794 Q 34.072 92.195 34.16 92.536 L 34.16 92.536 L 34.16 92.536 Q 34.247 92.877 34.306 93.014 L 34.306 93.014 L 34.306 93.014 Q 34.887 91.242 35.311 89.295 L 35.311 89.295 L 35.311 89.295 Q 35.734 87.347 35.807 85.444 L 35.807 85.444 L 35.807 85.444 Q 35.197 85.814 34.768 86.4 L 34.768 86.4 L 34.768 86.4 Q 34.339 86.986 34.098 87.681 L 34.098 87.681 L 34.098 87.681 Q 33.857 88.377 33.788 89.11 L 33.788 89.11 L 33.788 89.11 Q 33.72 89.844 33.775 90.521 Z  M 48.844 99.798 L 48.844 99.798 L 48.844 99.798 Q 47.613 99.222 46.899 98.191 L 46.899 98.191 L 46.899 98.191 Q 46.185 97.16 45.858 95.837 L 45.858 95.837 L 45.858 95.837 Q 45.53 94.514 45.56 93.04 L 45.56 93.04 L 45.56 93.04 Q 45.59 91.566 45.854 90.131 L 45.854 90.131 L 45.854 90.131 Q 46.117 88.697 46.549 87.422 L 46.549 87.422 L 46.549 87.422 Q 46.981 86.147 47.5 85.212 L 47.5 85.212 L 47.5 85.212 Q 48.02 84.277 48.551 83.819 L 48.551 83.819 L 48.551 83.819 Q 49.083 83.362 49.516 83.569 L 49.516 83.569 L 49.516 83.569 Q 49.641 83.872 49.979 84.683 L 49.979 84.683 L 49.979 84.683 Q 50.317 85.495 50.679 86.421 L 50.679 86.421 L 50.679 86.421 Q 51.041 87.347 51.351 88.165 L 51.351 88.165 L 51.351 88.165 Q 51.66 88.983 51.784 89.286 L 51.784 89.286 L 51.784 89.286 Q 51.921 89.646 51.981 90.068 L 51.981 90.068 L 51.981 90.068 Q 52.041 90.489 51.968 90.849 L 51.968 90.849 L 51.968 90.849 Q 51.895 91.209 51.599 91.437 L 51.599 91.437 L 51.599 91.437 Q 51.303 91.665 50.722 91.609 L 50.722 91.609 L 50.722 91.609 Q 50.651 91.415 50.418 90.955 L 50.418 90.955 L 50.418 90.955 Q 50.185 90.496 49.908 89.971 L 49.908 89.971 L 49.908 89.971 Q 49.632 89.445 49.367 88.978 L 49.367 88.978 L 49.367 88.978 Q 49.103 88.51 49.002 88.321 L 49.002 88.321 L 48.411 87.938 L 48.411 87.938 Q 47.652 88.729 47.303 89.972 L 47.303 89.972 L 47.303 89.972 Q 46.954 91.215 46.974 92.574 L 46.974 92.574 L 46.974 92.574 Q 46.994 93.932 47.401 95.208 L 47.401 95.208 L 47.401 95.208 Q 47.808 96.485 48.549 97.36 L 48.549 97.36 L 48.549 97.36 Q 49.29 98.235 50.357 98.532 L 50.357 98.532 L 50.357 98.532 Q 51.423 98.829 52.797 98.176 L 52.797 98.176 L 52.797 98.176 Q 54.171 97.524 55.835 95.776 L 55.835 95.776 L 55.835 95.776 Q 57.499 94.028 59.417 90.803 L 59.417 90.803 L 59.631 91.806 L 59.631 91.806 Q 59.649 91.892 59.397 92.395 L 59.397 92.395 L 59.397 92.395 Q 59.145 92.898 58.777 93.561 L 58.777 93.561 L 58.777 93.561 Q 58.409 94.223 58.024 94.875 L 58.024 94.875 L 58.024 94.875 Q 57.639 95.526 57.362 95.915 L 57.362 95.915 L 57.362 95.915 Q 56.606 97.004 55.691 97.979 L 55.691 97.979 L 55.691 97.979 Q 54.775 98.953 53.708 99.57 L 53.708 99.57 L 53.708 99.57 Q 52.642 100.187 51.425 100.311 L 51.425 100.311 L 51.425 100.311 Q 50.209 100.436 48.844 99.798 Z  M 65.447 97.305 L 64.231 96.516 L 64.231 96.516 Q 63.841 93.424 63.119 90.673 L 63.119 90.673 L 63.119 90.673 Q 62.397 87.921 61.467 85.243 L 61.467 85.243 L 61.467 85.243 Q 60.536 82.566 59.473 79.827 L 59.473 79.827 L 59.473 79.827 Q 58.409 77.089 57.37 74.045 L 57.37 74.045 L 57.37 74.045 Q 57.352 73.959 57.295 73.761 L 57.295 73.761 L 57.295 73.761 Q 57.238 73.564 57.186 73.32 L 57.186 73.32 L 57.186 73.32 Q 57.134 73.077 57.106 72.873 L 57.106 72.873 L 57.106 72.873 Q 57.077 72.67 57.059 72.584 L 57.059 72.584 L 58.062 72.37 L 58.062 72.37 Q 58.258 72.867 58.676 73.916 L 58.676 73.916 L 58.676 73.916 Q 59.095 74.965 59.631 76.289 L 59.631 76.289 L 59.631 76.289 Q 60.168 77.612 60.764 79.073 L 60.764 79.073 L 60.764 79.073 Q 61.361 80.533 61.897 81.856 L 61.897 81.856 L 61.897 81.856 Q 62.434 83.18 62.867 84.226 L 62.867 84.226 L 62.867 84.226 Q 63.3 85.272 63.525 85.763 L 63.525 85.763 L 63.525 85.763 Q 63.543 85.849 63.66 86.049 L 63.66 86.049 L 63.66 86.049 Q 63.778 86.248 63.898 86.462 L 63.898 86.462 L 63.898 86.462 Q 64.019 86.676 64.136 86.876 L 64.136 86.876 L 64.136 86.876 Q 64.254 87.075 64.329 87.149 L 64.329 87.149 L 64.329 87.149 Q 64.367 86.902 64.52 86.285 L 64.52 86.285 L 64.52 86.285 Q 64.673 85.668 64.85 84.956 L 64.85 84.956 L 64.85 84.956 Q 65.028 84.244 65.195 83.624 L 65.195 83.624 L 65.195 83.624 Q 65.363 83.004 65.457 82.745 L 65.457 82.745 L 65.457 82.745 Q 65.738 81.816 66.308 80.976 L 66.308 80.976 L 66.308 80.976 Q 66.877 80.135 67.528 79.817 L 67.528 79.817 L 67.528 79.817 Q 68.179 79.498 68.816 79.886 L 68.816 79.886 L 68.816 79.886 Q 69.453 80.275 69.927 81.791 L 69.927 81.791 L 69.927 81.791 Q 70.035 82.158 70.243 82.922 L 70.243 82.922 L 70.243 82.922 Q 70.451 83.687 70.719 84.663 L 70.719 84.663 L 70.719 84.663 Q 70.987 85.639 71.277 86.716 L 71.277 86.716 L 71.277 86.716 Q 71.566 87.792 71.817 88.757 L 71.817 88.757 L 71.817 88.757 Q 72.068 89.722 72.276 90.487 L 72.276 90.487 L 72.276 90.487 Q 72.484 91.251 72.563 91.624 L 72.563 91.624 L 72.563 91.624 Q 72.964 91.958 73.235 92.454 L 73.235 92.454 L 73.235 92.454 Q 73.505 92.95 73.472 93.497 L 73.472 93.497 L 73.472 93.497 Q 72.942 93.82 72.492 93.676 L 72.492 93.676 L 72.492 93.676 Q 72.042 93.532 71.667 93.178 L 71.667 93.178 L 71.667 93.178 Q 71.291 92.824 70.981 92.351 L 70.981 92.351 L 70.981 92.351 Q 70.67 91.878 70.448 91.536 L 70.448 91.536 L 70.448 91.536 Q 70.273 90.435 70.032 89.168 L 70.032 89.168 L 70.032 89.168 Q 69.792 87.901 69.471 86.607 L 69.471 86.607 L 69.471 86.607 Q 69.15 85.312 68.746 84.05 L 68.746 84.05 L 68.746 84.05 Q 68.342 82.788 67.84 81.697 L 67.84 81.697 L 67.84 81.697 Q 67.269 81.549 66.923 82.103 L 66.923 82.103 L 66.923 82.103 Q 66.576 82.656 66.388 83.669 L 66.388 83.669 L 66.388 83.669 Q 66.2 84.683 66.125 86.017 L 66.125 86.017 L 66.125 86.017 Q 66.05 87.351 66.031 88.808 L 66.031 88.808 L 66.031 88.808 Q 66.013 90.265 66.005 91.704 L 66.005 91.704 L 66.005 91.704 Q 65.998 93.144 65.964 94.319 L 65.964 94.319 L 65.964 94.319 Q 65.93 95.495 65.817 96.298 L 65.817 96.298 L 65.817 96.298 Q 65.703 97.101 65.447 97.305 L 65.447 97.305 L 65.447 97.305 Z  M 76.804 94.374 L 76.804 94.374 L 76.804 94.374 Q 76.754 93.995 76.558 93.078 L 76.558 93.078 L 75.727 89.181 L 75.727 89.181 Q 75.531 88.265 75.423 87.898 L 75.423 87.898 L 75.423 87.898 Q 75.358 87.732 75.164 87.175 L 75.164 87.175 L 75.164 87.175 Q 74.97 86.617 74.705 85.865 L 74.705 85.865 L 74.705 85.865 Q 74.44 85.112 74.142 84.277 L 74.142 84.277 L 74.142 84.277 Q 73.844 83.442 73.564 82.693 L 73.564 82.693 L 73.564 82.693 Q 73.284 81.944 73.091 81.386 L 73.091 81.386 L 73.091 81.386 Q 72.897 80.828 72.825 80.634 L 72.825 80.634 L 72.825 80.634 Q 72.682 80.245 72.605 79.812 L 72.605 79.812 L 72.605 79.812 Q 72.528 79.379 72.604 79.034 L 72.604 79.034 L 72.604 79.034 Q 72.68 78.688 72.967 78.492 L 72.967 78.492 L 72.967 78.492 Q 73.255 78.295 73.9 78.368 L 73.9 78.368 L 73.9 78.368 Q 74.057 78.963 74.302 79.765 L 74.302 79.765 L 74.302 79.765 Q 74.548 80.566 74.852 81.43 L 74.852 81.43 L 74.852 81.43 Q 75.156 82.293 75.512 83.116 L 75.512 83.116 L 75.512 83.116 Q 75.867 83.939 76.277 84.601 L 76.277 84.601 L 76.277 84.601 Q 76.424 83.461 76.608 82.568 L 76.608 82.568 L 76.608 82.568 Q 76.792 81.675 77.104 80.89 L 77.104 80.89 L 77.104 80.89 Q 77.415 80.104 77.857 79.366 L 77.857 79.366 L 77.857 79.366 Q 78.299 78.628 78.96 77.797 L 78.96 77.797 L 78.96 77.797 Q 79.786 76.753 80.493 76.767 L 80.493 76.767 L 80.493 76.767 Q 81.2 76.781 81.818 77.502 L 81.818 77.502 L 81.818 77.502 Q 82.436 78.224 82.998 79.453 L 82.998 79.453 L 82.998 79.453 Q 83.559 80.681 84.097 82.079 L 84.097 82.079 L 84.097 82.079 Q 84.635 83.477 85.175 84.815 L 85.175 84.815 L 85.175 84.815 Q 85.715 86.152 86.305 87.09 L 86.305 87.09 L 86.305 87.09 Q 86.894 88.028 87.554 88.381 L 87.554 88.381 L 87.554 88.381 Q 88.213 88.735 88.981 88.122 L 88.981 88.122 L 88.981 88.122 Q 89.404 88.84 89.294 89.238 L 89.294 89.238 L 89.294 89.238 Q 89.184 89.636 88.749 89.774 L 88.749 89.774 L 88.749 89.774 Q 88.314 89.911 87.655 89.768 L 87.655 89.768 L 87.655 89.768 Q 86.995 89.624 86.307 89.276 L 86.307 89.276 L 86.307 89.276 Q 85.618 88.929 85.019 88.368 L 85.019 88.368 L 85.019 88.368 Q 84.42 87.806 84.09 87.098 L 84.09 87.098 L 84.09 87.098 Q 83.865 86.607 83.528 85.45 L 83.528 85.45 L 83.528 85.45 Q 83.192 84.294 82.733 82.984 L 82.733 82.984 L 82.733 82.984 Q 82.274 81.674 81.637 80.447 L 81.637 80.447 L 81.637 80.447 Q 81.001 79.219 80.177 78.586 L 80.177 78.586 L 78.587 80.963 L 78.587 80.963 Q 78.525 81.095 78.392 82.083 L 78.392 82.083 L 78.392 82.083 Q 78.258 83.07 78.11 84.344 L 78.11 84.344 L 78.11 84.344 Q 77.963 85.619 77.85 86.916 L 77.85 86.916 L 77.85 86.916 Q 77.737 88.213 77.724 88.995 L 77.724 88.995 L 77.724 88.995 Q 77.722 89.265 77.786 89.985 L 77.786 89.985 L 77.786 89.985 Q 77.849 90.706 77.935 91.526 L 77.935 91.526 L 77.935 91.526 Q 78.02 92.347 78.126 93.058 L 78.126 93.058 L 78.126 93.058 Q 78.233 93.769 78.294 94.056 L 78.294 94.056 L 78.294 94.056 Q 78.146 94.627 77.659 94.73 L 77.659 94.73 L 77.659 94.73 Q 77.172 94.834 76.804 94.374 Z  M 92.005 90.083 L 92.005 90.083 L 92.005 90.083 Q 91.063 89.175 90.642 87.902 L 90.642 87.902 L 90.642 87.902 Q 90.22 86.629 90.058 85.166 L 90.058 85.166 L 90.058 85.166 Q 89.896 83.703 89.899 82.174 L 89.899 82.174 L 89.899 82.174 Q 89.903 80.646 89.842 79.236 L 89.842 79.236 L 89.842 79.236 Q 89.78 77.826 89.555 76.631 L 89.555 76.631 L 89.555 76.631 Q 89.331 75.436 88.717 74.668 L 88.717 74.668 L 88.717 74.668 Q 88.39 74.258 88.007 74.355 L 88.007 74.355 L 88.007 74.355 Q 87.623 74.452 87.2 74.647 L 87.2 74.647 L 87.2 74.647 Q 86.777 74.842 86.327 74.908 L 86.327 74.908 L 86.327 74.908 Q 85.877 74.974 85.423 74.532 L 85.423 74.532 L 85.423 74.532 Q 85.427 74.411 85.574 74.185 L 85.574 74.185 L 85.574 74.185 Q 85.72 73.959 85.8 73.912 L 85.8 73.912 L 85.8 73.912 Q 88.299 72.99 90.225 73.522 L 90.225 73.522 L 90.225 73.522 Q 92.151 74.055 93.534 75.483 L 93.534 75.483 L 93.534 75.483 Q 94.917 76.91 95.756 78.948 L 95.756 78.948 L 95.756 78.948 Q 96.595 80.986 96.927 83.102 L 96.927 83.102 L 96.927 83.102 Q 97.258 85.218 97.096 87.125 L 97.096 87.125 L 97.096 87.125 Q 96.934 89.032 96.311 90.183 L 96.311 90.183 L 96.311 90.183 Q 95.687 91.334 94.603 91.446 L 94.603 91.446 L 94.603 91.446 Q 93.518 91.557 92.005 90.083 Z  M 93.281 88.762 L 93.281 88.762 L 93.281 88.762 Q 93.328 88.842 93.502 88.955 L 93.502 88.955 L 93.502 88.955 Q 93.676 89.067 93.87 89.206 L 93.87 89.206 L 93.87 89.206 Q 94.065 89.344 94.235 89.442 L 94.235 89.442 L 94.235 89.442 Q 94.406 89.541 94.47 89.557 L 94.47 89.557 L 94.47 89.557 Q 95.401 88.729 95.697 87.588 L 95.697 87.588 L 95.697 87.588 Q 95.993 86.446 95.824 85.164 L 95.824 85.164 L 95.824 85.164 Q 95.656 83.882 95.144 82.538 L 95.144 82.538 L 95.144 82.538 Q 94.633 81.195 93.957 79.991 L 93.957 79.991 L 93.957 79.991 Q 93.281 78.787 92.518 77.811 L 92.518 77.811 L 92.518 77.811 Q 91.756 76.836 91.122 76.252 L 91.122 76.252 L 91.122 76.252 Q 91.173 76.63 91.252 77.422 L 91.252 77.422 L 91.252 77.422 Q 91.331 78.214 91.453 79.207 L 91.453 79.207 L 91.453 79.207 Q 91.575 80.199 91.692 81.312 L 91.692 81.312 L 91.692 81.312 Q 91.81 82.426 91.921 83.436 L 91.921 83.436 L 91.921 83.436 Q 92.031 84.446 92.11 85.237 L 92.11 85.237 L 92.11 85.237 Q 92.189 86.029 92.24 86.408 L 92.24 86.408 L 92.24 86.408 Q 92.273 86.701 92.392 87.05 L 92.392 87.05 L 92.392 87.05 Q 92.511 87.399 92.671 87.724 L 92.671 87.724 L 92.671 87.724 Q 92.83 88.05 92.994 88.329 L 92.994 88.329 L 92.994 88.329 Q 93.159 88.609 93.281 88.762 Z  M 101.417 89.124 L 101.417 89.124 L 101.417 89.124 Q 100.701 88.857 100.22 88.076 L 100.22 88.076 L 100.22 88.076 Q 99.739 87.295 99.411 86.391 L 99.411 86.391 L 99.411 86.391 Q 99.083 85.488 98.912 84.685 L 98.912 84.685 L 98.656 83.482 L 98.656 83.482 Q 98.588 83.167 98.412 82.201 L 98.412 82.201 L 98.412 82.201 Q 98.236 81.235 98.022 79.947 L 98.022 79.947 L 98.022 79.947 Q 97.807 78.66 97.556 77.201 L 97.556 77.201 L 97.556 77.201 Q 97.304 75.742 97.09 74.455 L 97.09 74.455 L 97.09 74.455 Q 96.875 73.167 96.716 72.213 L 96.716 72.213 L 96.716 72.213 Q 96.557 71.258 96.49 70.943 L 96.49 70.943 L 96.49 70.943 Q 96.399 70.513 96.187 69.45 L 96.187 69.45 L 96.187 69.45 Q 95.975 68.387 95.721 67.198 L 95.721 67.198 L 95.721 67.198 Q 95.468 66.009 95.227 64.951 L 95.227 64.951 L 95.227 64.951 Q 94.987 63.894 94.895 63.465 L 94.895 63.465 L 94.895 63.465 Q 95.258 63.058 95.548 62.876 L 95.548 62.876 L 95.548 62.876 Q 95.81 62.7 96.055 62.723 L 96.055 62.723 L 96.055 62.723 Q 96.299 62.746 96.385 63.147 L 96.385 63.147 L 101.372 86.527 L 101.372 86.527 Q 101.415 86.728 101.602 86.972 L 101.602 86.972 L 101.602 86.972 Q 101.789 87.217 102.032 87.375 L 102.032 87.375 L 102.032 87.375 Q 102.276 87.533 102.557 87.518 L 102.557 87.518 L 102.557 87.518 Q 102.838 87.502 103.07 87.183 L 103.07 87.183 L 105.907 83.493 L 105.907 83.493 Q 106.191 84.121 106.172 84.874 L 106.172 84.874 L 106.172 84.874 Q 106.153 85.627 105.9 86.34 L 105.9 86.34 L 105.9 86.34 Q 105.648 87.053 105.185 87.691 L 105.185 87.691 L 105.185 87.691 Q 104.722 88.329 104.121 88.742 L 104.121 88.742 L 104.121 88.742 Q 103.52 89.154 102.829 89.287 L 102.829 89.287 L 102.829 89.287 Q 102.139 89.419 101.417 89.124 Z  M 108.996 86.459 L 108.996 86.459 L 108.996 86.459 Q 108.054 85.551 107.632 84.278 L 107.632 84.278 L 107.632 84.278 Q 107.211 83.005 107.049 81.542 L 107.049 81.542 L 107.049 81.542 Q 106.887 80.079 106.89 78.55 L 106.89 78.55 L 106.89 78.55 Q 106.893 77.022 106.832 75.612 L 106.832 75.612 L 106.832 75.612 Q 106.771 74.202 106.546 73.007 L 106.546 73.007 L 106.546 73.007 Q 106.321 71.811 105.708 71.044 L 105.708 71.044 L 105.708 71.044 Q 105.381 70.634 104.997 70.731 L 104.997 70.731 L 104.997 70.731 Q 104.614 70.828 104.191 71.023 L 104.191 71.023 L 104.191 71.023 Q 103.768 71.218 103.318 71.284 L 103.318 71.284 L 103.318 71.284 Q 102.868 71.35 102.414 70.907 L 102.414 70.907 L 102.414 70.907 Q 102.418 70.787 102.565 70.561 L 102.565 70.561 L 102.565 70.561 Q 102.711 70.335 102.791 70.288 L 102.791 70.288 L 102.791 70.288 Q 105.29 69.365 107.216 69.898 L 107.216 69.898 L 107.216 69.898 Q 109.142 70.431 110.525 71.858 L 110.525 71.858 L 110.525 71.858 Q 111.908 73.286 112.747 75.324 L 112.747 75.324 L 112.747 75.324 Q 113.586 77.361 113.918 79.477 L 113.918 79.477 L 113.918 79.477 Q 114.249 81.594 114.087 83.5 L 114.087 83.5 L 114.087 83.5 Q 113.924 85.407 113.301 86.559 L 113.301 86.559 L 113.301 86.559 Q 112.678 87.71 111.594 87.822 L 111.594 87.822 L 111.594 87.822 Q 110.509 87.933 108.996 86.459 Z  M 110.272 85.138 L 110.272 85.138 L 110.272 85.138 Q 110.319 85.218 110.493 85.33 L 110.493 85.33 L 110.493 85.33 Q 110.667 85.443 110.861 85.581 L 110.861 85.581 L 110.861 85.581 Q 111.055 85.72 111.226 85.818 L 111.226 85.818 L 111.226 85.818 Q 111.397 85.917 111.46 85.933 L 111.46 85.933 L 111.46 85.933 Q 112.392 85.105 112.688 83.964 L 112.688 83.964 L 112.688 83.964 Q 112.984 82.822 112.815 81.54 L 112.815 81.54 L 112.815 81.54 Q 112.646 80.258 112.135 78.914 L 112.135 78.914 L 112.135 78.914 Q 111.624 77.57 110.948 76.367 L 110.948 76.367 L 110.948 76.367 Q 110.271 75.163 109.509 74.187 L 109.509 74.187 L 109.509 74.187 Q 108.747 73.211 108.113 72.628 L 108.113 72.628 L 108.113 72.628 Q 108.164 73.006 108.243 73.798 L 108.243 73.798 L 108.243 73.798 Q 108.322 74.59 108.444 75.583 L 108.444 75.583 L 108.444 75.583 Q 108.566 76.575 108.683 77.688 L 108.683 77.688 L 108.683 77.688 Q 108.801 78.802 108.911 79.811 L 108.911 79.811 L 108.911 79.811 Q 109.022 80.821 109.101 81.613 L 109.101 81.613 L 109.101 81.613 Q 109.18 82.405 109.231 82.784 L 109.231 82.784 L 109.231 82.784 Q 109.263 83.076 109.383 83.425 L 109.383 83.425 L 109.383 83.425 Q 109.502 83.774 109.661 84.1 L 109.661 84.1 L 109.661 84.1 Q 109.821 84.425 109.985 84.705 L 109.985 84.705 L 109.985 84.705 Q 110.15 84.984 110.272 85.138 Z  M 123.523 93.755 L 123.523 93.755 L 123.523 93.755 Q 122.446 93.056 122.125 91.761 L 122.125 91.761 L 122.125 91.761 Q 121.804 90.467 121.97 88.859 L 121.97 88.859 L 121.97 88.859 Q 122.136 87.25 122.66 85.491 L 122.66 85.491 L 122.66 85.491 Q 123.183 83.732 123.785 82.061 L 123.785 82.061 L 123.785 82.061 Q 124.387 80.39 124.909 78.975 L 124.909 78.975 L 124.909 78.975 Q 125.431 77.561 125.633 76.679 L 125.633 76.679 L 125.633 76.679 Q 125.736 76.178 125.455 75.354 L 125.455 75.354 L 125.455 75.354 Q 125.174 74.53 124.773 73.702 L 124.773 73.702 L 124.773 73.702 Q 124.372 72.874 123.975 72.21 L 123.975 72.21 L 123.975 72.21 Q 123.579 71.545 123.456 71.392 L 123.456 71.392 L 123.079 72.011 L 119.624 82.634 L 119.624 82.634 Q 119.579 82.704 119.423 82.886 L 119.423 82.886 L 119.423 82.886 Q 119.267 83.069 119.069 83.262 L 119.069 83.262 L 119.069 83.262 Q 118.87 83.454 118.657 83.649 L 118.657 83.649 L 118.657 83.649 Q 118.444 83.844 118.342 83.926 L 118.342 83.926 L 118.342 83.926 Q 117.504 84.494 116.962 84.13 L 116.962 84.13 L 116.962 84.13 Q 116.42 83.767 116.189 82.752 L 116.189 82.752 L 116.189 82.752 Q 115.958 81.738 115.979 80.221 L 115.979 80.221 L 115.979 80.221 Q 115.999 78.704 116.273 76.968 L 116.273 76.968 L 116.273 76.968 Q 116.547 75.232 117.03 73.422 L 117.03 73.422 L 117.03 73.422 Q 117.512 71.611 118.204 70.011 L 118.204 70.011 L 118.204 70.011 Q 118.896 68.41 119.757 67.178 L 119.757 67.178 L 119.757 67.178 Q 120.617 65.946 121.633 65.37 L 121.633 65.37 L 121.633 65.37 Q 122.214 65.426 122.286 65.695 L 122.286 65.695 L 122.286 65.695 Q 122.359 65.964 122.128 66.358 L 122.128 66.358 L 122.128 66.358 Q 121.898 66.752 121.476 67.231 L 121.476 67.231 L 121.476 67.231 Q 121.054 67.71 120.6 68.182 L 120.6 68.182 L 120.6 68.182 Q 120.146 68.653 119.769 69.063 L 119.769 69.063 L 119.769 69.063 Q 119.393 69.473 119.298 69.732 L 119.298 69.732 L 119.298 69.732 Q 118.934 71.398 118.477 72.903 L 118.477 72.903 L 118.477 72.903 Q 118.019 74.409 117.719 75.881 L 117.719 75.881 L 117.719 75.881 Q 117.419 77.353 117.406 78.838 L 117.406 78.838 L 117.406 78.838 Q 117.393 80.324 117.92 81.949 L 117.92 81.949 L 118.297 81.329 L 118.297 81.329 Q 119.088 79.842 119.599 78.026 L 119.599 78.026 L 119.599 78.026 Q 120.111 76.209 120.475 74.409 L 120.475 74.409 L 120.475 74.409 Q 120.84 72.609 121.121 70.976 L 121.121 70.976 L 121.121 70.976 Q 121.402 69.344 121.704 68.231 L 121.704 68.231 L 121.704 68.231 Q 122.006 67.118 122.419 66.67 L 122.419 66.67 L 122.419 66.67 Q 122.833 66.223 123.453 66.809 L 123.453 66.809 L 123.453 66.809 Q 124.072 67.396 124.991 69.177 L 124.991 69.177 L 124.991 69.177 Q 125.91 70.958 127.211 74.246 L 127.211 74.246 L 127.211 74.246 Q 127.329 74.1 127.681 73.711 L 127.681 73.711 L 127.681 73.711 Q 128.032 73.322 128.438 72.905 L 128.438 72.905 L 128.438 72.905 Q 128.843 72.489 129.215 72.126 L 129.215 72.126 L 129.215 72.126 Q 129.586 71.762 129.74 71.639 L 129.74 71.639 L 129.74 71.639 Q 129.871 71.551 130.244 71.472 L 130.244 71.472 L 130.244 71.472 Q 130.616 71.392 130.743 71.425 L 130.743 71.425 L 130.743 71.425 Q 130.738 71.965 130.352 72.752 L 130.352 72.752 L 130.352 72.752 Q 129.965 73.538 129.478 74.271 L 129.478 74.271 L 129.478 74.271 Q 128.99 75.004 128.569 75.558 L 128.569 75.558 L 128.569 75.558 Q 128.148 76.113 128.125 76.147 L 128.125 76.147 L 128.125 76.147 Q 128.187 76.434 128.295 77.01 L 128.295 77.01 L 128.295 77.01 Q 128.402 77.586 128.518 78.34 L 128.518 78.34 L 128.518 78.34 Q 128.634 79.094 128.748 79.909 L 128.748 79.909 L 128.748 79.909 Q 128.862 80.723 128.964 81.481 L 128.964 81.481 L 128.964 81.481 Q 129.065 82.238 129.13 82.823 L 129.13 82.823 L 129.227 83.701 L 129.227 83.701 Q 129.25 84.086 129.102 85.15 L 129.102 85.15 L 129.102 85.15 Q 128.955 86.215 128.673 87.564 L 128.673 87.564 L 128.673 87.564 Q 128.392 88.912 127.938 90.297 L 127.938 90.297 L 127.938 90.297 Q 127.485 91.681 126.857 92.669 L 126.857 92.669 L 126.857 92.669 Q 126.229 93.657 125.397 94.044 L 125.397 94.044 L 125.397 94.044 Q 124.566 94.431 123.523 93.755 Z  M 123.985 88.474 L 123.985 88.474 L 123.985 88.474 Q 124.005 88.709 124.11 89.271 L 124.11 89.271 L 124.11 89.271 Q 124.215 89.833 124.349 90.463 L 124.349 90.463 L 124.349 90.463 Q 124.484 91.093 124.62 91.663 L 124.62 91.663 L 124.62 91.663 Q 124.757 92.233 124.828 92.428 L 124.828 92.428 L 124.828 92.428 Q 126.212 91.474 126.897 89.77 L 126.897 89.77 L 126.897 89.77 Q 127.582 88.066 127.71 86.136 L 127.71 86.136 L 127.71 86.136 Q 127.838 84.207 127.535 82.295 L 127.535 82.295 L 127.535 82.295 Q 127.231 80.382 126.645 79.039 L 126.645 79.039 L 126.645 79.039 Q 125.961 79.904 125.433 81.08 L 125.433 81.08 L 125.433 81.08 Q 124.905 82.256 124.551 83.545 L 124.551 83.545 L 124.551 83.545 Q 124.197 84.834 124.052 86.123 L 124.052 86.123 L 124.052 86.123 Q 123.908 87.412 123.985 88.474 Z  M 132.434 81.459 L 132.434 81.459 L 132.434 81.459 Q 132.352 81.357 132.196 81.046 L 132.196 81.046 L 132.196 81.046 Q 132.04 80.735 131.868 80.352 L 131.868 80.352 L 131.868 80.352 Q 131.697 79.969 131.56 79.609 L 131.56 79.609 L 131.56 79.609 Q 131.423 79.248 131.386 79.076 L 131.386 79.076 L 128.416 65.151 L 128.416 65.151 Q 128.355 64.865 128.588 64.695 L 128.588 64.695 L 128.588 64.695 Q 128.822 64.526 129.148 64.441 L 129.148 64.441 L 129.148 64.441 Q 129.475 64.356 129.753 64.327 L 129.753 64.327 L 129.753 64.327 Q 130.031 64.298 130.06 64.292 L 130.06 64.292 L 133.348 79.707 L 133.348 79.707 Q 133.452 80.194 133.834 80.442 L 133.834 80.442 L 133.834 80.442 Q 134.217 80.689 134.686 80.784 L 134.686 80.784 L 134.686 80.784 Q 135.156 80.879 135.623 80.824 L 135.623 80.824 L 135.623 80.824 Q 136.091 80.769 136.388 80.616 L 136.388 80.616 L 136.388 80.616 Q 136.917 81.132 136.578 81.579 L 136.578 81.579 L 136.578 81.579 Q 136.239 82.026 135.489 82.23 L 135.489 82.23 L 135.489 82.23 Q 134.739 82.435 133.852 82.28 L 133.852 82.28 L 133.852 82.28 Q 132.965 82.125 132.434 81.459 Z  M 126.866 60.27 L 126.866 60.27 L 126.866 60.27 Q 126.688 59.439 127.295 59.055 L 127.295 59.055 L 127.295 59.055 Q 127.903 58.671 128.657 58.839 L 128.657 58.839 L 128.981 60.358 L 128.981 60.358 Q 128.901 60.405 128.69 60.465 L 128.69 60.465 L 128.69 60.465 Q 128.478 60.525 128.234 60.577 L 128.234 60.577 L 128.234 60.577 Q 127.991 60.629 127.773 60.661 L 127.773 60.661 L 127.773 60.661 Q 127.555 60.692 127.463 60.682 L 127.463 60.682 L 127.463 60.682 Q 127.342 60.677 127.113 60.517 L 127.113 60.517 L 127.113 60.517 Q 126.884 60.356 126.866 60.27 Z  M 143.335 80.182 L 143.335 80.182 L 143.335 80.182 Q 141.93 79.494 140.956 78.368 L 140.956 78.368 L 140.956 78.368 Q 139.982 77.243 139.298 75.861 L 139.298 75.861 L 139.298 75.861 Q 139.157 76.041 138.849 76.286 L 138.849 76.286 L 138.849 76.286 Q 138.542 76.532 138.209 76.723 L 138.209 76.723 L 138.209 76.723 Q 137.875 76.914 137.54 77.03 L 137.54 77.03 L 137.54 77.03 Q 137.206 77.146 137.023 77.065 L 137.023 77.065 L 137.023 77.065 Q 136.841 76.984 136.855 76.697 L 136.855 76.697 L 136.855 76.697 Q 136.869 76.409 137.211 75.767 L 137.211 75.767 L 137.211 75.767 Q 137.25 75.669 137.49 75.318 L 137.49 75.318 L 137.49 75.318 Q 137.729 74.968 138.003 74.565 L 138.003 74.565 L 138.003 74.565 Q 138.276 74.162 138.499 73.8 L 138.499 73.8 L 138.499 73.8 Q 138.721 73.438 138.76 73.34 L 138.76 73.34 L 138.76 73.34 Q 138.922 72.556 138.811 71.681 L 138.811 71.681 L 138.811 71.681 Q 138.699 70.807 138.515 69.872 L 138.515 69.872 L 138.515 69.872 Q 138.33 68.938 138.221 68.003 L 138.221 68.003 L 138.221 68.003 Q 138.111 67.068 138.284 66.192 L 138.284 66.192 L 138.284 66.192 Q 138.387 65.691 138.802 64.898 L 138.802 64.898 L 138.802 64.898 Q 139.217 64.106 139.784 63.326 L 139.784 63.326 L 139.784 63.326 Q 140.352 62.546 140.976 61.888 L 140.976 61.888 L 140.976 61.888 Q 141.599 61.231 142.105 61.003 L 142.105 61.003 L 142.105 61.003 Q 142.611 60.776 142.934 61.096 L 142.934 61.096 L 142.934 61.096 Q 143.257 61.417 143.225 62.532 L 143.225 62.532 L 143.225 62.532 Q 143.179 63.86 142.787 65.186 L 142.787 65.186 L 142.787 65.186 Q 142.396 66.513 141.956 67.82 L 141.956 67.82 L 141.956 67.82 Q 141.516 69.127 141.145 70.405 L 141.145 70.405 L 141.145 70.405 Q 140.773 71.682 140.766 72.912 L 140.766 72.912 L 140.766 72.912 Q 140.757 73.573 140.949 74.475 L 140.949 74.475 L 140.949 74.475 Q 141.142 75.378 141.532 76.223 L 141.532 76.223 L 141.532 76.223 Q 141.922 77.069 142.536 77.702 L 142.536 77.702 L 142.536 77.702 Q 143.151 78.335 144.014 78.45 L 144.014 78.45 L 144.014 78.45 Q 145.004 78.598 145.884 78.231 L 145.884 78.231 L 145.884 78.231 Q 146.765 77.863 147.535 77.19 L 147.535 77.19 L 147.535 77.19 Q 148.305 76.516 148.951 75.614 L 148.951 75.614 L 148.951 75.614 Q 149.597 74.713 150.12 73.792 L 150.12 73.792 L 150.12 73.792 Q 150.643 72.872 151.031 72.025 L 151.031 72.025 L 151.031 72.025 Q 151.42 71.179 151.682 70.583 L 151.682 70.583 L 152.279 70.995 L 152.279 70.995 Q 152.517 71.124 152.244 72.021 L 152.244 72.021 L 152.244 72.021 Q 151.971 72.918 151.342 74.116 L 151.342 74.116 L 151.342 74.116 Q 150.714 75.313 149.794 76.618 L 149.794 76.618 L 149.794 76.618 Q 148.874 77.923 147.809 78.899 L 147.809 78.899 L 147.809 78.899 Q 146.744 79.875 145.592 80.3 L 145.592 80.3 L 145.592 80.3 Q 144.439 80.726 143.335 80.182 Z  M 139.702 67.926 L 139.702 67.926 L 139.702 67.926 Q 139.704 68.076 139.766 68.437 L 139.766 68.437 L 139.766 68.437 Q 139.828 68.798 139.914 69.199 L 139.914 69.199 L 139.914 69.199 Q 140 69.601 140.087 69.941 L 140.087 69.941 L 140.087 69.941 Q 140.175 70.282 140.234 70.419 L 140.234 70.419 L 140.234 70.419 Q 140.815 68.648 141.238 66.7 L 141.238 66.7 L 141.238 66.7 Q 141.661 64.753 141.735 62.85 L 141.735 62.85 L 141.735 62.85 Q 141.125 63.22 140.696 63.805 L 140.696 63.805 L 140.696 63.805 Q 140.266 64.391 140.025 65.087 L 140.025 65.087 L 140.025 65.087 Q 139.784 65.782 139.716 66.516 L 139.716 66.516 L 139.716 66.516 Q 139.648 67.249 139.702 67.926 Z  M 154.624 77.774 L 154.624 77.774 L 154.624 77.774 Q 153.826 77.405 153.298 76.544 L 153.298 76.544 L 153.298 76.544 Q 152.77 75.684 152.582 74.87 L 152.582 74.87 L 152.582 74.87 Q 152.393 74.056 152.528 73.563 L 152.528 73.563 L 152.528 73.563 Q 152.662 73.07 153.155 73.415 L 153.155 73.415 L 153.155 73.415 Q 153.428 74.974 154.229 75.642 L 154.229 75.642 L 154.229 75.642 Q 155.031 76.31 155.976 76.318 L 155.976 76.318 L 155.976 76.318 Q 156.921 76.326 157.871 75.794 L 157.871 75.794 L 157.871 75.794 Q 158.821 75.262 159.408 74.432 L 159.408 74.432 L 159.408 74.432 Q 159.995 73.603 160.06 72.571 L 160.06 72.571 L 160.06 72.571 Q 160.124 71.539 159.313 70.544 L 159.313 70.544 L 159.313 70.544 Q 158.39 69.872 157.291 69.282 L 157.291 69.282 L 157.291 69.282 Q 156.192 68.693 155.081 68.121 L 155.081 68.121 L 155.081 68.121 Q 153.971 67.549 152.908 66.922 L 152.908 66.922 L 152.908 66.922 Q 151.846 66.295 150.963 65.525 L 150.963 65.525 L 150.963 65.525 Q 150.893 65.48 150.853 65.293 L 150.853 65.293 L 150.853 65.293 Q 150.814 65.107 150.859 65.038 L 150.859 65.038 L 150.859 65.038 Q 151.004 64.737 151.261 64.113 L 151.261 64.113 L 151.261 64.113 Q 151.517 63.489 151.857 62.698 L 151.857 62.698 L 151.857 62.698 Q 152.198 61.906 152.58 61.031 L 152.58 61.031 L 152.58 61.031 Q 152.963 60.155 153.303 59.364 L 153.303 59.364 L 153.303 59.364 Q 153.644 58.572 153.914 57.945 L 153.914 57.945 L 153.914 57.945 Q 154.185 57.318 154.331 57.018 L 154.331 57.018 L 154.331 57.018 Q 154.622 56.416 155.019 56.242 L 155.019 56.242 L 155.019 56.242 Q 155.416 56.067 156.232 56.103 L 156.232 56.103 L 156.232 56.103 Q 156.228 56.224 156.11 56.653 L 156.11 56.653 L 156.11 56.653 Q 155.992 57.083 155.93 57.216 L 155.93 57.216 L 155.93 57.216 Q 155.775 57.608 155.325 58.588 L 155.325 58.588 L 155.325 58.588 Q 154.874 59.568 154.363 60.68 L 154.363 60.68 L 154.363 60.68 Q 153.851 61.793 153.401 62.773 L 153.401 62.773 L 153.401 62.773 Q 152.951 63.752 152.761 64.123 L 152.761 64.123 L 152.761 64.123 Q 152.605 64.515 153.104 64.888 L 153.104 64.888 L 153.104 64.888 Q 153.603 65.261 154.47 65.675 L 154.47 65.675 L 154.47 65.675 Q 155.337 66.089 156.432 66.59 L 156.432 66.59 L 156.432 66.59 Q 157.527 67.09 158.544 67.712 L 158.544 67.712 L 158.544 67.712 Q 159.56 68.334 160.343 69.125 L 160.343 69.125 L 160.343 69.125 Q 161.126 69.917 161.392 70.954 L 161.392 70.954 L 161.392 70.954 Q 161.658 71.99 161.258 73.274 L 161.258 73.274 L 161.258 73.274 Q 160.858 74.558 159.471 76.201 L 159.471 76.201 L 159.471 76.201 Q 159.041 76.713 158.486 77.13 L 158.486 77.13 L 158.486 77.13 Q 157.931 77.548 157.293 77.789 L 157.293 77.789 L 157.293 77.789 Q 156.656 78.03 155.972 78.056 L 155.972 78.056 L 155.972 78.056 Q 155.289 78.082 154.624 77.774 Z " fill="rgb(0,0,0)"/></g></svg>