<?xml version="1.0" standalone="no"?>
<!-- Generator: Gravit.io -->
<svg xmlns="http://www.w3.org/2000/svg" xmlns:xlink="http://www.w3.org/1999/xlink" style="isolation:isolate" viewBox="0 0 183 185" width="183" height="185">
<defs>
<clipPath id="_clipPath_OP6j50Ezan6HhtU8ARd5tl63c0EQBb1A">
<rect width="183" height="185"/>
</clipPath>
</defs>
<g clip-path="url(#_clipPath_OP6j50Ezan6HhtU8ARd5tl63c0EQBb1A)">
<path d=" M 165.532 92.5 L 165.532 92.5 L 165.532 92.5 L 109.5 92.5 L 109.5 107.177 L 164.107 107.177 C 157.353 141.473 127.392 167.355 91.5 167.355 C 50.64 167.355 17.468 133.814 17.468 92.5 L 17.468 92.5 C 17.468 51.186 50.64 17.645 91.5 17.645 C 125.839 17.645 154.749 41.335 163.101 73.419 L 179.515 73.419 C 170.833 32.343 134.701 1.5 91.5 1.5 C 41.828 1.5 1.5 42.276 1.5 92.5 L 1.5 92.5 L 1.5 92.5 C 1.5 142.724 41.828 183.5 91.5 183.5 C 141.172 183.5 181.5 142.724 181.5 92.5 L 181.5 92.5 L 165.532 92.5 Z " fill-rule="evenodd" fill="none" vector-effect="non-scaling-stroke" stroke-width="1" stroke="rgb(0,0,0)" stroke-linejoin="miter" stroke-linecap="square" stroke-miterlimit="3"/>
<path d=" M 101.5 53.113 L 101.5 174.857 C 101.5 179.075 98.075 182.5 93.857 182.5 L 89.434 182.5 C 85.215 182.5 81.79 179.075 81.79 174.857 L 81.79 53.113 L 22.41 53.113 C 19.932 53.113 17.919 51.101 17.919 48.622 L 17.919 39.991 C 17.919 37.512 19.932 35.5 22.41 35.5 L 158.59 35.5 C 161.068 35.5 163.081 37.512 163.081 39.991 L 163.081 48.622 C 163.081 51.101 161.068 53.113 158.59 53.113 L 101.5 53.113 Z " fill-rule="evenodd" fill="none" vector-effect="non-scaling-stroke" stroke-width="1" stroke="rgb(0,0,0)" stroke-linejoin="miter" stroke-linecap="square" stroke-miterlimit="3"/>
</g>
</svg>
