<?xml version="1.0" standalone="no"?><!-- Generator: Gravit.io --><svg xmlns="http://www.w3.org/2000/svg" xmlns:xlink="http://www.w3.org/1999/xlink" style="isolation:isolate" viewBox="0 0 150 150" width="150" height="150"><defs><clipPath id="_clipPath_nh6sf2a2bksjXeGdCnFiOqAJJ6b1ueKr"><rect width="150" height="150"/></clipPath></defs><g clip-path="url(#_clipPath_nh6sf2a2bksjXeGdCnFiOqAJJ6b1ueKr)"><g id="Social_Media_Icons_Twitter"><path d=" M 10.276 76.5 C 10.276 42.466 39.464 14.835 75.415 14.835 C 111.367 14.835 140.555 42.466 140.555 76.5 C 140.555 110.534 111.367 138.165 75.415 138.165 C 39.464 138.165 10.276 110.534 10.276 76.5 Z " fill="rgb(255,255,255)"/><path d=" M 75.415 7 C 35.104 7 2 38.085 2 76.5 C 2 114.915 35.104 146 75.415 146 C 115.994 146 148.831 114.915 148.831 76.5 C 148.831 38.085 115.994 7 75.415 7 Z  M 104.782 62.347 C 104.782 62.853 104.782 63.611 104.782 64.116 C 104.782 83.071 89.565 104.805 61.8 104.805 C 53.257 104.805 45.248 102.531 38.841 98.487 C 39.909 98.74 41.244 98.74 42.312 98.74 C 49.253 98.74 55.927 96.465 60.999 92.675 C 54.325 92.675 48.719 88.378 46.85 82.818 C 47.918 82.818 48.986 82.818 49.787 82.818 C 51.122 82.818 52.456 82.565 53.791 82.313 C 46.85 81.049 41.778 75.236 41.778 68.413 C 41.778 68.413 41.778 68.413 41.778 68.16 C 43.914 69.171 46.049 69.929 48.719 69.929 C 44.714 67.402 42.045 63.105 42.045 58.051 C 42.045 55.524 42.846 52.996 44.181 50.975 C 51.656 59.567 62.601 65.38 75.149 65.885 C 74.882 64.875 74.882 63.864 74.882 62.6 C 74.882 54.765 81.556 48.447 89.832 48.447 C 94.103 48.447 98.108 50.216 100.777 52.996 C 104.248 52.238 107.451 51.227 110.388 49.458 C 109.32 52.744 106.917 55.524 103.714 57.293 C 106.65 57.04 109.587 56.282 112.257 55.018 C 110.121 57.798 107.718 60.325 104.782 62.347 Z " fill="rgb(0,0,0)"/></g></g></svg>